SplineFontDB: 3.2
FontName: ANCHU
FullName: ANCHU
FamilyName: ANCHU
Weight: Regular
Copyright: Copyright (c) 2023, ARUN C KALLAPPANAVAR
UComments: "2023-3-20: Created by @arunckall"
Version: 001.000
ItalicAngle: 0
UnderlinePosition: -100
UnderlineWidth: 50
Ascent: 800
Descent: 200
InvalidEm: 0
LayerCount: 2
Layer: 0 0 "Back" 1
Layer: 1 0 "Fore" 0
XUID: [1021 850 -1075590257 8426]
StyleMap: 0x0000
FSType: 0
OS2Version: 0
OS2_WeightWidthSlopeOnly: 0
OS2_UseTypoMetrics: 1
CreationTime: 1679313052
ModificationTime: 1682055518
PfmFamily: 17
TTFWeight: 400
TTFWidth: 5
LineGap: 90
VLineGap: 90
Panose: 2 0 5 9 0 0 0 0 0 0
OS2TypoAscent: 0
OS2TypoAOffset: 1
OS2TypoDescent: -450
OS2TypoDOffset: 0
OS2TypoLinegap: 90
OS2WinAscent: 0
OS2WinAOffset: 1
OS2WinDescent: 0
OS2WinDOffset: 1
HheadAscent: 0
HheadAOffset: 1
HheadDescent: -450
HheadDOffset: 0
OS2Vendor: 'PfEd'
Lookup: 4 0 0 "'rphf' Reph Form lookup 1" { "'rphf' Reph Form lookup 1-1-"  } ['rphf' ('DFLT' <'dflt' > 'knd2' <'dflt' > 'knda' <'dflt' > ) ]
Lookup: 3 0 0 "'aalt' Access All Alternates lookup 2" { "'aalt' Access All Alternates lookup 2-1-"  } ['aalt' ('DFLT' <'dflt' > 'knd2' <'dflt' > 'knda' <'dflt' > ) ]
Lookup: 3 0 0 "'aalt' Access All Alternates lookup 3" { "'aalt' Access All Alternates lookup 3-1"  } ['aalt' ('DFLT' <'dflt' > 'knd2' <'dflt' > 'knda' <'dflt' > ) ]
Lookup: 4 0 0 "'akhn' Akhand lookup 4" { "'akhn' Akhand lookup 4-1"  } ['akhn' ('DFLT' <'dflt' > 'knd2' <'dflt' > 'knda' <'dflt' > ) ]
Lookup: 4 0 0 "'blwf' Below Base Forms lookup fk 5" { "'blwf' Below Base Forms lookup fk 5-1"  } ['blwf' ('DFLT' <'dflt' > 'knd2' <'dflt' > 'knda' <'dflt' > ) ]
Lookup: 4 0 0 "'blwf' Below Base Forms lookup kf 6" { "'blwf' Below Base Forms lookup kf 6-1"  } ['blwf' ('DFLT' <'dflt' > 'knd2' <'dflt' > 'latn' <'dflt' > ) ]
Lookup: 4 0 0 "'blwf' Below Base Forms lookup 12" { "'blwf' Below Base Forms lookup 12-1"  } ['blwf' ('DFLT' <'dflt' > 'knd2' <'dflt' > 'knda' <'dflt' > ) ]

StartChar: A
Encoding: 65 65 0
Width: 350
Flags: W
HStem: 0 21G<50 100 250 300> 200 50<100 250> 400 50<100 250>
VStem: 50 50<0 200 250 400> 250 50<0 200 250 400>
LayerCount: 2
Fore
SplineSet
50 425 m 1
 50 450 l 1
 300 450 l 1
 300 200 l 1
 300 0 l 1
 250 0 l 1
 250 200 l 1
 100 200 l 1
 100 0 l 1
 50 0 l 1
 50 425 l 1
100 400 m 1
 100 250 l 1
 250 250 l 1
 250 400 l 1
 100 400 l 1
EndSplineSet
EndChar

StartChar: C
Encoding: 67 67 1
Width: 350
Flags: W
HStem: 0 50<100 300> 400 50<100 300>
VStem: 50 50<50 400>
LayerCount: 2
Fore
SplineSet
50 425 m 1
 50 450 l 1
 300 450 l 1
 300 400 l 1
 100 400 l 1
 100 50 l 1
 300 50 l 1
 300 0 l 1
 50 0 l 1
 50 25 l 1
 50 425 l 1
EndSplineSet
EndChar

StartChar: exclam
Encoding: 33 33 2
Width: 150
Flags: W
HStem: 0 100<50 100>
VStem: 50 50<0 100 200 550>
LayerCount: 2
Fore
SplineSet
50 100 m 1
 100 100 l 1
 100 0 l 1
 50 0 l 1
 50 100 l 1
50 550 m 1
 100 550 l 1
 100 200 l 1
 50 200 l 1
 50 550 l 1
EndSplineSet
EndChar

StartChar: quotedbl
Encoding: 34 34 3
Width: 200
Flags: W
HStem: 500 100<0 50 100 150>
VStem: 0 50<500 600> 100 50<500 600>
LayerCount: 2
Fore
SplineSet
100 600 m 1
 150 600 l 1
 150 500 l 1
 100 500 l 1
 100 600 l 1
0 600 m 1
 50 600 l 1
 50 500 l 1
 0 500 l 1
 0 600 l 1
EndSplineSet
Validated: 1
EndChar

StartChar: numbersign
Encoding: 35 35 4
Width: 400
Flags: W
HStem: 151 50<0 100 150 200 250 350> 251 50<0 100 150 200 250 350>
VStem: 100 50<51 151 201 251 301 401> 200 50<51 151 201 251 301 401>
LayerCount: 2
Fore
SplineSet
200 301 m 1
 200 401 l 1
 250 401 l 1
 250 301 l 1
 350 301 l 1
 350 251 l 1
 250 251 l 1
 250 201 l 1
 350 201 l 1
 350 151 l 1
 250 151 l 1
 250 51 l 1
 200 51 l 1
 200 151 l 1
 150 151 l 1
 150 51 l 1
 100 51 l 1
 100 151 l 1
 0 151 l 1
 0 201 l 1
 100 201 l 1
 100 251 l 1
 0 251 l 1
 0 301 l 1
 100 301 l 1
 100 401 l 1
 150 401 l 1
 150 301 l 1
 200 301 l 1
150 251 m 1
 150 201 l 1
 200 201 l 1
 200 251 l 1
 150 251 l 1
EndSplineSet
Validated: 1
EndChar

StartChar: dollar
Encoding: 36 36 5
Width: 400
Flags: W
HStem: 149 50<0 100 150 200 250 300> 249 50<50 100 150 200 250 300> 349 50<50 100 150 200 250 350>
VStem: 0 50<299 349> 100 50<49 149 199 249 299 349 399 499> 200 50<49 149 199 249 299 349 399 499> 300 50<199 249>
CounterMasks: 1 e0
LayerCount: 2
Fore
SplineSet
200 399 m 1
 200 499 l 1
 250 499 l 1
 250 399 l 1
 350 399 l 1
 350 349 l 1
 250 349 l 1
 250 299 l 1
 350 299 l 1
 350 149 l 1
 250 149 l 1
 250 49 l 1
 200 49 l 1
 200 149 l 1
 150 149 l 1
 150 49 l 1
 100 49 l 1
 100 149 l 1
 0 149 l 1
 0 199 l 1
 100 199 l 1
 100 249 l 1
 0 249 l 1
 0 399 l 1
 100 399 l 1
 100 499 l 1
 150 499 l 1
 150 399 l 1
 200 399 l 1
150 249 m 1
 150 199 l 1
 200 199 l 1
 200 249 l 1
 150 249 l 1
250 249 m 1
 250 199 l 1
 300 199 l 1
 300 249 l 1
 250 249 l 1
50 349 m 1
 50 299 l 1
 100 299 l 1
 100 349 l 1
 50 349 l 1
150 349 m 1
 150 299 l 1
 200 299 l 1
 200 349 l 1
 150 349 l 1
EndSplineSet
Validated: 1
EndChar

StartChar: percent
Encoding: 37 37 6
Width: 300
Flags: W
HStem: 0 100<149 249> 200 50<99 149> 350 100<0 99>
VStem: 0 99<350 450> 49 50<0 200> 149 100<0 100> 149 50<250 450>
CounterMasks: 1 e0
LayerCount: 2
Fore
SplineSet
149 250 m 1xea
 149 450 l 1
 199 450 l 1
 199 200 l 1
 99 200 l 1
 99 0 l 1
 49 0 l 1
 49 250 l 1
 149 250 l 1xea
149 100 m 1xe4
 249 100 l 1
 249 0 l 1xe4
 199 0 l 1xe2
 149 0 l 1
 149 100 l 1xe4
49 450 m 1xe8
 99 450 l 1
 99 350 l 1xf0
 49 350 l 1xe8
 0 350 l 1
 0 450 l 1xf0
 50 450 l 1
 49 450 l 1xe8
EndSplineSet
EndChar

StartChar: ampersand
Encoding: 38 38 7
Width: 400
Flags: W
HStem: -1 21G<200 250> 99 50<50 200 250 300> 199 50<250 300> 299 50<50 200> 399 50<50 350>
VStem: 0 50<149 299 349 399> 200 50<-1 99 149 199> 300 50<149 199>
LayerCount: 2
Fore
SplineSet
0 424 m 1
 0 449 l 1
 350 449 l 1
 350 399 l 1
 50 399 l 1
 50 349 l 1
 200 349 l 1
 200 299 l 1
 50 299 l 1
 50 149 l 1
 200 149 l 1
 200 249 l 1
 250 249 l 1
 300 249 l 1
 350 249 l 1
 350 149 l 1
 350 99 l 1
 250 99 l 1
 250 -1 l 1
 200 -1 l 1
 200 99 l 1
 0 99 l 1
 0 424 l 1
300 199 m 1
 250 199 l 1
 250 149 l 1
 300 149 l 1
 300 199 l 1
EndSplineSet
Validated: 1
EndChar

StartChar: quotesingle
Encoding: 39 39 8
Width: 100
Flags: W
HStem: 500 100<0 50>
VStem: 0 50<500 600>
LayerCount: 2
Fore
SplineSet
0 500 m 1
 0 600 l 1
 50 600 l 1
 50 500 l 1
 0 500 l 1
EndSplineSet
Validated: 1
EndChar

StartChar: parenleft
Encoding: 40 40 9
Width: 300
Flags: W
HStem: 0 50<150 250> 100 50<50 100> 300 50<50 100> 400 50<150 250>
VStem: 0 50<150 300> 100 150<0 50 400 450> 100 50<50 100 350 400>
LayerCount: 2
Fore
SplineSet
134 450 m 1xfc
 250 450 l 1
 250 400 l 1xfc
 150 400 l 1
 150 300 l 1
 50 300 l 1
 50 150 l 1
 150 150 l 1
 150 50 l 1xfa
 250 50 l 1
 250 0 l 1
 100 0 l 1xfc
 100 100 l 1
 38 100 l 1
 0 100 l 1
 0 350 l 1
 100 350 l 1xfa
 100 450 l 1
 134 450 l 1xfc
EndSplineSet
Validated: 1
EndChar

StartChar: parenright
Encoding: 41 41 10
Width: 300
Flags: W
HStem: 0 50<0 100> 100 50<150 200> 300 50<150 200> 400 50<0 100>
VStem: 0 150<0 50 400 450> 100 50<50 100 350 400> 200 50<150 300>
LayerCount: 2
Fore
SplineSet
116 450 m 1xfa
 150 450 l 1xfa
 150 350 l 1
 250 350 l 1
 250 100 l 1
 212 100 l 1
 150 100 l 1xf6
 150 0 l 1
 0 0 l 1
 0 50 l 1xfa
 100 50 l 1
 100 150 l 1
 200 150 l 1
 200 300 l 1
 100 300 l 1
 100 400 l 1xf6
 0 400 l 1
 0 450 l 1
 116 450 l 1xfa
EndSplineSet
Validated: 1
EndChar

StartChar: asterisk
Encoding: 42 42 11
Width: 300
Flags: W
HStem: 0 50<0 50 200 250> 50 50<50 100 150 200> 100 50<100 150> 150 50<50 100 150 200> 200 50<0 50 200 250>
VStem: 0 50<0 50 200 250> 50 50<50 100 150 200> 100 50<100 150> 150 50<50 100 150 200> 200 50<0 50 200 250>
LayerCount: 2
Fore
SplineSet
0 50 m 1x84
 50 50 l 1
 50 0 l 1
 0 0 l 1
 0 50 l 1x84
200 50 m 1x8080
 250 50 l 1
 250 0 l 1
 200 0 l 1x8040
 200 50 l 1x8080
150 100 m 1x41
 200 100 l 1x4080
 200 50 l 1x8080
 150 50 l 1x4080
 150 100 l 1x41
50 100 m 1x42
 100 100 l 1
 100 50 l 1x42
 50 50 l 1x84
 50 100 l 1x42
100 150 m 1x22
 150 150 l 1x21
 150 100 l 1x41
 100 100 l 1x42
 100 150 l 1x22
150 200 m 1x1080
 200 200 l 1
 200 150 l 1x1080
 150 150 l 1x21
 150 200 l 1x1080
50 200 m 1x14
 100 200 l 1x12
 100 150 l 1x22
 50 150 l 1x12
 50 200 l 1x14
0 250 m 1x0c
 50 250 l 1x0c
 50 200 l 1x14
 0 200 l 1
 0 250 l 1x0c
200 250 m 1x0840
 250 250 l 1
 250 200 l 1x0840
 200 200 l 1x1080
 200 250 l 1x0840
EndSplineSet
EndChar

StartChar: plus
Encoding: 43 43 12
Width: 300
Flags: W
HStem: 0 21G<100 150> 100 50<0 100 150 250> 230 20G<100 150>
VStem: 100 50<0 100 150 250>
LayerCount: 2
Fore
SplineSet
100 150 m 1
 100 250 l 1
 150 250 l 1
 150 150 l 1
 250 150 l 1
 250 100 l 1
 150 100 l 1
 150 0 l 1
 100 0 l 1
 100 100 l 1
 0 100 l 1
 0 150 l 1
 100 150 l 1
EndSplineSet
EndChar

StartChar: comma
Encoding: 44 44 13
Width: 200
Flags: W
HStem: -150 50<50 100> -50 100<50 100>
VStem: 50 100<-150 -100 -50 50> 100 50<-100 -50>
LayerCount: 2
Fore
SplineSet
50 50 m 1xe0
 150 50 l 1
 150 -150 l 1
 50 -150 l 1
 50 -100 l 1xe0
 100 -100 l 1
 100 -50 l 1xd0
 50 -50 l 1
 50 50 l 1xe0
EndSplineSet
EndChar

StartChar: hyphen
Encoding: 45 45 14
Width: 150
Flags: W
HStem: 200 50<0 100>
VStem: 0 100<200 250>
LayerCount: 2
Fore
SplineSet
0 250 m 1
 100 250 l 1
 100 200 l 1
 0 200 l 1
 0 250 l 1
EndSplineSet
Validated: 1
EndChar

StartChar: period
Encoding: 46 46 15
Width: 200
Flags: W
HStem: -50 100<50 150>
VStem: 50 100<-50 50>
LayerCount: 2
Fore
SplineSet
50 50 m 1
 69 50 l 1
 100 50 l 1
 150 50 l 1
 150 -50 l 1
 100 -50 l 1
 50 -50 l 1
 50 50 l 1
EndSplineSet
EndChar

StartChar: slash
Encoding: 47 47 16
Width: 500
Flags: W
HStem: 0 21G<0 50> 100 50<50 100> 200 50<150 200> 300 50<250 300> 400 50<350 450>
VStem: 0 50<0 100> 100 50<150 200> 200 50<250 300> 300 50<350 400>
LayerCount: 2
Fore
SplineSet
200 250 m 1
 200 350 l 1
 300 350 l 1
 300 450 l 1
 450 450 l 1
 450 400 l 1
 350 400 l 1
 350 300 l 1
 250 300 l 1
 250 200 l 1
 150 200 l 1
 150 100 l 1
 50 100 l 1
 50 0 l 1
 0 0 l 1
 0 150 l 1
 100 150 l 1
 100 250 l 1
 200 250 l 1
EndSplineSet
Validated: 1
EndChar

StartChar: zero
Encoding: 48 48 17
Width: 400
Flags: W
HStem: 0 50<50 300> 400 50<50 300>
VStem: 0 50<50 400> 300 50<50 400>
LayerCount: 2
Fore
SplineSet
350 0 m 1
 300 0 l 1
 50 0 l 1
 0 0 l 1
 0 450 l 1
 350 450 l 1
 350 0 l 1
50 400 m 1
 50 50 l 1
 300 50 l 1
 300 400 l 1
 50 400 l 1
EndSplineSet
EndChar

StartChar: one
Encoding: 49 49 18
Width: 400
Flags: W
HStem: 0 50<0 200 250 350> 400 50<0 200>
VStem: 200 50<50 400>
LayerCount: 2
Fore
SplineSet
0 450 m 1
 250 450 l 1
 250 50 l 1
 350 50 l 1
 350 0 l 1
 0 0 l 1
 0 50 l 1
 200 50 l 1
 200 400 l 1
 0 400 l 1
 0 450 l 1
EndSplineSet
EndChar

StartChar: two
Encoding: 50 50 19
Width: 400
Flags: W
HStem: 0 50<50 350> 200 50<50 300> 400 50<0 300>
VStem: 0 50<50 200> 300 50<250 400>
CounterMasks: 1 e0
LayerCount: 2
Fore
SplineSet
300 250 m 1
 300 400 l 1
 0 400 l 1
 0 450 l 1
 325 450 l 1
 350 450 l 1
 350 200 l 1
 50 200 l 1
 50 50 l 1
 350 50 l 1
 350 0 l 1
 0 0 l 1
 0 250 l 1
 300 250 l 1
EndSplineSet
Validated: 1
EndChar

StartChar: three
Encoding: 51 51 20
Width: 400
Flags: W
HStem: 0 50<0 300> 200 50<100 300> 400 50<0 300>
VStem: 300 50<50 200 250 400>
CounterMasks: 1 e0
LayerCount: 2
Fore
SplineSet
325 0 m 1
 0 0 l 1
 0 50 l 1
 300 50 l 1
 300 200 l 1
 100 200 l 1
 100 250 l 1
 300 250 l 1
 300 400 l 1
 0 400 l 1
 0 450 l 1
 338 450 l 1
 350 450 l 1
 350 0 l 1
 325 0 l 1
EndSplineSet
Validated: 1
EndChar

StartChar: four
Encoding: 52 52 21
Width: 400
Flags: W
HStem: 0 21G<200 250> 200 50<50 200 250 350> 430 20G<0 50 200 250>
VStem: 0 50<250 450> 200 50<0 200 250 450>
LayerCount: 2
Fore
SplineSet
0 225 m 1
 0 450 l 1
 50 450 l 1
 50 250 l 1
 200 250 l 1
 200 450 l 1
 250 450 l 1
 250 250 l 1
 350 250 l 1
 350 200 l 1
 250 200 l 1
 250 0 l 1
 200 0 l 1
 200 200 l 1
 0 200 l 1
 0 225 l 1
EndSplineSet
EndChar

StartChar: five
Encoding: 53 53 22
Width: 400
Flags: W
HStem: 0 50<0 200> 100 50<250 300> 200 50<50 300> 400 50<50 350>
VStem: 0 50<250 400> 200 50<50 100> 300 50<150 200>
LayerCount: 2
Fore
SplineSet
300 150 m 1
 300 200 l 1
 0 200 l 1
 0 450 l 1
 350 450 l 1
 350 400 l 1
 50 400 l 1
 50 250 l 1
 350 250 l 1
 350 100 l 1
 250 100 l 1
 250 0 l 1
 200 0 l 1
 0 0 l 1
 0 50 l 1
 200 50 l 1
 200 150 l 1
 300 150 l 1
EndSplineSet
Validated: 1
EndChar

StartChar: six
Encoding: 54 54 23
Width: 400
Flags: W
HStem: 0 50<50 300> 200 50<50 300> 430 20G<0 50>
VStem: 0 50<50 200 250 450> 300 50<50 200>
LayerCount: 2
Fore
SplineSet
0 35 m 1
 0 450 l 1
 50 450 l 1
 50 250 l 1
 300 250 l 1
 350 250 l 1
 350 0 l 1
 325 0 l 1
 0 0 l 1
 0 35 l 1
50 200 m 1
 50 50 l 1
 300 50 l 1
 300 200 l 1
 50 200 l 1
EndSplineSet
Validated: 1
EndChar

StartChar: seven
Encoding: 55 55 24
Width: 400
Flags: W
HStem: 0 21G<200 250> 200 50<100 200 250 350> 400 50<0 200>
VStem: 200 50<0 200 250 400>
LayerCount: 2
Fore
SplineSet
250 450 m 1
 250 250 l 1
 350 250 l 1
 350 200 l 1
 250 200 l 1
 250 0 l 1
 200 0 l 1
 200 200 l 1
 100 200 l 1
 100 250 l 1
 200 250 l 1
 200 400 l 1
 0 400 l 1
 0 450 l 1
 250 450 l 1
EndSplineSet
Validated: 1
EndChar

StartChar: eight
Encoding: 56 56 25
Width: 400
Flags: W
HStem: 0 50<50 300> 200 50<50 300> 400 50<50 350>
VStem: 0 50<50 200 250 400> 300 50<50 200 250 400>
CounterMasks: 1 e0
LayerCount: 2
Fore
SplineSet
0 400 m 1
 0 450 l 1
 350 450 l 1
 350 400 l 1
 50 400 l 1
 50 250 l 1
 300 250 l 1
 300 400 l 1
 350 400 l 1
 350 0 l 1
 300 0 l 1
 0 0 l 1
 0 50 l 1
 0 200 l 1
 0 250 l 1
 0 400 l 1
50 200 m 1
 50 50 l 1
 300 50 l 1
 300 200 l 1
 50 200 l 1
EndSplineSet
Validated: 5
EndChar

StartChar: nine
Encoding: 57 57 26
Width: 400
Flags: W
HStem: 0 21G<300 350> 200 50<50 300> 400 50<50 300>
VStem: 0 50<250 400> 300 50<0 200 250 400>
LayerCount: 2
Fore
SplineSet
350 413 m 1
 350 0 l 1
 300 0 l 1
 300 200 l 1
 0 200 l 1
 0 250 l 1
 0 400 l 1
 0 450 l 1
 350 450 l 1
 350 413 l 1
50 400 m 1
 50 250 l 1
 300 250 l 1
 300 400 l 1
 50 400 l 1
EndSplineSet
Validated: 1
EndChar

StartChar: colon
Encoding: 58 58 27
Width: 200
Flags: W
HStem: 50 100<50 150> 250 100<50 150>
VStem: 50 100<50 150 250 350>
LayerCount: 2
Fore
SplineSet
50 150 m 1
 150 150 l 1
 150 50 l 1
 50 50 l 1
 50 150 l 1
50 350 m 1
 150 350 l 1
 150 250 l 1
 50 250 l 1
 50 350 l 1
EndSplineSet
EndChar

StartChar: semicolon
Encoding: 59 59 28
Width: 200
Flags: W
HStem: -50 50<50 100> 50 100<50 100> 250 100<50 150>
VStem: 50 100<-50 0 50 150 250 350> 100 50<0 50>
LayerCount: 2
Fore
SplineSet
50 150 m 1xf0
 150 150 l 1
 150 -50 l 1
 50 -50 l 1
 50 0 l 1xf0
 100 0 l 1
 100 50 l 1xe8
 50 50 l 1
 50 150 l 1xf0
50 350 m 1
 150 350 l 1
 150 250 l 1
 50 250 l 1
 50 350 l 1
EndSplineSet
EndChar

StartChar: less
Encoding: 60 60 29
Width: 200
Flags: W
HStem: 300 50<0 100> 430 20G<100 150>
VStem: 100 50<200 300 350 450>
LayerCount: 2
Fore
SplineSet
100 350 m 1
 100 450 l 1
 150 450 l 1
 150 200 l 1
 100 200 l 1
 100 300 l 1
 0 300 l 1
 0 350 l 1
 100 350 l 1
EndSplineSet
Validated: 1
EndChar

StartChar: equal
Encoding: 61 61 30
Width: 350
Flags: W
HStem: 200 50<0 300> 300 50<0 300>
VStem: 0 300<200 250 300 350>
LayerCount: 2
Fore
SplineSet
300 200 m 1
 0 200 l 1
 0 250 l 1
 300 250 l 1
 300 200 l 1
300 300 m 1
 0 300 l 1
 0 350 l 1
 300 350 l 1
 300 300 l 1
EndSplineSet
Validated: 1
EndChar

StartChar: greater
Encoding: 62 62 31
Width: 200
Flags: W
HStem: 300 50<50 150> 430 20G<0 50>
VStem: 0 50<200 300 350 450>
LayerCount: 2
Fore
SplineSet
50 350 m 1
 150 350 l 1
 150 300 l 1
 50 300 l 1
 50 200 l 1
 0 200 l 1
 0 450 l 1
 50 450 l 1
 50 350 l 1
EndSplineSet
Validated: 1
EndChar

StartChar: question
Encoding: 63 63 32
Width: 200
Flags: W
HStem: 0 100<0 50> 300 50<50 100> 500 50<0 100>
VStem: 0 50<0 100 200 300> 100 50<350 500>
LayerCount: 2
Fore
SplineSet
0 100 m 1
 50 100 l 1
 50 0 l 1
 0 0 l 1
 0 100 l 1
100 550 m 1
 150 550 l 1
 150 300 l 1
 50 300 l 1
 50 200 l 1
 0 200 l 1
 0 350 l 1
 100 350 l 1
 100 500 l 1
 0 500 l 1
 0 550 l 1
 100 550 l 1
EndSplineSet
EndChar

StartChar: at
Encoding: 64 64 33
Width: 400
Flags: W
HStem: 50 50<50 350.5> 150 50<150 200 250 300> 250 50<150 200> 350 50<50 300>
VStem: 0 50<100 350> 100 50<200 250> 200 50<200 250> 300 50<200 350>
LayerCount: 2
Fore
SplineSet
50 100 m 1
 350.5 100 l 1
 350.5 50 l 1
 37.5 50 l 1
 0 50 l 1
 0 400 l 1
 300 400 l 1
 350 400 l 1
 350 150 l 1
 200 150 l 1
 100 150 l 1
 100 300 l 1
 150 300 l 1
 200 300 l 1
 250 300 l 1
 250 200 l 1
 300 200 l 1
 300 350 l 1
 50 350 l 1
 50 100 l 1
150 250 m 1
 150 200 l 1
 200 200 l 1
 200 250 l 1
 150 250 l 1
EndSplineSet
Validated: 1
EndChar

StartChar: D
Encoding: 68 68 34
Width: 350
Flags: W
HStem: 0 50<100 150> 100 50<200 250> 300 50<200 250> 400 50<100 150>
VStem: 50 50<50 400> 150 50<50 100 350 400> 250 50<150 300>
CounterMasks: 1 0e
LayerCount: 2
Fore
SplineSet
200 350 m 1
 264 350 l 1
 300 350 l 1
 300 100 l 1
 200 100 l 1
 200 0 l 1
 84 0 l 1
 50 0 l 1
 50 450 l 1
 200 450 l 1
 200 350 l 1
150 300 m 1
 150 400 l 1
 100 400 l 1
 100 50 l 1
 150 50 l 1
 150 150 l 1
 250 150 l 1
 250 300 l 1
 150 300 l 1
EndSplineSet
EndChar

StartChar: E
Encoding: 69 69 35
Width: 350
Flags: W
HStem: 0 50<100 300> 200 50<100 200> 400 50<100 300>
VStem: 50 50<50 200 250 400>
CounterMasks: 1 e0
LayerCount: 2
Fore
SplineSet
83 450 m 1
 300 450 l 1
 300 400 l 1
 100 400 l 1
 100 250 l 1
 200 250 l 1
 200 200 l 1
 100 200 l 1
 100 50 l 1
 300 50 l 1
 300 0 l 1
 83 0 l 1
 50 0 l 1
 50 450 l 1
 83 450 l 1
EndSplineSet
EndChar

StartChar: F
Encoding: 70 70 36
Width: 350
Flags: W
HStem: 0 21G<50 100> 200 50<100 200> 400 50<100 300>
VStem: 50 50<0 200 250 400>
LayerCount: 2
Fore
SplineSet
83 450 m 1
 300 450 l 1
 300 400 l 1
 100 400 l 1
 100 250 l 1
 200 250 l 1
 200 200 l 1
 100 200 l 1
 100 0 l 1
 50 0 l 1
 50 450 l 1
 83 450 l 1
EndSplineSet
EndChar

StartChar: G
Encoding: 71 71 37
Width: 400
Flags: W
HStem: 0 50<100 200> 150 50<150 200 250 300> 400 50<100 200>
VStem: 50 50<50 400> 200 50<50 150 300 400> 300 50<0 150>
LayerCount: 2
Fore
SplineSet
200 400 m 1
 100 400 l 1
 100 50 l 1
 200 50 l 1
 200 150 l 1
 150 150 l 1
 150 200 l 1
 350 200 l 1
 350 0 l 1
 300 0 l 1
 300 150 l 1
 250 150 l 1
 250 0 l 1
 50 0 l 1
 50 450 l 1
 200 450 l 1
 250 450 l 1
 250 300 l 1
 200 300 l 1
 200 400 l 1
EndSplineSet
EndChar

StartChar: H
Encoding: 72 72 38
Width: 350
Flags: W
HStem: 0 21G<50 100 250 300> 199 50<100 250> 430 20G<50 100 250 300>
VStem: 50 50<0 199 249 450> 250 50<0 199 249 450>
LayerCount: 2
Fore
SplineSet
250 249 m 1
 250 450 l 1
 300 450 l 1
 300 0 l 1
 250 0 l 1
 250 199 l 1
 100 199 l 1
 100 0 l 1
 50 0 l 1
 50 450 l 1
 100 450 l 1
 100 249 l 1
 250 249 l 1
EndSplineSet
EndChar

StartChar: I
Encoding: 73 73 39
Width: 300
Flags: W
HStem: 0 50<0 100 150 250> 400 50<0 100 150 250>
VStem: 100 50<50 400>
LayerCount: 2
Fore
SplineSet
100 50 m 1
 100 400 l 1
 0 400 l 1
 0 450 l 1
 250 450 l 1
 250 400 l 1
 150 400 l 1
 150 50 l 1
 250 50 l 1
 250 0 l 1
 0 0 l 1
 0 50 l 1
 100 50 l 1
EndSplineSet
EndChar

StartChar: J
Encoding: 74 74 40
Width: 350
Flags: W
HStem: 0 50<100 150> 400 50<50 150 200 300>
VStem: 50 50<50 150> 150 50<50 400>
LayerCount: 2
Fore
SplineSet
150 400 m 1
 50 400 l 1
 50 450 l 1
 300 450 l 1
 300 400 l 1
 200 400 l 1
 200 0 l 1
 150 0 l 1
 50 0 l 1
 50 150 l 1
 100 150 l 1
 100 50 l 1
 150 50 l 1
 150 400 l 1
EndSplineSet
EndChar

StartChar: K
Encoding: 75 75 41
Width: 350
Flags: W
HStem: 0 21G<50 100 250 300> 100 50<200 250> 200 50<100 150> 300 50<200 250> 430 20G<50 100 250 300>
VStem: 50 50<0 200 250 450> 150 50<150 200 250 300> 250 50<0 100 350 450>
CounterMasks: 1 07
LayerCount: 2
Fore
SplineSet
100 200 m 1
 100 0 l 1
 50 0 l 1
 50 450 l 1
 100 450 l 1
 100 250 l 1
 150 250 l 1
 150 350 l 1
 250 350 l 1
 250 450 l 1
 300 450 l 1
 300 300 l 1
 200 300 l 1
 200 150 l 1
 300 150 l 1
 300 0 l 1
 250 0 l 1
 250 100 l 1
 150 100 l 1
 150 200 l 1
 100 200 l 1
EndSplineSet
EndChar

StartChar: L
Encoding: 76 76 42
Width: 350
Flags: W
HStem: 0 50<100 300> 430 20G<50 100>
VStem: 50 50<50 450>
LayerCount: 2
Fore
SplineSet
50 50 m 1
 50 450 l 1
 100 450 l 1
 100 50 l 1
 300 50 l 1
 300 0 l 1
 50 0 l 1
 50 50 l 1
EndSplineSet
EndChar

StartChar: M
Encoding: 77 77 43
Width: 350
Flags: W
HStem: 0 21G<50 100 250 300> 400 50<100 150 200 250>
VStem: 50 50<0 400> 150 50<200 400> 250 50<0 400>
CounterMasks: 1 38
LayerCount: 2
Fore
SplineSet
300 450 m 1
 300 0 l 1
 250 0 l 1
 250 400 l 1
 200 400 l 1
 200 200 l 1
 150 200 l 1
 150 400 l 1
 100 400 l 1
 100 0 l 1
 50 0 l 1
 50 450 l 1
 300 450 l 1
EndSplineSet
EndChar

StartChar: N
Encoding: 78 78 44
Width: 350
Flags: W
HStem: 0 50<200 250> 400 50<100 150>
VStem: 50 50<0 400> 150 50<50 400> 250 50<50 450>
CounterMasks: 1 38
LayerCount: 2
Fore
SplineSet
200 50 m 1
 250 50 l 1
 250 450 l 1
 300 450 l 1
 300 0 l 1
 150 0 l 1
 150 400 l 1
 100 400 l 1
 100 0 l 1
 50 0 l 1
 50 450 l 1
 150 450 l 1
 200 450 l 1
 200 50 l 1
EndSplineSet
EndChar

StartChar: n
Encoding: 110 110 45
Width: 200
Flags: W
HStem: 0 21G<25 75 125 175> 200 50<75 125>
VStem: 25 50<0 200> 125 50<0 200>
LayerCount: 2
Fore
SplineSet
175 250 m 1
 175 0 l 1
 125 0 l 1
 125 200 l 1
 75 200 l 1
 75 0 l 1
 25 0 l 1
 25 250 l 1
 175 250 l 1
EndSplineSet
EndChar

StartChar: o
Encoding: 111 111 46
Width: 200
Flags: W
HStem: 0 50<75 125> 200 50<75 125>
VStem: 25 50<50 200> 125 50<50 200>
LayerCount: 2
Fore
SplineSet
125 250 m 1
 175 250 l 1
 175 0 l 1
 25 0 l 1
 25 250 l 1
 75 250 l 1
 125 250 l 1
125 200 m 1
 75 200 l 1
 75 50 l 1
 125 50 l 1
 125 200 l 1
EndSplineSet
EndChar

StartChar: t
Encoding: 116 116 47
Width: 200
Flags: W
HStem: 0 50<75 175> 200 50<75 175> 330 20G<25 75>
VStem: 25 150<0 50 200 250> 25 50<50 200 250 350>
LayerCount: 2
Fore
SplineSet
50 0 m 1xf0
 25 0 l 1xf0
 25 350 l 1
 75 350 l 1
 75 250 l 1xe8
 175 250 l 1
 175 200 l 1xf0
 75 200 l 1
 75 50 l 1xe8
 175 50 l 1
 175 0 l 1
 50 0 l 1xf0
EndSplineSet
EndChar

StartChar: d
Encoding: 100 100 48
Width: 200
Flags: W
HStem: 0 50<75 125> 100 50<75 125> 230 20G<125 175>
VStem: 25 50<50 100> 125 50<50 100 150 250>
LayerCount: 2
Fore
SplineSet
175 250 m 1
 175 0 l 1
 75 0 l 1
 25 0 l 1
 25 150 l 1
 75 150 l 1
 125 150 l 1
 125 250 l 1
 175 250 l 1
75 100 m 1
 75 50 l 1
 125 50 l 1
 125 100 l 1
 75 100 l 1
EndSplineSet
EndChar

StartChar: e
Encoding: 101 101 49
Width: 200
Flags: W
HStem: 0 50<75 175> 100 50<75 125> 200 50<75 125>
VStem: 25 50<50 100 150 200> 125 50<150 200>
CounterMasks: 1 e0
LayerCount: 2
Fore
SplineSet
125 250 m 1
 175 250 l 1
 175 100 l 1
 75 100 l 1
 75 50 l 1
 175 50 l 1
 175 0 l 1
 25 0 l 1
 25 250 l 1
 75 250 l 1
 125 250 l 1
125 200 m 1
 75 200 l 1
 75 150 l 1
 125 150 l 1
 125 200 l 1
EndSplineSet
EndChar

StartChar: p
Encoding: 112 112 50
Width: 200
Flags: W
HStem: -200 21G<25 75> 0 50<75 125> 200 50<75 125>
VStem: 25 50<-200 0 50 200> 125 50<50 200>
LayerCount: 2
Fore
SplineSet
125 250 m 1
 175 250 l 1
 175 0 l 1
 75 0 l 1
 75 -200 l 1
 25 -200 l 1
 25 250 l 1
 75 250 l 1
 125 250 l 1
125 200 m 1
 75 200 l 1
 75 50 l 1
 125 50 l 1
 125 200 l 1
EndSplineSet
EndChar

StartChar: r
Encoding: 114 114 51
Width: 200
Flags: W
HStem: 0 21G<25 75> 200 50<75 175>
VStem: 25 50<0 200>
LayerCount: 2
Fore
SplineSet
75 200 m 1
 75 0 l 1
 25 0 l 1
 25 250 l 1
 75 250 l 1
 175 250 l 1
 175 200 l 1
 75 200 l 1
EndSplineSet
EndChar

StartChar: i
Encoding: 105 105 52
Width: 100
Flags: W
HStem: 0 21G<25 75> 250 100<25 75>
VStem: 25 50<0 200 250 350>
LayerCount: 2
Fore
SplineSet
25 200 m 1
 75 200 l 1
 75 0 l 1
 25 0 l 1
 25 200 l 1
25 350 m 1
 75 350 l 1
 75 250 l 1
 25 250 l 1
 25 350 l 1
EndSplineSet
EndChar

StartChar: s
Encoding: 115 115 53
Width: 200
Flags: W
HStem: 0 50<25 125> 100 50<75 125> 200 50<75 175>
VStem: 25 50<150 200> 125 50<50 100>
CounterMasks: 1 e0
LayerCount: 2
Fore
SplineSet
25 250 m 1
 175 250 l 1
 175 200 l 1
 75 200 l 1
 75 150 l 1
 175 150 l 1
 175 0 l 1
 137 0 l 1
 25 0 l 1
 25 50 l 1
 125 50 l 1
 125 100 l 1
 25 100 l 1
 25 250 l 1
EndSplineSet
EndChar

StartChar: l
Encoding: 108 108 54
Width: 150
Flags: W
HStem: 0 50<75 125> 330 20G<25 75>
VStem: 25 100<0 50> 25 50<50 350>
LayerCount: 2
Fore
SplineSet
25 31 m 1xe0
 25 350 l 1
 75 350 l 1
 75 50 l 1xd0
 125 50 l 1
 125 0 l 1
 25 0 l 1
 25 31 l 1xe0
EndSplineSet
EndChar

StartChar: a
Encoding: 97 97 55
Width: 200
Flags: W
HStem: 0 50<75 125> 100 50<75 125> 200 50<25 125>
VStem: 25 50<50 100> 125 50<50 100 150 200>
CounterMasks: 1 e0
LayerCount: 2
Fore
SplineSet
175 0 m 1
 125 0 l 1
 25 0 l 1
 25 150 l 1
 75 150 l 1
 125 150 l 1
 125 200 l 1
 25 200 l 1
 25 250 l 1
 175 250 l 1
 175 0 l 1
125 100 m 1
 75 100 l 1
 75 50 l 1
 125 50 l 1
 125 100 l 1
EndSplineSet
EndChar

StartChar: b
Encoding: 98 98 56
Width: 200
Flags: W
HStem: 0 50<75 125> 100 50<75 125> 230 20G<25 75>
VStem: 25 50<50 100 150 250> 125 50<50 100>
LayerCount: 2
Fore
SplineSet
25 250 m 1
 75 250 l 1
 75 150 l 1
 125 150 l 1
 175 150 l 1
 175 0 l 1
 125 0 l 1
 25 0 l 1
 25 250 l 1
125 100 m 1
 75 100 l 1
 75 50 l 1
 125 50 l 1
 125 100 l 1
EndSplineSet
EndChar

StartChar: y
Encoding: 121 121 57
Width: 200
Flags: W
HStem: -200 50<75 125> 0 50<75 125> 230 20G<25 75 125 175>
VStem: 25 50<50 250> 75 100<-200 -150> 125 50<-150 0 50 250>
LayerCount: 2
Fore
SplineSet
25 0 m 1xf4
 25 250 l 1
 75 250 l 1
 75 50 l 1
 125 50 l 1
 125 250 l 1
 175 250 l 1xf4
 175 -200 l 1
 75 -200 l 1
 75 -150 l 1xe8
 125 -150 l 1
 125 0 l 1
 25 0 l 1xf4
EndSplineSet
EndChar

StartChar: B
Encoding: 66 66 58
Width: 350
Flags: W
HStem: 0 50<100 250> 200 50<150 250> 400 50<100 250>
VStem: 50 50<50 400> 250 50<50 200 250 400>
CounterMasks: 1 e0
LayerCount: 2
Fore
SplineSet
250 450 m 1
 300 450 l 1
 300 0 l 1
 75 0 l 1
 50 0 l 1
 50 450 l 1
 75 450 l 1
 250 450 l 1
250 250 m 1
 250 400 l 1
 100 400 l 1
 100 50 l 1
 250 50 l 1
 250 200 l 1
 150 200 l 1
 150 250 l 1
 250 250 l 1
EndSplineSet
EndChar

StartChar: O
Encoding: 79 79 59
Width: 350
Flags: W
HStem: 0 50<100 250> 400 50<100 250>
VStem: 50 50<50 400> 250 50<50 400>
LayerCount: 2
Fore
SplineSet
50 25 m 1
 50 450 l 1
 100 450 l 1
 250 450 l 1
 300 450 l 1
 300 0 l 1
 50 0 l 1
 50 25 l 1
250 400 m 1
 100 400 l 1
 100 50 l 1
 250 50 l 1
 250 400 l 1
EndSplineSet
EndChar

StartChar: P
Encoding: 80 80 60
Width: 350
Flags: W
HStem: 0 21G<50 100> 200 50<100 250> 400 50<100 250>
VStem: 50 50<0 200 250 400> 250 50<250 400>
LayerCount: 2
Fore
SplineSet
300 450 m 1
 300 200 l 1
 100 200 l 1
 100 0 l 1
 50 0 l 1
 50 450 l 1
 86 450 l 1
 300 450 l 1
100 400 m 1
 100 250 l 1
 250 250 l 1
 250 400 l 1
 100 400 l 1
EndSplineSet
EndChar

StartChar: Q
Encoding: 81 81 61
Width: 350
Flags: W
HStem: 0 50<100 250> 100 50<200 250> 230 20G<150 200> 400 50<100 250>
VStem: 50 50<50 400> 150 50<150 250> 250 50<50 100 150 400>
CounterMasks: 1 0e
LayerCount: 2
Fore
SplineSet
50 450 m 1
 300 450 l 1
 300 0 l 1
 50 0 l 1
 50 450 l 1
250 150 m 1
 250 400 l 1
 100 400 l 1
 100 50 l 1
 250 50 l 1
 250 100 l 1
 150 100 l 1
 150 250 l 1
 200 250 l 1
 200 150 l 1
 250 150 l 1
EndSplineSet
EndChar

StartChar: R
Encoding: 82 82 62
Width: 349
Flags: W
HStem: 0 21G<50 100 250 300> 100 50.0195<200 250> 200 50<100 150 200 250> 400 50<100 250>
VStem: 50 50<0 200 250 400> 150 50<150.02 200> 250 50<0 100 250 400>
CounterMasks: 1 0e
LayerCount: 2
Fore
SplineSet
150 200 m 1
 100 200 l 1
 100 0 l 1
 50 0 l 1
 50 450 l 1
 100 450 l 1
 250 450 l 1
 300 450 l 1
 300 200 l 1
 275 200 l 1
 200 200 l 1
 200 150.01953125 l 1
 300 150 l 1
 300 0 l 1
 250 0 l 1
 250 100 l 1
 150 100 l 1
 150 200 l 1
100 400 m 1
 100 250 l 1
 250 250 l 1
 250 400 l 1
 100 400 l 1
EndSplineSet
EndChar

StartChar: S
Encoding: 83 83 63
Width: 350
Flags: W
HStem: 0 50<100 250> 200 50<100 250> 400 50<100 250>
VStem: 50 50<50 150 250 400> 250 50<50 200 300 400>
CounterMasks: 1 e0
LayerCount: 2
Fore
SplineSet
300 412 m 1
 300 300 l 1
 250 300 l 1
 250 400 l 1
 100 400 l 1
 100 250 l 1
 300 250 l 1
 300 200 l 1
 300 50 l 1
 300 0 l 1
 50 0 l 1
 50 25 l 1
 50 150 l 1
 100 150 l 1
 100 50 l 1
 250 50 l 1
 250 200 l 1
 50 200 l 1
 50 250 l 1
 50 400 l 1
 50 450 l 1
 300 450 l 1
 300 412 l 1
EndSplineSet
EndChar

StartChar: T
Encoding: 84 84 64
Width: 350
Flags: W
HStem: 0 21G<150 200> 400 50<50 150 200 300>
VStem: 150 50<0 400>
LayerCount: 2
Fore
SplineSet
150 400 m 1
 50 400 l 1
 50 450 l 1
 300 450 l 1
 300 400 l 1
 200 400 l 1
 200 0 l 1
 150 0 l 1
 150 400 l 1
EndSplineSet
EndChar

StartChar: U
Encoding: 85 85 65
Width: 350
Flags: W
HStem: 0 50<100 250> 430 20G<50 100 250 300>
VStem: 50 50<50 450> 250 50<50 450>
LayerCount: 2
Fore
SplineSet
250 50 m 1
 250 450 l 1
 300 450 l 1
 300 0 l 1
 50 0 l 1
 50 25 l 1
 50 450 l 1
 100 450 l 1
 100 50 l 1
 250 50 l 1
EndSplineSet
EndChar

StartChar: V
Encoding: 86 86 66
Width: 350
Flags: W
HStem: 0 50<150 200> 430 20G<50 100 250 300>
VStem: 50 50<250 450> 100 50<50 200> 200 50<50 200> 250 50<250 450>
LayerCount: 2
Fore
SplineSet
250 0 m 1xc4
 100 0 l 1
 100 200 l 1xd4
 50 200 l 1
 50 450 l 1
 100 450 l 1
 100 250 l 1xe0
 150 250 l 1
 150 50 l 1
 200 50 l 1
 200 250 l 1xd8
 250 250 l 1
 250 450 l 1
 300 450 l 1
 300 200 l 1xc4
 250 200 l 1xc8
 250 0 l 1xc4
EndSplineSet
EndChar

StartChar: W
Encoding: 87 87 67
Width: 350
Flags: W
HStem: 0 50<100 150 200 250> 230 20G<150 200> 430 20G<50 100 250 300>
VStem: 50 50<50 450> 150 50<50 250> 250 50<50 450>
CounterMasks: 1 1c
LayerCount: 2
Fore
SplineSet
50 0 m 1
 50 450 l 1
 100 450 l 1
 100 50 l 1
 150 50 l 1
 150 250 l 1
 200 250 l 1
 200 50 l 1
 250 50 l 1
 250 450 l 1
 300 450 l 1
 300 0 l 1
 50 0 l 1
EndSplineSet
EndChar

StartChar: X
Encoding: 88 88 68
Width: 350
Flags: W
HStem: 0 150<50 100 250 300> 100 50<100 150 200 250> 300 150<50 100 250 300> 300 50<100 150 200 250>
VStem: 50 50<0 100 350 450> 150 50<150 300> 250 50<0 100 350 450>
CounterMasks: 1 0e
LayerCount: 2
Fore
SplineSet
250 350 m 1x1e
 250 450 l 1
 300 450 l 1
 300 300 l 1x2e
 200 300 l 1
 200 150 l 1x5e
 300 150 l 1
 300 0 l 1
 250 0 l 1x8e
 250 100 l 1
 100 100 l 1x4e
 100 0 l 1
 50 0 l 1
 50 150 l 1x8e
 150 150 l 1
 150 300 l 1x5e
 84 300 l 1
 50 300 l 1
 50 450 l 1
 100 450 l 1x2e
 100 350 l 1
 150 350 l 1
 250 350 l 1x1e
EndSplineSet
EndChar

StartChar: Y
Encoding: 89 89 69
Width: 350
Flags: W
HStem: 0 21G<150 200> 200 50<100 150 200 250> 430 20G<50 100 250 300>
VStem: 50 50<250 450> 150 50<0 200> 250 50<250 450>
CounterMasks: 1 1c
LayerCount: 2
Fore
SplineSet
250 250 m 1
 250 450 l 1
 300 450 l 1
 300 200 l 1
 200 200 l 1
 200 0 l 1
 150 0 l 1
 150 200 l 1
 50 200 l 1
 50 450 l 1
 100 450 l 1
 100 250 l 1
 250 250 l 1
EndSplineSet
EndChar

StartChar: Z
Encoding: 90 90 70
Width: 350
Flags: W
HStem: 0 50<100 300> 150 50<100 150> 200 50<150 200> 250 50<200 250> 400 50<50 250>
VStem: 50 50<50 150> 100 50<150 200> 150 50<200 250> 200 50<250 300> 250 50<300 400>
LayerCount: 2
Fore
SplineSet
50 0 m 1xcc40
 50 150 l 1
 100 150 l 1
 100 50 l 1
 300 50 l 1
 300 0 l 1
 50 0 l 1xcc40
100 200 m 1xca
 150 200 l 1
 150 150 l 1xca
 100 150 l 1xcc
 100 200 l 1xca
200 250 m 1xa9
 200 200 l 1xa9
 150 200 l 1xca
 150 250 l 1
 200 250 l 1xa9
200 300 m 1x9880
 250 300 l 1
 250 250 l 1x9880
 200 250 l 1xa9
 200 300 l 1x9880
264 450 m 1
 300 450 l 1
 300 300 l 1x9c40
 250 300 l 1x9880
 250 400 l 1
 50 400 l 1
 50 450 l 1x9c40
 264 450 l 1
EndSplineSet
EndChar

StartChar: bracketleft
Encoding: 91 91 71
Width: 200
Flags: W
HStem: 0 50<50 150> 400 50<50 150>
VStem: 0 150<0 50 400 450> 0 50<50 400>
LayerCount: 2
Fore
SplineSet
39 450 m 1xe0
 150 450 l 1
 150 400 l 1xe0
 50 400 l 1
 50 50 l 1xd0
 150 50 l 1
 150 0 l 1
 39 0 l 1
 0 0 l 1
 0 450 l 1
 39 450 l 1xe0
EndSplineSet
Validated: 1
EndChar

StartChar: backslash
Encoding: 92 92 72
Width: 300
Flags: W
HStem: 0 50<150 250> 400 50<0 100>
VStem: 100 50<50 400>
LayerCount: 2
Fore
SplineSet
112 450 m 1
 150 450 l 1
 150 50 l 1
 250 50 l 1
 250 0 l 1
 133 0 l 1
 100 0 l 1
 100 400 l 1
 0 400 l 1
 0 450 l 1
 112 450 l 1
EndSplineSet
Validated: 1
EndChar

StartChar: bracketright
Encoding: 93 93 73
Width: 200
Flags: W
HStem: 0 50<0 100> 400 50<0 100>
VStem: 0 150<0 50 400 450> 100 50<50 400>
LayerCount: 2
Fore
SplineSet
111 450 m 1xe0
 150 450 l 1
 150 0 l 1
 111 0 l 1
 0 0 l 1
 0 50 l 1xe0
 100 50 l 1
 100 400 l 1xd0
 0 400 l 1
 0 450 l 1
 111 450 l 1xe0
EndSplineSet
Validated: 1
EndChar

StartChar: asciicircum
Encoding: 94 94 74
Width: 300
Flags: W
HStem: 400 50<0 100 150 250>
VStem: 100 50<450 550>
LayerCount: 2
Fore
SplineSet
100 450 m 1
 100 550 l 1
 150 550 l 1
 150 450 l 1
 250 450 l 1
 250 400 l 1
 0 400 l 1
 0 450 l 1
 100 450 l 1
EndSplineSet
Validated: 1
EndChar

StartChar: underscore
Encoding: 95 95 75
Width: 400
Flags: W
HStem: -50 50<0 350>
LayerCount: 2
Fore
SplineSet
0 0 m 1
 350 0 l 1
 350 -50 l 1
 0 -50 l 1
 0 0 l 1
EndSplineSet
EndChar

StartChar: grave
Encoding: 96 96 76
Width: 200
Flags: W
HStem: 400 50<50 150>
VStem: 0 50<450 550>
LayerCount: 2
Fore
SplineSet
0 550 m 1
 50 550 l 1
 50 450 l 1
 150 450 l 1
 150 400 l 1
 0 400 l 1
 0 550 l 1
EndSplineSet
Validated: 1
EndChar

StartChar: c
Encoding: 99 99 77
Width: 200
Flags: W
HStem: 0 50<75 175> 200 50<75 175>
VStem: 25 150<0 50 200 250> 25 50<50 200>
LayerCount: 2
Fore
SplineSet
25 250 m 1xe0
 75 250 l 1xd0
 175 250 l 1
 175 200 l 1xe0
 75 200 l 1
 75 50 l 1xd0
 175 50 l 1
 175 0 l 1
 25 0 l 1
 25 250 l 1xe0
EndSplineSet
EndChar

StartChar: f
Encoding: 102 102 78
Width: 200
Flags: W
HStem: -200 50<25 75> 0 50<25 75 125 175> 200 50<125 175>
VStem: 25 100<-200 -150> 75 100<200 250> 75 50<-150 0 50 200>
CounterMasks: 1 e0
LayerCount: 2
Fore
SplineSet
75 250 m 1xe8
 175 250 l 1
 175 200 l 1xe8
 125 200 l 1
 125 50 l 1xe4
 175 50 l 1
 175 0 l 1xe8
 125 0 l 1xe4
 125 -200 l 1
 25 -200 l 1
 25 -150 l 1xf0
 75 -150 l 1
 75 0 l 1xe4
 25 0 l 1
 25 50 l 1xf0
 75 50 l 1xe4
 75 250 l 1xe8
EndSplineSet
EndChar

StartChar: g
Encoding: 103 103 79
Width: 200
Flags: W
HStem: -200 100<25 75> -200 50<75 125> 0 50<75 125> 200 50<75 125>
VStem: 25 50<-150 -100 50 200> 125 50<-150 0 50 200>
LayerCount: 2
Fore
SplineSet
25 250 m 1x7c
 75 250 l 1
 125 250 l 1
 175 250 l 1
 175 -200 l 1x7c
 25 -200 l 1
 25 -100 l 1
 75 -100 l 1xbc
 75 -150 l 1
 125 -150 l 1
 125 0 l 1
 25 0 l 1
 25 250 l 1x7c
75 200 m 1
 75 50 l 1
 125 50 l 1
 125 200 l 1
 75 200 l 1
EndSplineSet
EndChar

StartChar: h
Encoding: 104 104 80
Width: 200
Flags: W
HStem: 0 21G<25 75 125 175> 100 50<75 125> 330 20G<25 75>
VStem: 25 50<0 100 150 350> 125 50<0 100>
LayerCount: 2
Fore
SplineSet
75 100 m 1
 75 0 l 1
 25 0 l 1
 25 350 l 1
 75 350 l 1
 75 150 l 1
 125 150 l 1
 175 150 l 1
 175 0 l 1
 125 0 l 1
 125 100 l 1
 75 100 l 1
EndSplineSet
EndChar

StartChar: j
Encoding: 106 106 81
Width: 200
Flags: W
HStem: 0 50<25 125> 250 100<125 175>
VStem: 125 50<50 200 250 350>
LayerCount: 2
Fore
SplineSet
125 50 m 1
 125 200 l 1
 175 200 l 1
 175 0 l 1
 25 0 l 1
 25 50 l 1
 125 50 l 1
125 350 m 1
 175 350 l 1
 175 250 l 1
 125 250 l 1
 125 350 l 1
EndSplineSet
EndChar

StartChar: k
Encoding: 107 107 82
Width: 200
Flags: W
HStem: 0 50<125 175> 200 50<125 175> 330 20G<25 75>
VStem: 25 100<50 100 150 200> 25 50<0 50 100 150 200 350> 125 50<0 50 200 250>
LayerCount: 2
Fore
SplineSet
75 50 m 1xe8
 75 0 l 1
 25 0 l 1
 25 350 l 1
 75 350 l 1
 75 200 l 1xe8
 125 200 l 1
 125 150 l 1xf0
 75 150 l 1
 75 100 l 1xe8
 125 100 l 1
 125 50 l 1xf0
 75 50 l 1xe8
125 50 m 1xf0
 175 50 l 1
 175 0 l 1
 125 0 l 1xe4
 125 50 l 1xf0
125 250 m 1
 175 250 l 1
 175 200 l 1xe4
 125 200 l 1xf0
 125 250 l 1
EndSplineSet
EndChar

StartChar: m
Encoding: 109 109 83
Width: 300
Flags: W
HStem: 0 21G<25 75 225 275> 200 50<75 125 175 225>
VStem: 25 50<0 200> 125 50<100 200> 225 50<0 200>
CounterMasks: 1 38
LayerCount: 2
Fore
SplineSet
125 250 m 1
 175 250 l 1
 275 250 l 1
 275 0 l 1
 225 0 l 1
 225 200 l 1
 175 200 l 1
 175 100 l 1
 125 100 l 1
 125 200 l 1
 75 200 l 1
 75 0 l 1
 25 0 l 1
 25 225 l 1
 25 250 l 1
 125 250 l 1
EndSplineSet
EndChar

StartChar: q
Encoding: 113 113 84
Width: 250
Flags: W
HStem: -200 50<175 225> 0 50<75 125> 200 50<75 125>
VStem: 25 50<50 200> 125 100<-200 -150> 125 50<-150 0 50 200>
CounterMasks: 1 e0
LayerCount: 2
Fore
SplineSet
75 250 m 1xf4
 125 250 l 1
 175 250 l 1
 175 -150 l 1xf4
 225 -150 l 1
 225 -200 l 1
 125 -200 l 1xf8
 125 0 l 1
 25 0 l 1
 25 250 l 1
 75 250 l 1xf4
75 200 m 1
 75 50 l 1
 125 50 l 1
 125 200 l 1
 75 200 l 1
EndSplineSet
EndChar

StartChar: u
Encoding: 117 117 85
Width: 200
Flags: W
HStem: 0 50<75 125> 230 20G<25 75 125 175>
VStem: 25 50<50 250> 125 50<50 250>
LayerCount: 2
Fore
SplineSet
125 50 m 1
 125 250 l 1
 175 250 l 1
 175 37 l 1
 175 0 l 1
 25 0 l 1
 25 37 l 1
 25 250 l 1
 75 250 l 1
 75 50 l 1
 125 50 l 1
EndSplineSet
EndChar

StartChar: v
Encoding: 118 118 86
Width: 200
Flags: W
HStem: 0 50<75 125> 230 20G<25 75 125 175>
VStem: 25 50<50 250> 75 50<0 50> 125 50<50 250>
LayerCount: 2
Fore
SplineSet
125 50 m 1xd0
 125 250 l 1
 175 250 l 1
 175 50 l 1xc8
 125 50 l 1
 125 0 l 1
 75 0 l 1xd0
 75 50 l 1xe0
 125 50 l 1xd0
25 250 m 1xe0
 75 250 l 1
 75 50 l 1
 25 50 l 1
 25 250 l 1xe0
EndSplineSet
EndChar

StartChar: w
Encoding: 119 119 87
Width: 300
Flags: W
HStem: 0 50<75 125 175 225> 230 20G<25 75 225 275>
VStem: 25 50<50 250> 125 50<50 150> 225 50<50 250>
CounterMasks: 1 38
LayerCount: 2
Fore
SplineSet
125 0 m 1
 25 0 l 1
 25 25 l 1
 25 250 l 1
 75 250 l 1
 75 50 l 1
 125 50 l 1
 125 150 l 1
 175 150 l 1
 175 50 l 1
 225 50 l 1
 225 250 l 1
 275 250 l 1
 275 0 l 1
 175 0 l 1
 125 0 l 1
EndSplineSet
EndChar

StartChar: x
Encoding: 120 120 88
Width: 200
Flags: W
HStem: 0 100<25 75 125 175> 100 50<75 125> 150 100<25 75 125 175>
VStem: 25 50<0 100 150 250> 75 50<100 150> 125 50<0 100 150 250>
LayerCount: 2
Fore
SplineSet
25 100 m 1x90
 75 100 l 1
 75 0 l 1
 25 0 l 1
 25 100 l 1x90
125 100 m 1x88
 175 100 l 1
 175 0 l 1
 125 0 l 1x84
 125 100 l 1x88
75 150 m 1x50
 125 150 l 1x48
 125 100 l 1x88
 75 100 l 1x90
 75 150 l 1x50
125 250 m 1x24
 175 250 l 1
 175 150 l 1x24
 125 150 l 1x48
 125 250 l 1x24
25 250 m 1x30
 75 250 l 1x30
 75 150 l 1x50
 25 150 l 1
 25 250 l 1x30
EndSplineSet
EndChar

StartChar: z
Encoding: 122 122 89
Width: 200
Flags: W
HStem: 0 100<25 75> 0 50<75 175> 100 50<75 125> 150 100<125 175> 200 50<25 125>
VStem: 25 50<50 100> 75 50<100 150> 125 50<150 200>
LayerCount: 2
Fore
SplineSet
25 100 m 1x85
 75 100 l 1x85
 75 50 l 1
 175 50 l 1
 175 0 l 1x45
 25 0 l 1
 25 100 l 1x85
75 150 m 1x22
 125 150 l 1
 125 100 l 1x22
 75 100 l 1x84
 75 150 l 1x22
125 200 m 1x29
 25 200 l 1
 25 250 l 1x2d
 175 250 l 1
 175 150 l 1x15
 125 150 l 1x22
 125 200 l 1x29
EndSplineSet
EndChar

StartChar: braceleft
Encoding: 123 123 90
Width: 250
HStem: 0 50<150 200> 200 50<50 100> 400 50<150 200>
VStem: 50 100<200 250> 100 100<0 50 400 450> 100 50<50 200 250 400>
CounterMasks: 1 e0
LayerCount: 2
Fore
SplineSet
200 450 m 1xe8
 200 400 l 1xe8
 150 400 l 1
 150 50 l 1xe4
 200 50 l 1
 200 0 l 1
 100 0 l 1xe8
 100 200 l 1xe4
 50 200 l 1
 50 250 l 1xf0
 100 250 l 1xe4
 100 450 l 1
 200 450 l 1xe8
EndSplineSet
Validated: 1
EndChar

StartChar: bar
Encoding: 124 124 91
Width: 150
Flags: W
HStem: 0 21G<50 100> 430 20G<50 100>
VStem: 50 50<0 450>
LayerCount: 2
Fore
SplineSet
50 0 m 1
 50 450 l 1
 100 450 l 1
 100 0 l 1
 50 0 l 1
EndSplineSet
Validated: 1
EndChar

StartChar: braceright
Encoding: 125 125 92
Width: 250
Flags: W
HStem: 0 50<50 100> 200 50<150 200> 400 50<50 100>
VStem: 50 100<0 50 400 450> 100 100<200 250> 100 50<50 200 250 400>
CounterMasks: 1 e0
LayerCount: 2
Fore
SplineSet
50 450 m 1xf0
 150 450 l 1xf0
 150 250 l 1xe4
 200 250 l 1
 200 200 l 1xe8
 150 200 l 1xe4
 150 0 l 1
 50 0 l 1
 50 50 l 1xf0
 100 50 l 1
 100 400 l 1xe4
 50 400 l 1
 50 450 l 1xf0
EndSplineSet
Validated: 1
EndChar

StartChar: asciitilde
Encoding: 126 126 93
Width: 350
Flags: W
HStem: 200 100<50 100> 250 100<250 300> 250 50<100 250>
VStem: 50 50<200 250> 250 50<300 350>
LayerCount: 2
Fore
SplineSet
250 300 m 1x38
 250 350 l 1
 300 350 l 1
 300 250 l 1x58
 100 250 l 1x38
 100 200 l 1
 50 200 l 1
 50 300 l 1x98
 250 300 l 1x38
EndSplineSet
Validated: 1
EndChar

StartChar: SWARA_A
Encoding: 3205 3205 94
Width: 500
Flags: W
HStem: 0 50<50 400> 200 50<150 300> 300 50<50 100> 400 50<50 100 350 400>
VStem: 0 50<50 300 350 400> 100 50<350 400> 300 50<250 400> 400 50<50 400>
LayerCount: 2
Fore
SplineSet
0 415 m 1
 0 450 l 1
 150 450 l 1
 150 415 l 1
 150 300 l 1
 50 300 l 1
 50 50 l 1
 400 50 l 1
 400 400 l 1
 350 400 l 1
 350 200 l 1
 150 200 l 1
 150 250 l 1
 300 250 l 1
 300 450 l 1
 450 450 l 1
 450 400 l 1
 450 0 l 1
 400 0 l 1
 25 0 l 1
 0 0 l 1
 0 415 l 1
50 400 m 1
 50 350 l 1
 100 350 l 1
 100 400 l 1
 50 400 l 1
EndSplineSet
Validated: 1
EndChar

StartChar: S_CANDRABINDU_EXT
Encoding: 3200 3200 96
Width: 300
Flags: W
HStem: 100 50<50 200> 250 100<100 150>
VStem: 0 50<150 350> 100 50<250 350> 200 50<150 350>
CounterMasks: 1 38
LayerCount: 2
Fore
SplineSet
0 130 m 1
 0 350 l 1
 50 350 l 1
 50 150 l 1
 200 150 l 1
 200 350 l 1
 250 350 l 1
 250 100 l 1
 0 100 l 1
 0 130 l 1
100 350 m 1
 150 350 l 1
 150 250 l 1
 100 250 l 1
 100 350 l 1
EndSplineSet
Validated: 1
EndChar

StartChar: CANDRABINDU_EXT
Encoding: 3201 3201 97
Width: 300
HStem: 500 50<50 200> 650 100<100 150>
VStem: 0 50<550 750> 100 50<650 750> 200 50<550 750>
CounterMasks: 1 38
LayerCount: 2
Fore
SplineSet
0 750 m 1
 50 750 l 1
 50 550 l 1
 200 550 l 1
 200 750 l 1
 250 750 l 5
 250 500 l 5
 0 500 l 1
 0 750 l 1
100 750 m 1
 150 750 l 1
 150 650 l 1
 100 650 l 1
 100 750 l 1
EndSplineSet
Validated: 1
EndChar

StartChar: MATRA_AAM
Encoding: 3202 3202 98
Width: 500
Flags: W
HStem: 0 50<50 400> 400 50<50 400>
VStem: 0 50<50 400> 400 50<50 400>
LayerCount: 2
Fore
SplineSet
450 450 m 1
 450 0 l 1
 0 0 l 1
 0 450 l 1
 450 450 l 1
400 400 m 1
 50 400 l 1
 50 50 l 1
 400 50 l 1
 400 400 l 1
EndSplineSet
Validated: 1
EndChar

StartChar: MATRA_AHA
Encoding: 3203 3203 99
Width: 200
Flags: W
HStem: 0 50<50 100> 100 50<50 100> 300 50<50 100> 400 50<50 100>
VStem: 0 50<50 100 350 400> 100 50<50 100 350 400>
LayerCount: 2
Fore
SplineSet
0 41 m 1
 0 150 l 1
 150 150 l 1
 150 0 l 1
 0 0 l 1
 0 41 l 1
50 100 m 1
 50 50 l 1
 100 50 l 1
 100 100 l 1
 50 100 l 1
0 336 m 1
 0 450 l 1
 25 450 l 1
 150 450 l 1
 150 300 l 1
 0 300 l 1
 0 336 l 1
50 400 m 1
 50 350 l 1
 100 350 l 1
 100 400 l 1
 50 400 l 1
EndSplineSet
Validated: 1
EndChar

StartChar: SIDDHAM_EXT
Encoding: 3204 3204 100
Width: 500
HStem: 0 50<50 400> 100 50<150 300> 300 50<250 300> 400 50<150 400>
VStem: 0 50<50 450> 100 50<150 400> 200 50<200 300> 300 50<150 300> 400 50<50 400>
LayerCount: 2
Fore
SplineSet
200 313 m 1
 200 350 l 1
 350 350 l 1
 350 100 l 1
 125 100 l 1
 100 100 l 1
 100 450 l 1
 400 450 l 1
 450 450 l 1
 450 0 l 1
 425 0 l 1
 0 0 l 1
 0 450 l 1
 50 450 l 1
 50 50 l 1
 400 50 l 1
 400 400 l 1
 150 400 l 1
 150 150 l 1
 300 150 l 1
 300 300 l 1
 250 300 l 1
 250 200 l 1
 200 200 l 1
 200 313 l 1
EndSplineSet
Validated: 1
EndChar

StartChar: SWARA_AA
Encoding: 3206 3206 101
Width: 500
HStem: 0 50<50 300> 200 50<150 300 350 400> 300 50<50 100> 400 50<50 100 350 400>
VStem: 0 50<50 300 350 400> 100 50<350 400> 300 50<50 200 250 400> 400 50<250 400>
LayerCount: 2
Fore
SplineSet
50 300 m 1
 50 50 l 1
 300 50 l 1
 300 200 l 1
 150 200 l 1
 150 250 l 1
 300 250 l 1
 300 450 l 1
 450 450 l 1
 450 200 l 1
 350 200 l 1
 350 0 l 1
 300 0 l 1
 0 0 l 1
 0 450 l 1
 150 450 l 1
 150 300 l 1
 50 300 l 1
350 400 m 1
 350 250 l 1
 400 250 l 1
 400 400 l 1
 350 400 l 1
50 400 m 1
 50 350 l 1
 100 350 l 1
 100 400 l 1
 50 400 l 1
EndSplineSet
Validated: 1
EndChar

StartChar: SWARA_I
Encoding: 3207 3207 102
Width: 600
Flags: W
HStem: 0 50<250 400> 100 50<250 400 450 550> 200 50<50 100> 300 50<50 100> 400 50<50 200 250 400>
VStem: 0 50<250 300 350 400> 100 50<250 300> 200 50<50 100 300 400> 400 50<50 100 150 400>
LayerCount: 2
Fore
SplineSet
0 450 m 5
 440 450 l 5
 450 450 l 5
 450 150 l 5
 500 150 l 5
 500 100 l 5
 450 100 l 5
 450 0 l 5
 425 0 l 5
 200 0 l 5
 200 150 l 5
 400 150 l 5
 400 400 l 5
 250 400 l 5
 250 300 l 5
 200 300 l 5
 200 400 l 5
 50 400 l 5
 50 350 l 5
 150 350 l 5
 150 200 l 5
 25 200 l 5
 0 200 l 5
 0 450 l 5
250 100 m 5
 250 50 l 5
 400 50 l 5
 400 100 l 5
 250 100 l 5
500 100 m 5
 500 150 l 5
 550 150 l 5
 550 100 l 5
 500 100 l 5
50 300 m 5
 50 250 l 5
 100 250 l 5
 100 300 l 5
 50 300 l 5
EndSplineSet
Validated: 5
EndChar

StartChar: SWARA_II
Encoding: 3208 3208 103
Width: 700
Flags: W
HStem: 0 50<150 300> 200 50<0 100 150 300 350 500 550 600> 300 50<550 600> 400 50<0 100 150 400>
VStem: 100 50<50 200 250 400> 300 50<50 200 250 400> 400 50<450 550> 500 50<0 200 250 300> 600 50<250 300>
LayerCount: 2
Fore
SplineSet
400 450 m 1
 400 550 l 1
 450 550 l 1
 450 400 l 1
 300 400 l 1
 350 400 l 1
 350 250 l 1
 500 250 l 1
 500 350 l 1
 600 350 l 1
 650 350 l 1
 650 200 l 1
 550 200 l 1
 550 0 l 1
 500 0 l 1
 500 200 l 1
 350 200 l 1
 350 0 l 1
 300 0 l 1
 100 0 l 1
 100 200 l 1
 0 200 l 1
 0 250 l 1
 100 250 l 1
 100 400 l 1
 0 400 l 1
 0 450 l 1
 400 450 l 1
150 200 m 1
 150 50 l 1
 300 50 l 1
 300 200 l 1
 150 200 l 1
600 250 m 1
 600 300 l 1
 550 300 l 1
 550 250 l 1
 600 250 l 1
150 400 m 1
 150 250 l 1
 300 250 l 1
 300 400 l 1
 150 400 l 1
EndSplineSet
Validated: 5
EndChar

StartChar: SWARA_U
Encoding: 3209 3209 104
Width: 700
HStem: 0 50<50 200 450 600> 300 50<50 100> 400 50<50 100 250 400>
VStem: 0 50<50 300 350 400> 100 50<350 400> 200 50<50 400> 400 50<50 400> 600 50<50 450>
LayerCount: 2
Fore
SplineSet
200 450 m 1
 450 450 l 1
 450 50 l 1
 600 50 l 1
 600 450 l 1
 650 450 l 1
 650 0.5 l 1
 625 0.5 l 1
 625 0 l 1
 450 0 l 1
 400 0 l 1
 400 400 l 1
 250 400 l 1
 250 0.5 l 1
 225 0.5 l 1
 225 0 l 1
 50 0 l 1
 0 0 l 1
 0 50 l 1
 0 425 l 1
 0 450 l 1
 150 450 l 1
 150 400 l 1
 150 300 l 1
 50 300 l 1
 50 50 l 1
 200 50 l 1
 200 450 l 1
100 400 m 1
 50 400 l 1
 50 350 l 1
 100 350 l 1
 100 400 l 1
EndSplineSet
Validated: 1
EndChar

StartChar: SWARA_UU
Encoding: 3210 3210 105
Width: 900
Flags: W
HStem: 0 50<50 200 450 600 750 800> 100 50<750 800> 300 50<50 100> 400 50<50 100 250 400 650 800>
VStem: 0 50<50 300 350 400> 100 50<350 400> 200 50<50 400> 400 50<50 400> 600 50<50 400> 700 50<50 100> 800 50<50 100 150 400>
LayerCount: 2
Fore
SplineSet
700 150 m 5
 800 150 l 5
 800 400 l 5
 650 400 l 5
 650 0 l 5
 600 0 l 5
 425 0 l 5
 400 0 l 5
 400 400 l 5
 250 400 l 5
 250 0 l 5
 200 0 l 5
 25 0 l 5
 0 0 l 5
 0 450 l 5
 150 450 l 5
 150 400 l 5
 150 350 l 5
 150 300 l 5
 50 300 l 5
 50 50 l 5
 200 50 l 5
 200 450 l 5
 225 450 l 5
 425 450 l 5
 450 450 l 5
 450 50 l 5
 600 50 l 5
 600 450 l 5
 637 450 l 5
 850 450 l 5
 850 403.049804688 l 5
 850 0 l 5
 814 0 l 5
 700 0 l 5
 700 150 l 5
800 100 m 5
 750 100 l 5
 750 50 l 5
 800 50 l 5
 800 100 l 5
50 400 m 5
 50 350 l 5
 100 350 l 5
 100 400 l 5
 50 400 l 5
EndSplineSet
Validated: 1
EndChar

StartChar: SWARA_R
Encoding: 3211 3211 106
Width: 700
Flags: W
HStem: 0 50<50 100 150 200 250 400 450 600> 100 50<50 100> 200 50<100 200> 300 50<50 100> 400 50<50 100 150 200 300 400 450 500>
VStem: 0 50<50 100 350 400> 100 50<50 100 350 400> 200 50<50 200 250 400> 400 50<50 400> 500 50<450 550> 600 50<50 350>
LayerCount: 2
Fore
SplineSet
500 450 m 1
 500 550 l 1
 550 550 l 1
 550 400 l 1
 450 400 l 1
 450 50 l 1
 600 50 l 1
 600 350 l 1
 650 350 l 1
 650 0 l 1
 609 0 l 1
 382 0 l 1
 150 0 l 1
 125 0 l 1
 0 0 l 1
 0 50 l 1
 0 150 l 1
 100 150 l 1
 150 150 l 1
 150 50 l 1
 200 50 l 1
 200 200 l 1
 100 200 l 1
 100 250 l 1
 200 250 l 1
 200 400 l 1
 150 400 l 1
 150 300 l 1
 125 300 l 1
 0 300 l 1
 0 350 l 1
 0 450 l 1
 100 450 l 1
 150 450 l 1
 200 450 l 1
 250 450 l 1
 250 50 l 1
 400 50 l 1
 400 400 l 1
 300 400 l 1
 300 450 l 1
 500 450 l 1
50 100 m 1
 50 50 l 1
 100 50 l 1
 100 100 l 1
 50 100 l 1
50 400 m 1
 50 350 l 1
 100 350 l 1
 100 400 l 1
 50 400 l 1
EndSplineSet
Validated: 1
EndChar

StartChar: SWARA_L_VOC
Encoding: 3212 3212 107
Width: 500
Flags: W
HStem: 0 50<250 450> 200 50<50 100 250 400> 300 50<50 100> 400 50<50 200 250 400>
VStem: 0 50<250 300 350 400> 100 50<250 300> 200 50<50 200 300 400> 400 50<250 400>
LayerCount: 2
Fore
SplineSet
400 250 m 1
 400 400 l 1
 250 400 l 1
 250 300 l 1
 200 300 l 1
 200 400 l 1
 50 400 l 1
 50 350 l 1
 150 350 l 1
 150 200 l 1
 0 200 l 1
 0 413 l 1
 0 450 l 1
 425 450 l 1
 450 450 l 1
 450 200 l 1
 425 200 l 1
 250 200 l 1
 250 50 l 1
 450 50 l 1
 450 0 l 1
 200 0 l 1
 200 250 l 1
 400 250 l 1
50 300 m 1
 50 250 l 1
 100 250 l 1
 100 300 l 1
 50 300 l 1
EndSplineSet
Validated: 1
EndChar

StartChar: SWARA_E
Encoding: 3214 3214 109
Width: 500
HStem: 0 50<50 200 250 400> 100 50<50 100> 200 50<50 100> 400 50<0 400>
VStem: 0 50<50 100 150 200> 100 50<150 200> 200 50<50 150> 400 50<50 400>
LayerCount: 2
Fore
SplineSet
400 50 m 1
 400 400 l 1
 0 400 l 1
 0 450 l 1
 425 450 l 1
 450 450 l 1
 450 50 l 1
 450 0 l 1
 281 0 l 1
 44 0 l 1
 0 0 l 1
 0 250 l 1
 100 250 l 1
 150 250 l 1
 150 150 l 1
 150 100 l 1
 50 100 l 1
 50 50 l 1
 200 50 l 1
 200 150 l 1
 250 150 l 1
 250 50 l 1
 400 50 l 1
50 200 m 1
 50 150 l 1
 100 150 l 1
 100 200 l 1
 50 200 l 1
EndSplineSet
Validated: 1
EndChar

StartChar: SWARA_EE
Encoding: 3215 3215 110
Width: 500
HStem: 0 50<50 200 250 400> 100 50<50 100> 200 50<50 100> 300 50<150 200> 400 50<250 400>
VStem: 0 50<50 100 150 200> 100 50<150 200 350 450> 200 50<50 150 350 400> 400 50<50 400>
LayerCount: 2
Fore
SplineSet
400 50 m 1
 400 400 l 1
 250 400 l 1
 250 300 l 1
 100 300 l 1
 100 450 l 1
 150 450 l 1
 150 350 l 1
 200 350 l 1
 200 450 l 1
 425 450 l 1
 450 450 l 1
 450 50 l 1
 450 0 l 1
 281 0 l 1
 44 0 l 1
 0 0 l 1
 0 250 l 1
 100 250 l 1
 150 250 l 1
 150 150 l 1
 150 100 l 1
 50 100 l 1
 50 50 l 1
 200 50 l 1
 200 150 l 1
 250 150 l 1
 250 50 l 1
 400 50 l 1
50 200 m 1
 50 150 l 1
 100 150 l 1
 100 200 l 1
 50 200 l 1
EndSplineSet
Validated: 1
EndChar

StartChar: SWARA_AI
Encoding: 3216 3216 111
Width: 500
HStem: 0 50<50 200 250 400> 100 50<50 100> 200 50<50 100> 300 150<0 50 200 250> 400 50<50 200 250 400>
VStem: 0 50<50 100 150 200 300 400> 100 50<150 200> 200 50<50 150 300 400> 400 50<50 400>
LayerCount: 2
Fore
SplineSet
400 50 m 1xef80
 400 400 l 1
 250 400 l 1xef80
 250 300 l 1
 200 300 l 1xf780
 200 400 l 1
 50 400 l 1xef80
 50 300 l 1
 0 300 l 1
 0 450 l 1xf780
 425 450 l 1
 450 450 l 1
 450 50 l 1
 450 0 l 1
 281 0 l 1
 44 0 l 1
 0 0 l 1
 0 250 l 1
 100 250 l 1
 150 250 l 1
 150 150 l 1
 150 100 l 1
 50 100 l 1
 50 50 l 1
 200 50 l 1
 200 150 l 1
 250 150 l 1
 250 50 l 1
 400 50 l 1xef80
50 200 m 1
 50 150 l 1
 100 150 l 1
 100 200 l 1
 50 200 l 1
EndSplineSet
Validated: 1
EndChar

StartChar: SWARA_O
Encoding: 3218 3218 112
Width: 500
HStem: 0 150<200 250 400 450> 0 50<150 200 250 400> 300 50<50 100> 400 50<50 100>
VStem: 0 50<350 400> 100 50<50 300 350 400> 200 50<50 150> 400 50<50 150>
LayerCount: 2
Fore
SplineSet
50 300 m 5x7f
 0 300 l 5
 0 450 l 5
 100 450 l 5
 150 450 l 5
 150 50 l 5
 200 50 l 5x7f
 200 150 l 5
 250 150 l 5xbf
 250 50 l 5
 400 50 l 5x7f
 400 150 l 5
 450 150 l 5
 450 0 l 5xbf
 136 0 l 5
 100 0 l 5
 100 300 l 5
 50 300 l 5x7f
50 400 m 5
 50 350 l 5
 100 350 l 5
 100 400 l 5
 50 400 l 5
EndSplineSet
Validated: 1
EndChar

StartChar: SWARA_OO
Encoding: 3219 3219 113
Width: 500
HStem: 0 150<200 250 400 450> 0 50<150 200 250 400> 300 50<50 100> 400 50<50 100> 500 50<150 250>
VStem: 0 50<350 400> 100 50<50 300 350 400 450 500> 200 50<50 150> 400 50<50 150>
LayerCount: 2
Fore
SplineSet
150 500 m 1x7f80
 150 50 l 1
 200 50 l 1x7f80
 200 150 l 1
 250 150 l 1xbf80
 250 50 l 1
 400 50 l 1x7f80
 400 150 l 1
 450 150 l 1
 450 0 l 1xbf80
 136 0 l 1
 100 0 l 1
 100 300 l 1
 50 300 l 1
 0 300 l 1
 0 450 l 1
 100 450 l 1
 100 550 l 1
 250 550 l 1
 250 500 l 1
 150 500 l 1x7f80
50 400 m 1
 50 350 l 1
 100 350 l 1
 100 400 l 1
 50 400 l 1
EndSplineSet
Validated: 1
EndChar

StartChar: SWARA_AU
Encoding: 3220 3220 114
Width: 500
HStem: 0 150<200 250 400 450> 0 50<150 200 250 400> 300 50<50 100 150 200 350 400> 400 50<50 100 350 400> 500 50<0 200 250 400>
VStem: 0 50<350 400> 100 50<50 300 350 400> 200 50<50 150 350 500> 300 50<350 400> 400 50<50 150 350 400 450 500>
LayerCount: 2
Fore
SplineSet
450 550 m 1x7fc0
 450 300 l 1
 350 300 l 1
 300 300 l 1
 300 450 l 1
 400 450 l 1
 400 500 l 1
 250 500 l 1
 250 333 l 1
 250 300 l 1
 150 300 l 1
 150 50 l 1
 200 50 l 1x7fc0
 200 150 l 1
 250 150 l 1xbfc0
 250 50 l 1
 400 50 l 1x7fc0
 400 150 l 1
 450 150 l 1
 450 0 l 1xbfc0
 136 0 l 1
 100 0 l 1
 100 300 l 1
 50 300 l 1
 0 300 l 1
 0 450 l 1
 100 450 l 1
 150 450 l 1
 150 350 l 1
 200 350 l 1
 200 500 l 1
 0 500 l 1
 0 550 l 1
 416 550 l 1
 450 550 l 1x7fc0
400 400 m 1
 350 400 l 1
 350 350 l 1
 400 350 l 1
 400 400 l 1
50 400 m 1
 50 350 l 1
 100 350 l 1
 100 400 l 1
 50 400 l 1
EndSplineSet
Validated: 1
EndChar

StartChar: K_A
Encoding: 3221 3221 115
Width: 500
HStem: 0 50<150 300> 300 50<0 100 150 200 250 300 350 450> 400 50<0 200 250 400>
VStem: 100 50<50 300> 200 50<350 400> 300 50<50 300> 400 50<450 550>
LayerCount: 2
Fore
SplineSet
100 0 m 1
 100 300 l 1
 0 300 l 1
 0 350 l 1
 200 350 l 1
 200 400 l 1
 0 400 l 1
 0 450 l 1
 400 450 l 1
 400 550 l 1
 450 550 l 1
 450 400 l 1
 250 400 l 1
 250 350 l 1
 450 350 l 1
 450 300 l 1
 350 300 l 1
 350 0 l 1
 100 0 l 1
200 300 m 1
 150 300 l 1
 150 50 l 1
 300 50 l 1
 300 300 l 1
 200 300 l 1
EndSplineSet
Validated: 1
Substitution2: "Single Substitution lookup 8-1" k_halant
AlternateSubs2: "'aalt' Access All Alternates lookup 3-1" k_halant
EndChar

StartChar: KH_A
Encoding: 3222 3222 116
Width: 500
HStem: 0 50<50 200> 100 50<50 200 250 400> 300 50<50 100> 400 50<50 100 150 200>
VStem: 0 50<50 100 350 400> 100 50<350 400> 200 50<50 100 150 400> 400 50<150 450>
LayerCount: 2
Fore
SplineSet
200 150 m 5
 200 400 l 5
 150 400 l 5
 150 300 l 5
 50 300 l 5
 0 300 l 5
 0 450 l 5
 100 450 l 5
 150 450 l 5
 250 450 l 5
 250 400 l 5
 250 150 l 5
 400 150 l 5
 400 450 l 5
 450 450 l 5
 450 100 l 5
 250 100 l 5
 250 0 l 5
 200 0 l 5
 0 0 l 5
 0 150 l 5
 200 150 l 5
50 100 m 5
 50 50 l 5
 200 50 l 5
 200 100 l 5
 50 100 l 5
50 400 m 5
 50 350 l 5
 100 350 l 5
 100 400 l 5
 50 400 l 5
EndSplineSet
Validated: 1
Substitution2: "Single Substitution lookup 8-1" kh_halant
AlternateSubs2: "'aalt' Access All Alternates lookup 3-1" kh_halant
EndChar

StartChar: G_A
Encoding: 3223 3223 117
Width: 600
Flags: W
HStem: 0 21G<100 150 400 450> 400 50<0 100 150 400 450 500>
VStem: 100 50<0 400> 400 50<0 400> 500 50<450 550>
LayerCount: 2
Fore
SplineSet
150 400 m 1
 150 0 l 1
 100 0 l 1
 100 400 l 1
 0 400 l 1
 0 450 l 1
 500 450 l 1
 500 550 l 1
 550 550 l 1
 550 450 l 1
 550 400 l 1
 450 400 l 1
 450 0 l 1
 400 0 l 1
 400 400 l 1
 150 400 l 1
EndSplineSet
Validated: 1
Substitution2: "Single Substitution lookup 8-1" g_halant
AlternateSubs2: "'aalt' Access All Alternates lookup 3-1" g_halant
EndChar

StartChar: GH_A
Encoding: 3224 3224 118
Width: 600
HStem: 0 50<50 300 350 500> 100 50<50 100> 200 50<50 100 400 500> 300 50<250 300> 400 50<0 200 250 300 350 500>
VStem: 0 50<50 100 150 200> 100 50<150 200> 200 50<350 400> 300 50<-100 0 50 150 350 400> 500 50<50 200 250 300 450 550>
LayerCount: 2
Fore
SplineSet
500 250 m 1
 500 300 l 1
 550 300 l 1
 550 0 l 1
 350 0 l 1
 350 -100 l 1
 300 -100 l 1
 300 0 l 1
 50 0 l 1
 0 0 l 1
 0 250 l 1
 0.009765625 250 l 1
 100 250 l 1
 150 250 l 1
 150 100 l 1
 50 100 l 1
 50 50 l 1
 300 50 l 1
 300 150 l 1
 350 150 l 1
 350 50 l 1
 500 50 l 1
 500 200 l 1
 400 200 l 1
 400 250 l 1
 500 250 l 1
50 200 m 1
 50 150 l 1
 100 150 l 1
 100 200 l 1
 50 200 l 1
500 450 m 1
 500 550 l 1
 550 550 l 1
 550 400 l 1
 500 400 l 1
 350 400 l 1
 350 300 l 1
 200 300 l 1
 200 400 l 1
 0 400 l 1
 0 450 l 1
 500 450 l 1
250 400 m 1
 250 350 l 1
 300 350 l 1
 300 400 l 1
 250 400 l 1
EndSplineSet
Validated: 1
Substitution2: "Single Substitution lookup 8-1" gh_halant
AlternateSubs2: "'aalt' Access All Alternates lookup 3-1" gh_halant
EndChar

StartChar: NG_A
Encoding: 3225 3225 119
Width: 600
HStem: 0 150<200 250 400 450> 0 50<150 200 250 400> 300 50<50 100> 350 100<200 250> 400 50<50 100> 500 50<150 300>
VStem: 0 50<350 400> 100 50<50 300 350 400 450 500> 200 50<50 150 350 450> 300 50<300 500> 400 50<50 150>
LayerCount: 2
Fore
SplineSet
150 500 m 1x6fe0
 150 50 l 1
 200 50 l 1x6fe0
 200 150 l 1
 250 150 l 1x87e0
 250 50 l 1
 400 50 l 1x47e0
 400 150 l 1
 450 150 l 1
 450 0 l 1x87e0
 125 0 l 1
 100 0 l 1
 100 300 l 1
 50 300 l 1
 0 300 l 1
 0 450 l 1
 100 450 l 1
 100 550 l 1
 136 550 l 1
 350 550 l 1
 350 513 l 1
 350 300 l 1
 300 300 l 1
 300 500 l 1
 150 500 l 1x6fe0
200 450 m 1x17e0
 250 450 l 1
 250 350 l 1
 200 350 l 1
 200 450 l 1x17e0
50 400 m 1x2fe0
 50 350 l 1
 100 350 l 1
 100 400 l 1
 50 400 l 1x2fe0
EndSplineSet
Validated: 1
Substitution2: "Single Substitution lookup 8-1" ng_halant
AlternateSubs2: "'aalt' Access All Alternates lookup 3-1" ng_halant
EndChar

StartChar: C_A
Encoding: 3226 3226 120
Width: 600
HStem: 0 50<150 200 250 400> 300 50<50 100 300 400 450 550> 400 50<50 100 300 400 450 500>
VStem: 0 50<350 400> 100 50<50 300 350 400> 200 50<50 150> 400 50<50 300 350 400> 500 50<450 550>
LayerCount: 2
Fore
SplineSet
500 450 m 1
 500 550 l 1
 550 550 l 1
 550 425 l 1
 550 400 l 1
 450 400 l 1
 450 350 l 1
 550 350 l 1
 550 300 l 1
 450 300 l 1
 450 0 l 1
 136 0 l 1
 100 0 l 1
 100 300 l 1
 50 300 l 1
 0 300 l 1
 0 450 l 1
 100 450 l 1
 150 450 l 1
 150 50 l 1
 200 50 l 1
 200 150 l 1
 250 150 l 1
 250 50 l 1
 400 50 l 1
 400 300 l 1
 300 300 l 1
 300 350 l 1
 400 350 l 1
 400 400 l 1
 300 400 l 1
 300 450 l 1
 500 450 l 1
50 400 m 1
 50 350 l 1
 100 350 l 1
 100 400 l 1
 50 400 l 1
EndSplineSet
Validated: 1
Substitution2: "Single Substitution lookup 8-1" c_halant
AlternateSubs2: "'aalt' Access All Alternates lookup 3-1" c_halant
EndChar

StartChar: CH_A
Encoding: 3227 3227 121
Width: 600
HStem: 0 50<50 200 250 400> 300 50<50 100> 400 50<50 100 200 400 450 500>
VStem: 0 50<50 300 350 400> 100 50<350 400> 200 50<-100 0 50 150> 400 50<50 400> 500 50<450 550>
LayerCount: 2
Fore
SplineSet
0 450 m 1
 150 450 l 1
 150 300 l 1
 50 300 l 1
 50 50 l 1
 200 50 l 1
 200 150 l 1
 250 150 l 1
 250 50 l 1
 400 50 l 1
 400 400 l 1
 200 400 l 1
 200 450 l 1
 500 450 l 1
 500 550 l 1
 550 550 l 1
 550 450 l 1
 550 400 l 1
 450 400 l 1
 450 50 l 1
 450 0 l 1
 250 0 l 1
 250 -100 l 1
 200 -100 l 1
 200 0 l 1
 0 0 l 1
 0 450 l 1
50 400 m 1
 50 350 l 1
 100 350 l 1
 100 400 l 1
 50 400 l 1
EndSplineSet
Validated: 1
Substitution2: "Single Substitution lookup 8-1" ch_halant
AlternateSubs2: "'aalt' Access All Alternates lookup 3-1" ch_halant
EndChar

StartChar: J_A
Encoding: 3228 3228 122
Width: 500
Flags: W
HStem: 0 150<200 250 400 450> 0 50<150 200 250 400> 300 50<50 100 150 300> 400 50<50 100>
VStem: 0 50<350 400> 100 50<50 300 350 400> 200 50<50 150> 300 50<350 450> 400 50<50 150>
LayerCount: 2
Fore
SplineSet
100 450 m 1x7f80
 150 450 l 1
 150 350 l 1
 300 350 l 1
 300 450 l 1
 350 450 l 1
 350 300 l 1
 150 300 l 1
 150 50 l 1
 200 50 l 1x7f80
 200 150 l 1
 250 150 l 1xbf80
 250 50 l 1
 400 50 l 1x7f80
 400 150 l 1
 450 150 l 1
 450 0 l 1xbf80
 136 0 l 1
 100 0 l 1
 100 300 l 1
 50 300 l 1
 0 300 l 1
 0 450 l 1
 100 450 l 1x7f80
50 400 m 1
 50 350 l 1
 100 350 l 1
 100 400 l 1
 50 400 l 1
EndSplineSet
Validated: 1
Substitution2: "Single Substitution lookup 8-1" j_halant
AlternateSubs2: "'aalt' Access All Alternates lookup 3-1" j_halant
EndChar

StartChar: JH_A
Encoding: 3229 3229 123
Width: 900
Flags: W
HStem: 0 50<150 400 450 600 650 800> 300 50<500 600 700 800> 400 50<0 100 150 400 450 500>
VStem: 100 50<50 400> 400 50<50 400> 500 50<450 550> 600 50<-100 0 50 300> 800 50<50 300>
LayerCount: 2
Fore
SplineSet
500 450 m 1
 500 550 l 1
 550 550 l 1
 550 400 l 1
 450 400 l 1
 450 50 l 1
 600 50 l 1
 600 300 l 1
 500 300 l 1
 500 350 l 1
 650 350 l 1
 650 50 l 1
 700 50 l 1
 800 50 l 1
 800 300 l 1
 700 300 l 1
 700 350 l 1
 850 350 l 1
 850 50 l 1
 850 0 l 1
 650 0 l 1
 650 -100 l 1
 600 -100 l 1
 600 0 l 1
 100 0 l 1
 100 400 l 1
 0 400 l 1
 0 450 l 1
 100 450 l 1
 150 450 l 1
 500 450 l 1
400 400 m 1
 150 400 l 1
 150 50 l 1
 400 50 l 1
 400 400 l 1
EndSplineSet
Validated: 1
Substitution2: "Single Substitution lookup 8-1" jh_halant
AlternateSubs2: "'aalt' Access All Alternates lookup 3-1" jh_halant
EndChar

StartChar: NY_A
Encoding: 3230 3230 124
Width: 700
Flags: W
HStem: 0 50<250 400> 100 50<250 400 450 550> 200 50<50 100> 300 50<50 100> 400 50<50 200 250 400 450 600>
VStem: 0 50<250 300 350 400> 100 50<250 300> 200 50<50 100 300 400> 400 50<50 100 150 400> 600 50<300 400>
LayerCount: 2
Fore
SplineSet
0 450 m 1
 650 450 l 1
 650 300 l 1
 600 300 l 1
 600 400 l 1
 450 400 l 1
 450 150 l 1
 550 150 l 1
 550 100 l 1
 450 100 l 1
 450 0 l 1
 200 0 l 1
 200 150 l 1
 400 150 l 1
 400 400 l 1
 250 400 l 1
 250 300 l 1
 200 300 l 1
 200 400 l 1
 50 400 l 1
 50 350 l 1
 150 350 l 1
 150 200 l 1
 0 200 l 1
 0 450 l 1
250 100 m 1
 250 50 l 1
 400 50 l 1
 400 100 l 1
 250 100 l 1
50 300 m 1
 50 250 l 1
 100 250 l 1
 100 300 l 1
 50 300 l 1
EndSplineSet
Validated: 1
Substitution2: "Single Substitution lookup 8-1" ny_halant
AlternateSubs2: "'aalt' Access All Alternates lookup 3-1" ny_halant
EndChar

StartChar: TT_A
Encoding: 3231 3231 125
Width: 500
Flags: W
HStem: 0 50<50 200 250 400> 200 50<50 143 300 400> 300 50<50 100> 400 50<50 100 300 400>
VStem: 0 50<50 200 250 300 350 400> 100 50<350 400> 200 50<50 150> 300 150<200 250 400 450> 400 50<50 200 250 400>
LayerCount: 2
Fore
SplineSet
0 450 m 1xfe80
 100 450 l 1
 150 450 l 1
 150 350 l 1
 150 300 l 1
 50 300 l 1
 50 250 l 1
 143 250 l 1
 143 200 l 1
 50 200 l 1
 50 50 l 1
 200 50 l 1
 200 150 l 1
 250 150 l 1
 250 50 l 1
 400 50 l 1
 400 200 l 1xfe80
 300 200 l 1
 300 250 l 1xff
 400 250 l 1
 400 400 l 1xfe80
 300 400 l 1
 300 450 l 1xff
 400 450 l 1xfe80
 450 450 l 1xff
 450 0 l 1
 50 0 l 1
 0 0 l 1
 0 400 l 1
 0 450 l 1xfe80
50 400 m 1
 50 350 l 1
 100 350 l 1
 100 400 l 1
 50 400 l 1
EndSplineSet
Validated: 1
Substitution2: "Single Substitution lookup 8-1" tt_halant
AlternateSubs2: "'aalt' Access All Alternates lookup 3-1" tt_halant
EndChar

StartChar: TTH_A
Encoding: 3232 3232 126
Width: 600
Flags: W
HStem: 0 50<150 400> 100 50<250 300> 200 50<250 300> 400 50<0 100 150 400 450 500>
VStem: 100 50<50 400> 200 50<150 200> 300 50<150 200> 400 50<50 400> 500 50<450 550>
LayerCount: 2
Fore
SplineSet
500 450 m 1
 500 550 l 1
 550 550 l 1
 550 400 l 1
 450 400 l 1
 450 0 l 1
 400 0 l 1
 150 0 l 1
 100 0 l 1
 100 400 l 1
 0 400 l 1
 0 450 l 1
 500 450 l 1
150 400 m 1
 150 50 l 1
 400 50 l 1
 400 400 l 1
 150 400 l 1
350 250 m 1
 350 100 l 1
 200 100 l 1
 200 250 l 1
 350 250 l 1
250 200 m 1
 250 150 l 1
 300 150 l 1
 300 200 l 1
 250 200 l 1
EndSplineSet
Validated: 1
Substitution2: "Single Substitution lookup 8-1" tth_halant
AlternateSubs2: "'aalt' Access All Alternates lookup 3-1" tth_halant
EndChar

StartChar: DD_A
Encoding: 3233 3233 127
Width: 700
Flags: W
HStem: 0 50<150 300 350 500> 200 50<400 500> 400 50<0 100 150 500 550 600>
VStem: 100 50<50 400> 300 50<50 150> 500 50<50 200 250 400> 600 50<450 550>
CounterMasks: 1 e0
LayerCount: 2
Fore
SplineSet
600 450 m 1
 600 550 l 1
 650 550 l 1
 650 450 l 1
 650 409 l 1
 650 400 l 1
 550 400 l 1
 550 0 l 1
 150 0 l 1
 100 0 l 1
 100 400 l 1
 0 400 l 1
 0 450 l 1
 500 450 l 1
 550 450 l 1
 600 450 l 1
500 250 m 1
 500 400 l 1
 150 400 l 1
 150 50 l 1
 300 50 l 1
 300 150 l 1
 350 150 l 1
 350 50 l 1
 500 50 l 1
 500 200 l 1
 400 200 l 1
 400 250 l 1
 500 250 l 1
EndSplineSet
Validated: 1
Substitution2: "Single Substitution lookup 8-1" dd_halant
AlternateSubs2: "'aalt' Access All Alternates lookup 3-1" dd_halant
EndChar

StartChar: DDH_A
Encoding: 3234 3234 128
Width: 700
HStem: 0 50<150 300 350 500> 200 50<400 500> 400 50<0 100 150 500 550 600>
VStem: 100 50<50 400> 300 50<-100 0 50 150> 500 50<50 200 250 400> 600 50<450 550>
CounterMasks: 1 e0
LayerCount: 2
Fore
SplineSet
600 450 m 5
 600 550 l 5
 650 550 l 5
 650 450 l 5
 650 409 l 5
 650 400 l 5
 550 400 l 5
 550 0 l 5
 350 0 l 5
 350 -100 l 5
 300 -100 l 5
 300 0 l 5
 150 0 l 5
 100 0 l 5
 100 400 l 5
 0 400 l 5
 0 450 l 5
 500 450 l 5
 550 450 l 5
 600 450 l 5
500 250 m 5
 500 400 l 5
 150 400 l 5
 150 50 l 5
 300 50 l 5
 300 150 l 5
 350 150 l 5
 350 50 l 5
 500 50 l 5
 500 200 l 5
 400 200 l 5
 400 250 l 5
 500 250 l 5
EndSplineSet
Validated: 1
Substitution2: "Single Substitution lookup 8-1" ddh_halant
AlternateSubs2: "'aalt' Access All Alternates lookup 3-1" ddh_halant
EndChar

StartChar: NN_A
Encoding: 3235 3235 129
Width: 500
Flags: W
HStem: 0 50<50 150 350 400> 100 50<350 400> 200 50<50 150> 400 50<50 200 250 400>
VStem: 0 150<0 50 200 250> 0 50<50 200 250 400> 200 50<300 400> 300 50<50 100> 400 50<50 100 150 400>
LayerCount: 2
Fore
SplineSet
450 37 m 1xf780
 450 0 l 1
 350 0 l 1
 300 0 l 1
 300 100 l 1
 300 150 l 1
 400 150 l 1
 400 400 l 1
 250 400 l 1
 250 300 l 1
 200 300 l 1
 200 400 l 1
 50 400 l 1
 50 250 l 1xf780
 150 250 l 1
 150 200 l 1xfb80
 50 200 l 1
 50 50 l 1xf780
 150 50 l 1
 150 0 l 1xfb80
 50 0 l 1xf780
 0 0 l 1xfb80
 0 450 l 1
 400 450 l 1
 450 450 l 1
 450 37 l 1xf780
350 100 m 1
 350 50 l 1
 400 50 l 1
 400 100 l 1
 350 100 l 1
EndSplineSet
Validated: 1
Substitution2: "Single Substitution lookup 8-1" nn_halant
AlternateSubs2: "'aalt' Access All Alternates lookup 3-1" nn_halant
EndChar

StartChar: T_A
Encoding: 3236 3236 130
Width: 500
HStem: 0 50<50 300> 100 50<50 100> 200 50<50 100 200 300> 400 50<0 300 350 400>
VStem: 0 50<50 100 150 200> 100 50<150 200> 300 50<50 200 250 400> 400 50<450 550>
LayerCount: 2
Fore
SplineSet
400 450 m 5
 400 550 l 5
 450 550 l 5
 450 400 l 5
 350 400 l 5
 350 0 l 5
 300 0 l 5
 0 0 l 5
 0 100 l 5
 0 250 l 5
 100 250 l 5
 150 250 l 5
 150 100 l 5
 50 100 l 5
 50 50 l 5
 300 50 l 5
 300 200 l 5
 200 200 l 5
 200 250 l 5
 300 250 l 5
 300 400 l 5
 0 400 l 5
 0 450 l 5
 400 450 l 5
50 200 m 5
 50 150 l 5
 100 150 l 5
 100 200 l 5
 50 200 l 5
EndSplineSet
Validated: 1
Substitution2: "Single Substitution lookup 8-1" t_halant
AlternateSubs2: "'aalt' Access All Alternates lookup 3-1" t_halant
EndChar

StartChar: TH_A
Encoding: 3237 3237 131
Width: 700
Flags: W
HStem: 0 50<150 300 350 500> 200 100<300 350> 400 50<0 100 150 500 550 600>
VStem: 100 50<50 400> 300 50<-100 0 50 150 200 300> 500 50<50 400> 600 50<450 550>
LayerCount: 2
Fore
SplineSet
600 450 m 1
 600 550 l 1
 650 550 l 1
 650 450 l 1
 650 409 l 1
 650 400 l 1
 550 400 l 1
 550 0 l 1
 350 0 l 1
 350 -100 l 1
 300 -100 l 1
 300 0 l 1
 150 0 l 1
 100 0 l 1
 100 400 l 1
 0 400 l 1
 0 450 l 1
 500 450 l 1
 550 450 l 1
 600 450 l 1
350 50 m 1
 500 50 l 1
 500 400 l 1
 150 400 l 1
 150 50 l 1
 300 50 l 1
 300 150 l 1
 350 150 l 1
 350 50 l 1
350 200 m 1
 300 200 l 1
 300 300 l 1
 350 300 l 1
 350 200 l 1
EndSplineSet
Validated: 1
Substitution2: "Single Substitution lookup 8-1" th_halant
AlternateSubs2: "'aalt' Access All Alternates lookup 3-1" th_halant
EndChar

StartChar: D_A
Encoding: 3238 3238 132
Width: 700
HStem: 0 50<150 300 350 500> 400 50<0 100 150 500 550 600>
VStem: 100 50<50 400> 300 50<50 150> 500 50<50 400> 600 50<450 550>
LayerCount: 2
Fore
SplineSet
600 450 m 1
 600 550 l 1
 650 550 l 1
 650 450 l 1
 650 409 l 1
 650 400 l 1
 550 400 l 1
 550 0 l 1
 150 0 l 1
 100 0 l 1
 100 400 l 1
 0 400 l 1
 0 450 l 1
 500 450 l 1
 550 450 l 1
 600 450 l 1
350 50 m 1
 500 50 l 1
 500 400 l 1
 150 400 l 1
 150 50 l 1
 300 50 l 1
 300 150 l 1
 350 150 l 1
 350 50 l 1
EndSplineSet
Validated: 1
Substitution2: "Single Substitution lookup 8-1" d_halant
AlternateSubs2: "'aalt' Access All Alternates lookup 3-1" d_halant
EndChar

StartChar: DH_A
Encoding: 3239 3239 133
Width: 700
HStem: 0 50<150 300 350 500> 400 50<0 100 150 500 550 600>
VStem: 100 50<50 400> 300 50<-100 0 50 150> 500 50<50 400> 600 50<450 550>
LayerCount: 2
Fore
SplineSet
600 450 m 1
 600 550 l 1
 650 550 l 1
 650 450 l 1
 650 409 l 1
 650 400 l 1
 550 400 l 1
 550 0 l 1
 350 0 l 1
 350 -100 l 1
 300 -100 l 1
 300 0 l 1
 150 0 l 1
 100 0 l 1
 100 400 l 1
 0 400 l 1
 0 450 l 1
 500 450 l 1
 550 450 l 1
 600 450 l 1
350 50 m 1
 500 50 l 1
 500 400 l 1
 150 400 l 1
 150 50 l 1
 300 50 l 1
 300 150 l 1
 350 150 l 1
 350 50 l 1
EndSplineSet
Validated: 1
Substitution2: "Single Substitution lookup 8-1" dh_halant
AlternateSubs2: "'aalt' Access All Alternates lookup 3-1" dh_halant
EndChar

StartChar: N_A
Encoding: 3240 3240 134
Width: 600
Flags: W
HStem: 0 50<250 400> 200 50<50 200> 400 50<0 400 450 500>
VStem: 0 50<0 200> 200 50<50 200> 400 50<50 400> 500 50<450 550>
CounterMasks: 1 e0
LayerCount: 2
Fore
SplineSet
0 0 m 1
 0 250 l 1
 250 250 l 1
 250 50 l 1
 400 50 l 1
 400 400 l 1
 0 400 l 1
 0 450 l 1
 500 450 l 1
 500 550 l 1
 550 550 l 1
 550 450 l 1
 550 400 l 1
 450 400 l 1
 450 0 l 1
 400 0 l 1
 200 0 l 1
 200 200 l 1
 50 200 l 1
 50 0 l 1
 0 0 l 1
EndSplineSet
Validated: 1
Substitution2: "Single Substitution lookup 8-1" n_halant
AlternateSubs2: "'aalt' Access All Alternates lookup 3-1" n_halant
EndChar

StartChar: P_A
Encoding: 3242 3242 135
Width: 600
HStem: 0 50<50 300 350 500> 100 50<50 100> 200 50<50 100> 300 50<250 300> 400 50<0 200 250 300 350 500>
VStem: 0 50<50 100 150 200> 100 50<150 200> 200 50<350 400> 300 50<50 150 350 400> 500 50<50 250 450 550>
LayerCount: 2
Fore
SplineSet
100 250 m 1
 150 250 l 1
 150 150 l 1
 150 100 l 1
 50 100 l 1
 50 50 l 1
 300 50 l 1
 300 150 l 1
 350 150 l 1
 350 50 l 1
 500 50 l 1
 500 250 l 1
 550 250 l 1
 550 35 l 1
 550 0 l 1
 50 0 l 1
 0 0 l 1
 0 250 l 1
 100 250 l 1
50 200 m 1
 50 150 l 1
 100 150 l 1
 100 200 l 1
 50 200 l 1
500 450 m 1
 500 550 l 1
 550 550 l 1
 550 400 l 1
 350 400 l 1
 350 300 l 1
 250 300 l 1
 200 300 l 1
 200 400 l 1
 0 400 l 1
 0 450 l 1
 200 450 l 1
 300 450 l 1
 350 450 l 1
 500 450 l 1
250 400 m 1
 250 350 l 1
 300 350 l 1
 300 400 l 1
 250 400 l 1
EndSplineSet
Validated: 1
Substitution2: "Single Substitution lookup 8-1" p_halant
AlternateSubs2: "'aalt' Access All Alternates lookup 3-1" p_halant
EndChar

StartChar: PH_A
Encoding: 3243 3243 136
Width: 600
HStem: 0 50<50 300 350 500> 100 50<50 100> 200 50<50 100> 300 50<250 300> 400 50<0 200 250 300 350 500>
VStem: 0 50<50 100 150 200> 100 50<150 200> 200 50<350 400> 300 50<-100 0 50 150 350 400> 500 50<50 250 450 550>
LayerCount: 2
Fore
SplineSet
100 250 m 1
 150 250 l 1
 150 150 l 1
 150 100 l 1
 50 100 l 1
 50 50 l 1
 300 50 l 1
 300 150 l 1
 350 150 l 1
 350 50 l 1
 500 50 l 1
 500 250 l 1
 550 250 l 1
 550 35 l 1
 550 0 l 1
 350 0 l 1
 350 -100 l 1
 300 -100 l 1
 300 0 l 1
 50 0 l 1
 0 0 l 1
 0 250 l 1
 100 250 l 1
50 200 m 1
 50 150 l 1
 100 150 l 1
 100 200 l 1
 50 200 l 1
500 450 m 1
 500 550 l 1
 550 550 l 1
 550 400 l 1
 350 400 l 1
 350 300 l 1
 250 300 l 1
 200 300 l 1
 200 400 l 1
 0 400 l 1
 0 450 l 1
 200 450 l 1
 300 450 l 1
 350 450 l 1
 500 450 l 1
250 400 m 1
 250 350 l 1
 300 350 l 1
 300 400 l 1
 250 400 l 1
EndSplineSet
Validated: 1
Substitution2: "Single Substitution lookup 8-1" ph_halant
AlternateSubs2: "'aalt' Access All Alternates lookup 3-1" ph_halant
EndChar

StartChar: B_A
Encoding: 3244 3244 137
Width: 500
Flags: W
HStem: 0 50<150 200 250 400> 300 50<50 100> 400 50<50 100>
VStem: 0 50<350 400> 100 50<50 300 350 400> 200 50<50 150> 400 50<50 450>
LayerCount: 2
Fore
SplineSet
50 300 m 1
 0 300 l 1
 0 450 l 1
 150 450 l 1
 150 50 l 1
 200 50 l 1
 200 150 l 1
 250 150 l 1
 250 50 l 1
 400 50 l 1
 400 450 l 1
 450 450 l 1
 450 0 l 1
 136 0 l 1
 100 0 l 1
 100 300 l 1
 50 300 l 1
100 350 m 1
 100 400 l 1
 50 400 l 1
 50 350 l 1
 100 350 l 1
EndSplineSet
Validated: 1
Substitution2: "Single Substitution lookup 8-1" b_halant
AlternateSubs2: "'aalt' Access All Alternates lookup 3-1" b_halant
EndChar

StartChar: BH_A
Encoding: 3245 3245 138
Width: 600
Flags: W
HStem: 0 50<150 200 250 400> 300 50<50 100> 400 50<50 100 300 400 450 500>
VStem: 0 50<350 400> 100 50<50 300 350 400> 200 50<-100 0 50 150> 400 50<50 400> 500 50<450 550>
LayerCount: 2
Fore
SplineSet
50 300 m 1
 0 300 l 1
 0 450 l 1
 100 450 l 1
 150 450 l 1
 150 50 l 1
 200 50 l 1
 200 150 l 1
 250 150 l 1
 250 50 l 1
 400 50 l 1
 400 400 l 1
 300 400 l 1
 300 450 l 1
 400 450 l 1
 450 450 l 1
 500 450 l 1
 500 550 l 1
 550 550 l 1
 550 400 l 1
 450 400 l 1
 450 0 l 1
 250 0 l 1
 250 -100 l 1
 200 -100 l 1
 200 0 l 1
 136 0 l 1
 100 0 l 1
 100 300 l 1
 50 300 l 1
50 400 m 1
 50 350 l 1
 100 350 l 1
 100 400 l 1
 50 400 l 1
EndSplineSet
Validated: 1
Substitution2: "Single Substitution lookup 8-1" bh_halant
AlternateSubs2: "'aalt' Access All Alternates lookup 3-1" bh_halant
EndChar

StartChar: M_A
Encoding: 3246 3246 139
Width: 700
Flags: W
HStem: 0 50<50 200 250 400 450 600> 100 50<50 100> 200 50<50 100> 330 20G<600 650> 400 50<0 400 450 500>
VStem: 0 50<50 100 150 200> 100 50<150 200> 200 50<50 150> 400 50<50 400> 500 50<450 550> 600 50<50 350>
LayerCount: 2
Fore
SplineSet
0 250 m 1
 100 250 l 1
 150 250 l 1
 150 100 l 1
 50 100 l 1
 50 50 l 1
 200 50 l 1
 200 150 l 1
 250 150 l 1
 250 50 l 1
 400 50 l 1
 400 400 l 1
 389 400 l 1
 0 400 l 1
 0 450 l 1
 425 450 l 1
 450 450 l 1
 500 450 l 1
 500 550 l 1
 550 550 l 1
 550 435 l 1
 550 400 l 1
 450 400 l 1
 450 50 l 1
 600 50 l 1
 600 350 l 1
 650 350 l 1
 650 0 l 1
 450 0 l 1
 25 0 l 1
 0 0 l 1
 0 213 l 1
 0 250 l 1
50 200 m 1
 50 150 l 1
 100 150 l 1
 100 200 l 1
 50 200 l 1
EndSplineSet
Validated: 1
Substitution2: "Single Substitution lookup 8-1" m_halant
AlternateSubs2: "'aalt' Access All Alternates lookup 3-1" m_halant
EndChar

StartChar: Y_A
Encoding: 3247 3247 140
Width: 700
HStem: 0 50<50 200 250 400 450 600> 400 50<50 200 300 400 450 500>
VStem: 0 50<50 400> 200 50<50 400> 400 50<50 400> 500 50<450 550> 600 50<50 450>
LayerCount: 2
Fore
SplineSet
500 450 m 1
 500 550 l 1
 550 550 l 1
 550 400 l 1
 508 400 l 1
 450 400 l 1
 450 50 l 1
 600 50 l 1
 600 450 l 1
 650 450 l 1
 650 25 l 1
 650 0 l 1
 0 0 l 1
 0 25 l 1
 0 450 l 1
 250 450 l 1
 250 405.549804688 l 1
 250 50 l 1
 400 50 l 1
 400 400 l 1
 300 400 l 1
 300 450 l 1
 500 450 l 1
50 400 m 1
 50 50 l 1
 200 50 l 1
 200 400 l 1
 50 400 l 1
EndSplineSet
Validated: 1
Substitution2: "Single Substitution lookup 8-1" y_halant
AlternateSubs2: "'aalt' Access All Alternates lookup 3-1" y_halant
EndChar

StartChar: RRR_A
Encoding: 3248 3248 141
Width: 700
HStem: 0 50<150 500> 400 50<0 100 150 500 550 600>
VStem: 100 50<50 400> 500 50<50 400> 600 50<450 550>
LayerCount: 2
Fore
SplineSet
600 450 m 1
 600 550 l 1
 650 550 l 1
 650 425 l 1
 650 400 l 1
 550 400 l 1
 550 0 l 1
 150 0 l 1
 100 0 l 1
 100 400 l 1
 0 400 l 1
 0 450 l 1
 500 450 l 1
 550 450 l 1
 600 450 l 1
150 400 m 1
 150 50 l 1
 500 50 l 1
 500 400 l 1
 150 400 l 1
EndSplineSet
Validated: 1
Substitution2: "Single Substitution lookup 8-1" rrr_halant
AlternateSubs2: "'aalt' Access All Alternates lookup 3-1" rrr_halant
EndChar

StartChar: RRRR_A
Encoding: 3249 3249 142
Width: 500
Flags: W
HStem: 0 50<50 200 250 400> 200 50<150 300> 300 50<50 100> 400 50<50 100 350 400>
VStem: 0 50<50 300 350 400> 100 50<350 400> 200 50<50 150> 300 50<250 400> 400 50<50 400>
LayerCount: 2
Fore
SplineSet
0 450 m 1
 100 450 l 1
 150 450 l 1
 150 350 l 1
 150 300 l 1
 50 300 l 1
 50 50 l 1
 200 50 l 1
 200 150 l 1
 250 150 l 1
 250 50 l 1
 400 50 l 1
 400 400 l 1
 350 400 l 1
 350 200 l 1
 320 200 l 1
 150 200 l 1
 150 250 l 1
 300 250 l 1
 300 450 l 1
 400 450 l 1
 450 450 l 1
 450 0 l 1
 50 0 l 1
 0 0 l 1
 0 400 l 1
 0 450 l 1
50 400 m 1
 50 350 l 1
 100 350 l 1
 100 400 l 1
 50 400 l 1
EndSplineSet
Validated: 1
Substitution2: "Single Substitution lookup 8-1" rrrr_halant
AlternateSubs2: "'aalt' Access All Alternates lookup 3-1" rrrr_halant
EndChar

StartChar: LL_A
Encoding: 3250 3250 143
Width: 500
HStem: 0 50<50 400> 300 50<50 100> 400 50<50 100>
VStem: 0 50<50 300 350 400> 100 50<350 400> 400 50<50 450>
LayerCount: 2
Fore
SplineSet
0 450 m 1
 100 450 l 1
 150 450 l 1
 150 350 l 1
 150 300 l 1
 50 300 l 1
 50 50 l 1
 400 50 l 1
 400 450 l 1
 450 450 l 1
 450 0 l 1
 50 0 l 1
 0 0 l 1
 0 400 l 1
 0 450 l 1
50 400 m 1
 50 350 l 1
 100 350 l 1
 100 400 l 1
 50 400 l 1
EndSplineSet
Validated: 1
Substitution2: "Single Substitution lookup 8-1" ll_halant
AlternateSubs2: "'aalt' Access All Alternates lookup 3-1" ll_halant
EndChar

StartChar: LLL_A
Encoding: 3251 3251 144
Width: 600
Flags: W
HStem: 0 50<150 300> 200 50<50 100 150 300 350 400> 300 50<50 100> 400 50<50 100 300 400 450 500>
VStem: 0 50<250 300 350 400> 100 50<50 200 350 400> 300 50<50 200> 400 50<250 400> 500 50<450 550>
LayerCount: 2
Fore
SplineSet
0 450 m 1
 100 450 l 1
 150 450 l 1
 150 350 l 1
 150 300 l 1
 50 300 l 1
 50 250 l 1
 400 250 l 1
 400 400 l 1
 300 400 l 1
 300 450 l 1
 500 450 l 1
 500 550 l 1
 550 550 l 1
 550 400 l 1
 450 400 l 1
 450 200 l 1
 350 200 l 1
 350 0 l 1
 100 0 l 1
 100 200 l 1
 0 200 l 1
 0 400 l 1
 0 450 l 1
150 200 m 1
 150 50 l 1
 300 50 l 1
 300 200 l 1
 150 200 l 1
50 400 m 1
 50 350 l 1
 100 350 l 1
 100 400 l 1
 50 400 l 1
EndSplineSet
Validated: 1
Substitution2: "Single Substitution lookup 8-1" lll_halant
AlternateSubs2: "'aalt' Access All Alternates lookup 3-1" lll_halant
EndChar

StartChar: V_A
Encoding: 3253 3253 145
Width: 600
HStem: 0 50<50 200 250 400> 100 50<50 100> 200 50<50 100> 400 50<0 400 450 500>
VStem: 0 50<50 100 150 200> 100 50<150 200> 200 50<50 150> 400 50<50 400> 500 50<450 550>
LayerCount: 2
Fore
SplineSet
0 250 m 1
 100 250 l 1
 150 250 l 1
 150 100 l 1
 50 100 l 1
 50 50 l 1
 200 50 l 1
 200 150 l 1
 250 150 l 1
 250 50 l 1
 400 50 l 1
 400 400 l 1
 389 400 l 1
 0 400 l 1
 0 450 l 1
 425 450 l 1
 450 450 l 1
 500 450 l 1
 500 550 l 1
 550 550 l 1
 550 435 l 1
 550 400 l 1
 450 400 l 1
 450 0 l 1
 0 0 l 1
 0 213 l 1
 0 250 l 1
50 200 m 1
 50 150 l 1
 100 150 l 1
 100 200 l 1
 50 200 l 1
EndSplineSet
Validated: 1
Substitution2: "Single Substitution lookup 8-1" v_halant
AlternateSubs2: "'aalt' Access All Alternates lookup 3-1" v_halant
EndChar

StartChar: SH_A
Encoding: 3254 3254 146
Width: 500
Flags: W
HStem: 0 50<50 300> 200 50<50 200> 300 50<150 200> 400 50<0 100 150 200 250 300 350 400>
VStem: 0 50<50 200> 100 50<350 400> 200 50<250 300 350 400> 300 50<50 400> 400 50<450 543>
LayerCount: 2
Fore
SplineSet
400 450 m 1
 400 543 l 1
 450 543 l 1
 450 450 l 1
 450 400 l 1
 350 400 l 1
 350 0 l 1
 309 0 l 1
 0 0 l 1
 0 250 l 1
 200 250 l 1
 200 300 l 1
 150 300 l 1
 100 300 l 1
 100 400 l 1
 0 400 l 1
 0 450 l 1
 400 450 l 1
50 200 m 1
 50 50 l 1
 300 50 l 1
 300 400 l 1
 250 400 l 1
 250 200 l 1
 50 200 l 1
150 400 m 1
 150 350 l 1
 200 350 l 1
 200 400 l 1
 150 400 l 1
EndSplineSet
Validated: 1
Substitution2: "Single Substitution lookup 8-1" sh_halant
AlternateSubs2: "'aalt' Access All Alternates lookup 3-1" sh_halant
EndChar

StartChar: SS_A
Encoding: 3255 3255 147
Width: 500
HStem: 0 50<50 200 250 300 350 400> 100 50<50 100> 200 50<50 100 350 400> 300 50<250 300> 400 50<0 200 250 300 350 400>
VStem: 0 50<50 100 150 200> 100 50<150 200> 200 50<50 150 350 400> 300 50<-100 0 50 200 350 400> 400 50<50 200 450 550>
LayerCount: 2
Fore
SplineSet
100 250 m 1
 150 250 l 1
 150 150 l 1
 150 100 l 1
 50 100 l 1
 50 50 l 1
 200 50 l 1
 200 150 l 1
 250 150 l 1
 250 50 l 1
 300 50 l 1
 300 250 l 1
 400 250 l 1
 450 250 l 1
 450 35 l 1
 450 0 l 1
 350 0 l 1
 350 -100 l 1
 300 -100 l 1
 300 0 l 1
 25 0 l 1
 0 0 l 1
 0 217 l 1
 0 250 l 1
 100 250 l 1
350 200 m 1
 350 50 l 1
 400 50 l 1
 400 200 l 1
 350 200 l 1
50 200 m 1
 50 150 l 1
 100 150 l 1
 100 200 l 1
 50 200 l 1
400 450 m 1
 400 550 l 1
 450 550 l 1
 450 429 l 1
 450 400 l 1
 350 400 l 1
 350 300 l 1
 250 300 l 1
 200 300 l 1
 200 400 l 1
 0 400 l 1
 0 450 l 1
 400 450 l 1
250 400 m 1
 250 350 l 1
 300 350 l 1
 300 400 l 1
 250 400 l 1
EndSplineSet
Validated: 1
Substitution2: "Single Substitution lookup 8-1" ss_halant
AlternateSubs2: "'aalt' Access All Alternates lookup 3-1" ss_halant
EndChar

StartChar: S_A
Encoding: 3256 3256 148
Width: 500
HStem: 0 50<250 400> 200 50<50 200> 300 50<250 300> 400 50<0 200 250 300 350 400>
VStem: 0 50<0 200> 200 50<50 200 350 400> 300 50<350 400> 400 50<50 250 450 550>
LayerCount: 2
Fore
SplineSet
0 250 m 1
 250 250 l 1
 250 50 l 1
 400 50 l 1
 400 250 l 1
 450 250 l 1
 450 0 l 1
 200 0 l 1
 200 200 l 1
 50 200 l 1
 50 0 l 1
 0 0 l 1
 0 250 l 1
400 450 m 1
 400 550 l 1
 450 550 l 1
 450 400 l 1
 350 400 l 1
 350 300 l 1
 250 300 l 1
 200 300 l 1
 200 400 l 1
 0 400 l 1
 0 450 l 1
 200 450 l 1
 300 450 l 1
 350 450 l 1
 400 450 l 1
250 400 m 1
 250 350 l 1
 300 350 l 1
 300 400 l 1
 250 400 l 1
EndSplineSet
Validated: 1
Substitution2: "Single Substitution lookup 8-1" s_halant
AlternateSubs2: "'aalt' Access All Alternates lookup 3-1" s_halant
EndChar

StartChar: H_A
Encoding: 3257 3257 149
Width: 500
HStem: 0 50<50 200 250 400> 300 50<50 200 250 400> 400 50<0 200 250 400>
VStem: 0 50<50 300> 200 50<50 300 350 400> 400 50<50 300 450 550>
CounterMasks: 1 1c
LayerCount: 2
Fore
SplineSet
400 450 m 1
 400 550 l 1
 450 550 l 1
 450 400 l 1
 250 400 l 1
 250 350 l 1
 450 350 l 1
 450 300 l 1
 450 0 l 1
 0 0 l 1
 0 37 l 1
 0 350 l 1
 200 350 l 1
 200 400 l 1
 0 400 l 1
 0 450 l 1
 400 450 l 1
50 300 m 1
 50 50 l 1
 200 50 l 1
 200 300 l 1
 50 300 l 1
250 300 m 1
 250 50 l 1
 400 50 l 1
 400 300 l 1
 250 300 l 1
EndSplineSet
Validated: 1
Substitution2: "Single Substitution lookup 8-1" h_halant
AlternateSubs2: "'aalt' Access All Alternates lookup 3-1" h_halant
EndChar

StartChar: NUKTA_EXT
Encoding: 3260 3260 150
Width: 450
Flags: W
HStem: -200 50<50 100 350 400> -100 50<50 100 350 400>
VStem: 0 50<-150 -100> 100 50<-150 -100> 300 50<-150 -100> 400 50<-150 -100>
LayerCount: 2
Fore
SplineSet
100 -50 m 1
 150 -50 l 1
 150 -150 l 1
 150 -200 l 1
 50 -200 l 1
 0 -200 l 1
 0 -50 l 1
 100 -50 l 1
400 -50 m 1
 450 -50 l 1
 450 -150 l 1
 450 -200 l 1
 350 -200 l 1
 300 -200 l 1
 300 -50 l 1
 400 -50 l 1
50 -100 m 1
 50 -150 l 1
 100 -150 l 1
 100 -100 l 1
 50 -100 l 1
350 -100 m 1
 350 -150 l 1
 400 -150 l 1
 400 -100 l 1
 350 -100 l 1
EndSplineSet
Validated: 1
EndChar

StartChar: AVAGRAHA_EXT
Encoding: 3261 3261 151
Width: 600
Flags: W
HStem: 0 50<100 300> 200 50<50 300> 400 50<50 550>
VStem: 0 50<250 400> 300 50<50 200>
CounterMasks: 1 e0
LayerCount: 2
Fore
SplineSet
0 409 m 1
 0 450 l 1
 550 450 l 1
 550 400 l 1
 50 400 l 1
 50 250 l 1
 350 250 l 1
 350 0 l 1
 300 0 l 1
 100 0 l 1
 100 50 l 1
 300 50 l 1
 300 200 l 1
 0 200 l 1
 0 409 l 1
EndSplineSet
Validated: 1
EndChar

StartChar: MATRA_AA
Encoding: 3262 3262 152
Width: 600
HStem: 0 50<100 150> 100 50<100 150> 300 50<0 150>
VStem: 50 50<50 100> 150 50<50 100 150 300>
LayerCount: 2
Fore
SplineSet
200 0 m 1
 167 0 l 1
 50 0 l 1
 50 150 l 1
 150 150 l 1
 150 300 l 1
 0 300 l 1
 0 350 l 1
 200 350 l 1
 200 0 l 1
150 100 m 1
 100 100 l 1
 100 50 l 1
 150 50 l 1
 150 100 l 1
EndSplineSet
Validated: 1
EndChar

StartChar: MATRA_I
Encoding: 3263 3263 153
Width: 600
HStem: 400 50<200 250> 500 50<200 250>
VStem: 150 50<450 500> 250 50<450 500>
LayerCount: 2
Fore
SplineSet
261 550 m 1
 300 550 l 1
 300 400 l 1
 275 400 l 1
 150 400 l 1
 150 550 l 1
 261 550 l 1
250 500 m 1
 200 500 l 1
 200 450 l 1
 250 450 l 1
 250 500 l 1
EndSplineSet
Validated: 1
EndChar

StartChar: MATRA_II
Encoding: 3264 3264 154
Width: 600
Flags: W
HStem: 124 50<500 600> 324 50<500 550> 424 50<500 550> 524 50<100 150> 624 50<100 150>
VStem: 50 50<574 624> 150 50<574 624> 450 50<174 324 374 424> 550 50<374 424>
LayerCount: 2
Fore
SplineSet
600 324 m 1
 500 324 l 1
 500 174 l 1
 600 174 l 1
 600 124 l 1
 491 124 l 1
 450 124 l 1
 450 474 l 1
 600 474 l 1
 600 324 l 1
500 424 m 1
 500 374 l 1
 550 374 l 1
 550 424 l 1
 500 424 l 1
200 524 m 1
 50 524 l 1
 50 674 l 1
 200 674 l 1
 200 524 l 1
100 624 m 1
 100 574 l 1
 150 574 l 1
 150 624 l 1
 100 624 l 1
EndSplineSet
Validated: 1
EndChar

StartChar: MATRA_U
Encoding: 3265 3265 155
Width: 250
Flags: W
HStem: 0 50<0 150> 330 20G<150 200>
VStem: 150 50<50 350>
LayerCount: 2
Fore
SplineSet
150 50 m 1
 150 350 l 1
 200 350 l 1
 200 0 l 1
 0 0 l 1
 0 50 l 1
 150 50 l 1
EndSplineSet
Validated: 1
EndChar

StartChar: MATRA_UU
Encoding: 3266 3266 156
Width: 450
Flags: W
HStem: 0 50<0 150> 300 50<200 350>
VStem: 150 50<50 300> 350 50<0 300>
LayerCount: 2
Fore
SplineSet
399 350 m 1
 400 0 l 1
 350 0 l 1
 350 300 l 1
 200 300 l 1
 200 0 l 1
 0 0 l 1
 0 50 l 1
 150 50 l 1
 150 350 l 1
 399 350 l 1
EndSplineSet
EndChar

StartChar: MATRA_R
Encoding: 3267 3267 157
Width: 100
Flags: W
HStem: -200 50<-50 0> -100 50<-50 0>
VStem: -100 50<-150 -100> 0 50<-150 -100 -50 50>
LayerCount: 2
Fore
SplineSet
0 -50 m 1
 0 50 l 1
 50 50 l 1
 50 -200 l 1
 -100 -200 l 1
 -100 -50 l 1
 0 -50 l 1
-50 -100 m 1
 -50 -150 l 1
 0 -150 l 1
 0 -100 l 1
 -50 -100 l 1
EndSplineSet
EndChar

StartChar: MATRA_RR
Encoding: 3268 3268 158
Width: 300
Flags: W
HStem: -200 50<50 100> -100 50<50 100> 0 50<150 200> 100 50<150 200>
VStem: 0 50<-150 -100> 100 50<-150 -100 -50 0 50 100> 200 50<50 100>
CounterMasks: 1 0e
LayerCount: 2
Fore
SplineSet
100 -50 m 1
 100 150 l 1
 250 150 l 1
 250 0 l 1
 150 0 l 1
 150 -200 l 1
 0 -200 l 1
 0 -50 l 1
 100 -50 l 1
50 -100 m 1
 50 -150 l 1
 100 -150 l 1
 100 -100 l 1
 50 -100 l 1
150 100 m 1
 150 50 l 1
 200 50 l 1
 200 100 l 1
 150 100 l 1
EndSplineSet
Validated: 1
EndChar

StartChar: MATRA_E
Encoding: 3270 3270 159
Width: 300
HStem: 500 50<0 100 150 200> 600 50<150 200>
VStem: 100 50<550 600> 200 50<550 600>
LayerCount: 2
Fore
SplineSet
100 550 m 1
 100 650 l 1
 250 650 l 1
 250 550 l 1
 250 500 l 1
 0 500 l 1
 0 550 l 1
 100 550 l 1
150 600 m 1
 150 550 l 1
 200 550 l 1
 200 600 l 1
 150 600 l 1
EndSplineSet
Validated: 1
EndChar

StartChar: MATRA_EE
Encoding: 3271 3271 160
Width: 500
Flags: W
HStem: 0 50<350 450> 200 50<350 400> 300 50<350 400> 400 50<0 100 150 200> 500 50<150 200>
VStem: 100 50<450 500> 200 50<450 500> 300 50<50 200 250 300> 400 50<250 300>
LayerCount: 2
Fore
SplineSet
450 200 m 1
 350 200 l 1
 350 50 l 1
 450 50 l 1
 450 0 l 1
 300 0 l 1
 300 300 l 1
 350 300 l 1
 350 250 l 1
 400 250 l 1
 400 300 l 1
 300 300 l 1
 300 350 l 1
 450 350 l 1
 450 200 l 1
250 400 m 1
 0 400 l 1
 0 450 l 1
 100 450 l 1
 100 550 l 1
 250 550 l 1
 250 549.990234375 l 1
 250 400 l 1
150 500 m 1
 150 450 l 1
 200 450 l 1
 200 500 l 1
 150 500 l 1
EndSplineSet
Validated: 5
EndChar

StartChar: MATRA_AI
Encoding: 3272 3272 161
Width: 50
Flags: W
HStem: -200 50<-250 -200 -150 0> -100 50<-250 -200> -50 50<-100 0>
VStem: -300 50<-150 -100> -200 50<-150 -100> 0 50<-150 -50 0 50>
LayerCount: 2
Fore
SplineSet
0 0 m 1xbc
 0 50 l 1
 50 50 l 1
 50 -200 l 1
 -150 -200 l 1
 -300 -200 l 1
 -300 -50 l 1
 -150 -50 l 1
 -150 -150 l 1
 0 -150 l 1
 0 -50 l 1
 -100 -50 l 1
 -100 0 l 1
 0 0 l 1xbc
-250 -100 m 1xdc
 -250 -150 l 1
 -200 -150 l 1
 -200 -100 l 1
 -250 -100 l 1xdc
EndSplineSet
EndChar

StartChar: MATRA_O
Encoding: 3274 3274 162
Width: 600
Flags: W
HStem: 0 50<150 300> 300 50<350 500> 400 50<0 100 150 200> 500 50<150 200>
VStem: 100 50<450 500> 200 50<450 500> 300 50<50 300> 500 50<0 300>
LayerCount: 2
Fore
SplineSet
350 50 m 1
 350 0 l 1
 150 0 l 1
 150 50 l 1
 350 50 l 1
300 350 m 1
 500 350 l 1
 550 350 l 1
 550 0 l 1
 500 0 l 1
 500 300 l 1
 350 300 l 1
 350 50 l 1
 300 50 l 1
 300 350 l 1
0 400 m 1
 0 450 l 1
 100 450 l 1
 100 550 l 1
 250 550 l 1
 250 400 l 1
 0 400 l 1
150 500 m 1
 150 450 l 1
 200 450 l 1
 200 500 l 1
 150 500 l 1
EndSplineSet
EndChar

StartChar: MATRA_OO
Encoding: 3275 3275 163
Width: 800
Flags: W
HStem: 0 50<150 300 650 750> 200 50<650 700> 300 50<350 500 650 700> 400 50<0 100 150 200> 500 50<150 200>
VStem: 100 50<450 500> 200 50<450 500> 300 50<50 300> 500 50<0 300> 600 50<50 200 250 300> 700 50<250 300>
LayerCount: 2
Fore
SplineSet
750 200 m 1
 650 200 l 1
 650 50 l 1
 750 50 l 1
 750 0 l 1
 600 0 l 1
 600 350 l 1
 750 350 l 1
 750 200 l 1
350 50 m 1
 350 0 l 1
 150 0 l 1
 150 50 l 1
 350 50 l 1
500 350 m 1
 550 350 l 1
 550 0 l 1
 500 0 l 1
 500 300 l 1
 350 300 l 1
 350 50 l 1
 300 50 l 1
 300 350 l 1
 500 350 l 1
650 300 m 1
 650 250 l 1
 700 250 l 1
 700 300 l 1
 650 300 l 1
0 400 m 1
 0 450 l 1
 100 450 l 1
 100 550 l 1
 250 550 l 1
 250 400 l 1
 0 400 l 1
150 500 m 1
 150 450 l 1
 200 450 l 1
 200 500 l 1
 150 500 l 1
EndSplineSet
Validated: 5
EndChar

StartChar: MATRA_AU
Encoding: 3276 3276 164
Width: 800
HStem: 200 50<200 250> 300 50<200 250> 400 100<150 200> 400 50<100 150> 500 50<0 250>
VStem: 100 100<400 450> 150 50<250 300 450 500> 250 50<250 300 350 500>
LayerCount: 2
Fore
SplineSet
300 200 m 1xcb
 150 200 l 1
 150 350 l 1
 250 350 l 1
 250 500 l 1
 0 500 l 1
 0 550 l 1
 300 550 l 1
 300 500 l 1
 250 500 l 1
 300 500 l 1
 300 350 l 1
 300 200 l 1xcb
200 300 m 1
 200 250 l 1
 250 250 l 1
 250 300 l 1
 200 300 l 1
150 450 m 1xd3
 150 500 l 1
 200 500 l 1xe3
 200 400 l 1xe5
 100 400 l 1
 100 450 l 1xd5
 150 450 l 1xd3
EndSplineSet
Validated: 5
EndChar

StartChar: HALANT
Encoding: 3277 3277 165
Width: 300
Flags: W
HStem: 400 50<150 200> 500 50<0 100 150 200> 600 50<150 250>
VStem: 100 50<450 500 550 600> 200 50<450 500>
CounterMasks: 1 e0
LayerCount: 2
Fore
SplineSet
250 650 m 1
 250 600 l 1
 150 600 l 1
 150 550 l 1
 250 550 l 1
 250 400 l 1
 100 400 l 1
 100 500 l 1
 0 500 l 1
 0 550 l 1
 100 550 l 1
 100 650 l 1
 250 650 l 1
150 500 m 1
 150 450 l 1
 200 450 l 1
 200 500 l 1
 150 500 l 1
EndSplineSet
Validated: 1
EndChar

StartChar: LENGTHMARK
Encoding: 3285 3285 166
Width: 200
Flags: W
HStem: 0 50<50 150> 299 50<50 100> 399 50<50 100>
VStem: 0 50<50 299 349 399> 100 50<349 399>
LayerCount: 2
Fore
SplineSet
0 414 m 1
 0 449 l 1
 120 449 l 1
 150 449 l 1
 150 299 l 1
 50 299 l 1
 50 50 l 1
 150 50 l 1
 150 0 l 1
 0 0 l 1
 0 414 l 1
100 399 m 1
 50 399 l 1
 50 349 l 1
 100 349 l 1
 100 399 l 1
EndSplineSet
Validated: 1
EndChar

StartChar: AILENGTHMARK
Encoding: 3286 3286 167
Width: 100
Flags: W
HStem: -200 50<-250 -200 -150 0> -100 50<-250 -200> -50 50<-100 0>
VStem: -300 50<-150 -100> -200 50<-150 -100> 0 50<-150 -50 0 50>
LayerCount: 2
Fore
SplineSet
0 0 m 1xbc
 0 50 l 1
 50 50 l 1
 50 -200 l 1
 -300 -200 l 1
 -300 -50 l 1
 -150 -50 l 1
 -150 -150 l 1
 0 -150 l 1
 0 -50 l 1
 -100 -50 l 1
 -100 0 l 1
 0 0 l 1xbc
-250 -100 m 1xdc
 -250 -150 l 1
 -200 -150 l 1
 -200 -100 l 1
 -250 -100 l 1xdc
EndSplineSet
EndChar

StartChar: FA
Encoding: 3294 3294 168
Width: 500
Flags: W
HStem: 0 50<50 200 250 400> 300 50<50 100 350 400> 400 50<50 100 350 400>
VStem: 0 50<50 300 350 400> 100 50<350 400> 200 50<50 150> 300 50<350 400> 400 50<50 300 350 400>
LayerCount: 2
Fore
SplineSet
425 0 m 1
 25 0 l 1
 0 0 l 1
 0 325 l 1
 0 450 l 1
 50 450 l 1
 100 450 l 1
 150 450 l 1
 150 300 l 1
 50 300 l 1
 50 50 l 1
 200 50 l 1
 200 150 l 1
 250 150 l 1
 250 50 l 1
 400 50 l 1
 400 300 l 1
 300 300 l 1
 300 450 l 1
 350 450 l 1
 400 450 l 1
 450 450 l 1
 450 0 l 1
 425 0 l 1
350 400 m 1
 350 350 l 1
 400 350 l 1
 400 400 l 1
 350 400 l 1
50 400 m 1
 50 350 l 1
 100 350 l 1
 100 400 l 1
 50 400 l 1
EndSplineSet
Validated: 1
EndChar

StartChar: SWARA_RR
Encoding: 3296 3296 169
Width: 900
Flags: W
HStem: 0 50<50 100 150 200 250 400 450 600 750 800> 100 50<50 100 750 800> 200 50<100 200> 300 50<50 100 650 800> 400 50<50 100 150 200 300 400 450 500>
VStem: 0 50<50 100 350 400> 100 50<50 100 350 400> 200 50<50 200 250 400> 400 50<50 400> 500 50<450 550> 600 50<50 300> 700 50<50 100> 800 50<50 100 150 300>
LayerCount: 2
Fore
SplineSet
800 0 m 1
 700 0 l 1
 700 150 l 1
 750 150 l 1
 800 150 l 1
 800 300 l 1
 650 300 l 1
 650 0 l 1
 0 0 l 1
 0 150 l 1
 150 150 l 1
 150 50 l 1
 200 50 l 1
 200 200 l 1
 100 200 l 1
 100 250 l 1
 200 250 l 1
 200 400 l 1
 150 400 l 1
 150 300 l 1
 0 300 l 1
 0 450 l 1
 250 450 l 1
 250 50 l 1
 400 50 l 1
 400 400 l 1
 300 400 l 1
 300 450 l 1
 500 450 l 1
 500 550 l 1
 550 550 l 1
 550 400 l 1
 450 400 l 1
 450 50 l 1
 600 50 l 1
 600 350 l 1
 800 350 l 1
 850 350 l 1
 850 0 l 1
 800 0 l 1
750 100 m 1
 750 50 l 1
 800 50 l 1
 800 100 l 1
 750 100 l 1
50 100 m 1
 50 50 l 1
 100 50 l 1
 100 100 l 1
 50 100 l 1
50 400 m 1
 50 350 l 1
 100 350 l 1
 100 400 l 1
 50 400 l 1
EndSplineSet
Validated: 1
EndChar

StartChar: LLL
Encoding: 3297 3297 170
Width: 600
Flags: W
HStem: 0 50<250 300 450 500> 100 50<350 400 450 500> 200 50<50 100 250 400> 300 50<50 100> 400 50<50 200 250 400>
VStem: 0 50<250 300 350 400> 100 50<250 300> 200 50<50 200 300 400> 300 50<50 100> 400 50<50 100 250 400> 500 50<50 100>
LayerCount: 2
Fore
SplineSet
450 450 m 1
 450 250 l 1
 450 200 l 1
 250 200 l 1
 250 50 l 1
 300 50 l 1
 300 150 l 1
 350 150 l 1
 400 150 l 1
 450 150 l 1
 500 150 l 1
 550 150 l 1
 550 0 l 1
 500 0 l 1
 400 0 l 1
 400 100 l 1
 350 100 l 1
 350 0 l 1
 200 0 l 1
 200 250 l 1
 400 250 l 1
 400 400 l 1
 250 400 l 1
 250 300 l 1
 200 300 l 1
 200 400 l 1
 50 400 l 1
 50 350 l 1
 100 350 l 1
 150 350 l 1
 150 200 l 1
 100 200 l 1
 0 200 l 1
 0 450 l 1
 450 450 l 1
450 100 m 1
 450 50 l 1
 500 50 l 1
 500 100 l 1
 450 100 l 1
50 300 m 1
 50 250 l 1
 100 250 l 1
 100 300 l 1
 50 300 l 1
EndSplineSet
Validated: 1
EndChar

StartChar: OTTU_LLL
Encoding: 3298 3298 171
Width: 400
Flags: W
HStem: -200 50<250 350> -100 50<50 100 150 200>
VStem: 0 50<-200 -100> 100 50<-200 -100> 200 50<-150 -100>
CounterMasks: 1 38
LayerCount: 2
Fore
SplineSet
200 -200 m 1
 200 -100 l 1
 150 -100 l 1
 150 -200 l 1
 100 -200 l 1
 100 -100 l 1
 50 -100 l 1
 50 -200 l 1
 0 -200 l 1
 0 -50 l 1
 216 -50 l 1
 250 -50 l 1
 250 -150 l 1
 350 -150 l 1
 350 -200 l 1
 200 -200 l 1
EndSplineSet
Validated: 1
EndChar

StartChar: OTTU_LLLL
Encoding: 3299 3299 172
Width: 400
HStem: -350 50<250 350> -200 50<250 350> -100 50<50 100 150 200>
VStem: 0 50<-200 -100> 100 50<-200 -100> 200 150<-350 -300 -200 -150> 200 50<-300 -200 -150 -100>
LayerCount: 2
Fore
SplineSet
216 -50 m 1xfa
 250 -50 l 1
 250 -150 l 1xfa
 350 -150 l 1
 350 -200 l 1xfc
 250 -200 l 1
 250 -300 l 1xfa
 350 -300 l 1
 350 -350 l 1
 237 -350 l 1
 200 -350 l 1xfc
 200 -100 l 1
 150 -100 l 1
 150 -200 l 1
 100 -200 l 1
 100 -100 l 1
 50 -100 l 1
 50 -200 l 1
 0 -200 l 1
 0 -50 l 1
 216 -50 l 1xfa
EndSplineSet
Validated: 1
EndChar

StartChar: ZEROKAN
Encoding: 3302 3302 173
Width: 500
Flags: W
HStem: 0 50<50 400> 400 50<50 400>
VStem: 0 50<50 400> 400 50<50 400>
LayerCount: 2
Fore
SplineSet
400 450 m 1
 450 450 l 1
 450 25 l 1
 450 0 l 1
 50 0 l 1
 0 0 l 1
 0 425 l 1
 0 450 l 1
 400 450 l 1
400 400 m 1
 50 400 l 1
 50 50 l 1
 400 50 l 1
 400 400 l 1
EndSplineSet
Validated: 1
EndChar

StartChar: ONEKAN
Encoding: 3303 3303 174
Width: 500
HStem: 0 50<50 100> 100 50<50 100> 400 50<50 400>
VStem: 0 50<50 100 150 400> 100 50<50 100> 400 50<0 400>
LayerCount: 2
Fore
SplineSet
0 400 m 1
 0 450 l 1
 424 450 l 1
 450 450 l 1
 450 0 l 1
 400 0 l 1
 400 400 l 1
 50 400 l 1
 50 150 l 1
 100 150 l 1
 150 150 l 1
 150 0 l 1
 3.6796875 0 l 1
 0 0 l 1
 0 100 l 1
 0 150 l 1
 0 400 l 1
50 100 m 1
 50 50 l 1
 100 50 l 1
 100 100 l 1
 50 100 l 1
EndSplineSet
Validated: 1
EndChar

StartChar: TWOKAN
Encoding: 3304 3304 175
Width: 500
HStem: 0 50<0 400> 100 50<350 400> 200 50<350 400>
VStem: 300 50<150 200> 400 50<50 100 150 200>
CounterMasks: 1 e0
LayerCount: 2
Fore
SplineSet
300 250 m 1
 350 250 l 1
 400 250 l 1
 450 250 l 1
 450 0 l 1
 425 0 l 1
 0 0 l 1
 0 50 l 1
 400 50 l 1
 400 100 l 1
 300 100 l 1
 300 250 l 1
350 200 m 1
 350 150 l 1
 400 150 l 1
 400 200 l 1
 350 200 l 1
EndSplineSet
Validated: 1
EndChar

StartChar: THREEKAN
Encoding: 3305 3305 176
Width: 500
HStem: 0 50<50 200> 100 50<50 200 250 450> 300 50<50 100> 400 50<50 100 150 200>
VStem: 0 50<50 100 350 400> 100 50<350 400> 200 50<50 100 150 400>
CounterMasks: 1 0e
LayerCount: 2
Fore
SplineSet
100 450 m 1
 250 450 l 1
 250 150 l 1
 450 150 l 1
 450 100 l 1
 250 100 l 1
 250 0 l 1
 200 0 l 1
 50 0 l 1
 0 0 l 1
 0 150 l 1
 200 150 l 1
 200 400 l 1
 150 400 l 1
 150 300 l 1
 100 300 l 1
 0 300 l 1
 0 450 l 1
 100 450 l 1
50 100 m 1
 50 50 l 1
 200 50 l 1
 200 100 l 1
 50 100 l 1
50 400 m 1
 50 350 l 1
 100 350 l 1
 100 400 l 1
 50 400 l 1
EndSplineSet
Validated: 1
EndChar

StartChar: FOURKAN
Encoding: 3306 3306 177
Width: 500
HStem: 0 50<150 300> 200 50<50 100 150 300 350 400> 300 50<50 100> 400 50<50 100>
VStem: 0 50<250 300 350 400> 100 50<50 200 350 400> 300 50<50 200> 400 50<250 450>
LayerCount: 2
Fore
SplineSet
0 200 m 1
 0 450 l 1
 50 450 l 1
 100 450 l 1
 150 450 l 1
 150 300 l 1
 50 300 l 1
 50 250 l 1
 400 250 l 1
 400 450 l 1
 450 450 l 1
 450 225 l 1
 450 200 l 1
 350 200 l 1
 350 0 l 1
 100 0 l 1
 100 200 l 1
 0 200 l 1
150 200 m 1
 150 50 l 1
 300 50 l 1
 300 200 l 1
 150 200 l 1
50 400 m 1
 50 350 l 1
 100 350 l 1
 100 400 l 1
 50 400 l 1
EndSplineSet
Validated: 1
EndChar

StartChar: FIVEKAN
Encoding: 3307 3307 178
Width: 500
HStem: 0 50<50 200> 100 50<50 200 250 300 350 400> 300 50<50 100> 400 50<50 100 150 200 350 400>
VStem: 0 50<50 100 350 400> 100 50<350 400> 200 50<50 100 150 400> 300 50<0 100 150 400> 400 50<150 400>
LayerCount: 2
Fore
SplineSet
250 0 m 1
 200 0 l 1
 0 0 l 1
 0 150 l 1
 50 150 l 1
 200 150 l 1
 200 400 l 1
 150 400 l 1
 150 300 l 1
 100 300 l 1
 0 300 l 1
 0 450 l 1
 50 450 l 1
 100 450 l 1
 150 450 l 1
 200 450 l 1
 250 450 l 1
 250 150 l 1
 300 150 l 1
 300 450 l 1
 350 450 l 1
 400 450 l 1
 450 450 l 1
 450 100 l 1
 350 100 l 1
 350 0 l 1
 300 0 l 1
 300 100 l 1
 250 100 l 1
 250 0 l 1
200 100 m 1
 50 100 l 1
 50 50 l 1
 200 50 l 1
 200 100 l 1
350 400 m 1
 350 150 l 1
 400 150 l 1
 400 400 l 1
 350 400 l 1
50 400 m 1
 50 350 l 1
 100 350 l 1
 100 400 l 1
 50 400 l 1
EndSplineSet
Validated: 1
EndChar

StartChar: SIXKAN
Encoding: 3308 3308 179
Width: 500
HStem: 0 50<50 450> 200 50<50 150> 300 50<50 100> 400 50<50 100>
VStem: 0 50<50 200 250 300 350 400> 100 50<350 400>
LayerCount: 2
Fore
SplineSet
50 250 m 1
 150 250 l 1
 150 200 l 1
 50 200 l 1
 50 50 l 1
 450 50 l 1
 450 0 l 1
 33 0 l 1
 0 0 l 1
 0 450 l 1
 50 450 l 1
 100 450 l 1
 150 450 l 1
 150 300 l 1
 50 300 l 1
 50 250 l 1
50 400 m 1
 50 350 l 1
 100 350 l 1
 100 400 l 1
 50 400 l 1
EndSplineSet
Validated: 1
EndChar

StartChar: SEVENKAN
Encoding: 3309 3309 180
Width: 500
HStem: 0 50<50 450> 200 50<50 200> 300 50<50 100> 400 50<50 100 150 200>
VStem: 0 50<50 200 350 400> 100 50<350 400> 200 50<250 400>
CounterMasks: 1 0e
LayerCount: 2
Fore
SplineSet
0 450 m 1
 250 450 l 1
 250 200 l 1
 50 200 l 1
 50 50 l 1
 450 50 l 1
 450 0 l 1
 50 0 l 1
 0 0 l 1
 0 250 l 1
 200 250 l 1
 200 400 l 1
 150 400 l 1
 150 300 l 1
 100 300 l 1
 0 300 l 1
 0 450 l 1
50 400 m 1
 50 350 l 1
 100 350 l 1
 100 400 l 1
 50 400 l 1
EndSplineSet
Validated: 1
EndChar

StartChar: EIGHTKAN
Encoding: 3310 3310 181
Width: 500
HStem: 0 50<50 300> 300 50<50 100 250 300> 400 50<50 100 250 450>
VStem: 0 50<50 300 350 400> 100 50<350 400> 200 50<350 400> 300 50<50 300>
LayerCount: 2
Fore
SplineSet
0 450 m 1
 50 450 l 1
 100 450 l 1
 150 450 l 1
 150 300 l 1
 50 300 l 1
 50 50 l 1
 300 50 l 1
 300 300 l 1
 200 300 l 1
 200 450 l 1
 250 450 l 1
 450 450 l 1
 450 400 l 1
 250 400 l 1
 250 350 l 1
 350 350 l 1
 350 316.640625 l 1
 350 33 l 1
 350 0 l 1
 0 0 l 1
 0 450 l 1
50 400 m 1
 50 350 l 1
 100 350 l 1
 100 400 l 1
 50 400 l 1
EndSplineSet
Validated: 1
EndChar

StartChar: NINEKAN
Encoding: 3311 3311 182
Width: 500
HStem: 0 50<50 100> 100 50<50 100> 200 50<50 150.5> 400 50<50 450>
VStem: 0 50<50 100 150 200 250 400> 100 50<50 100>
LayerCount: 2
Fore
SplineSet
33 450 m 1
 450 450 l 1
 450 400 l 1
 50 400 l 1
 50 250 l 1
 150.5 250 l 1
 150.5 200 l 1
 50 200 l 1
 50 150 l 1
 150 150 l 1
 150 0 l 1
 100 0 l 1
 50 0 l 1
 0 0 l 1
 0 450 l 1
 33 450 l 1
50 100 m 1
 50 50 l 1
 100 50 l 1
 100 100 l 1
 50 100 l 1
EndSplineSet
Validated: 1
EndChar

StartChar: JIHVAMULIYA
Encoding: 3313 3313 183
Width: 600
Flags: W
HStem: 0 50<0 100 150 400 450 550> 100 50<150 200 350 400> 200 50<250 300> 300 50<150 200 350 400> 400 50<0 100 150 400 450 550>
VStem: 100 50<50 100 350 400> 200 50<150 200 250 300> 300 50<150 200 250 300> 400 50<50 100 350 400>
LayerCount: 2
Fore
SplineSet
400 300 m 1
 350 300 l 1
 350 150 l 1
 400 150 l 1
 450 150 l 1
 450 50 l 1
 550 50 l 1
 550 0 l 1
 0 0 l 1
 0 50 l 1
 100 50 l 1
 100 150 l 1
 150 150 l 1
 200 150 l 1
 200 300 l 1
 150 300 l 1
 100 300 l 1
 100 400 l 1
 0 400 l 1
 0 450 l 1
 550 450 l 1
 550 400 l 1
 450 400 l 1
 450 300 l 1
 400 300 l 1
300 200 m 1
 250 200 l 1
 250 100 l 1
 150 100 l 1
 150 50 l 1
 400 50 l 1
 400 100 l 1
 300 100 l 1
 300 200 l 1
400 350 m 1
 400 400 l 1
 150 400 l 1
 150 350 l 1
 250 350 l 1
 250 250 l 1
 300 250 l 1
 300 350 l 1
 400 350 l 1
EndSplineSet
Validated: 1
EndChar

StartChar: UPADHMANIYA
Encoding: 3314 3314 184
Width: 600
HStem: 400 50<50 100 350 400> 500 50<50 100 350 400>
VStem: 0 50<450 500> 100 50<450 500> 300 50<450 500> 400 50<450 500>
LayerCount: 2
Fore
SplineSet
0 550 m 1
 50 550 l 1
 100 550 l 1
 150 550 l 1
 150 400 l 1
 100 400 l 1
 0 400 l 1
 0 550 l 1
300 550 m 1
 350 550 l 1
 400 550 l 1
 450 550 l 1
 450 400 l 1
 400 400 l 1
 300 400 l 1
 300 550 l 1
100 500 m 1
 50 500 l 1
 50 450 l 1
 100 450 l 1
 100 500 l 1
350 500 m 1
 350 450 l 1
 400 450 l 1
 400 500 l 1
 350 500 l 1
EndSplineSet
Validated: 1
EndChar

StartChar: kabelow
Encoding: 1114112 -1 185
Width: 50
Flags: W
HStem: -300 50<-150 0> -200 50<-150 -100 -50 0>
VStem: -200 50<-250 -200> -100 50<-150 -50> 0 50<-250 -200>
CounterMasks: 1 38
LayerCount: 2
Fore
SplineSet
-100 -150 m 1
 -100 -50 l 1
 -50 -50 l 1
 -50 -150 l 1
 50 -150 l 1
 50 -300 l 1
 -175 -300 l 1
 -200 -300 l 1
 -200 -150 l 1
 -100 -150 l 1
-150 -200 m 1
 -150 -250 l 1
 0 -250 l 1
 0 -200 l 1
 -150 -200 l 1
EndSplineSet
Substitution2: "Single Substitution lookup 16-1" ootk
Substitution2: "Single Substitution lookup 15-1" ootk
LCarets2: 1 0
Ligature2: "'blwf' Below Base Forms lookup kf 6-1" K_A HALANT
Ligature2: "'blwf' Below Base Forms lookup fk 5-1" HALANT K_A
EndChar

StartChar: khabelow
Encoding: 1114113 -1 186
Width: 50
Flags: W
HStem: -300 50<-150 -100> -200 50<-150 -100 -50 0> -100 50<-200 -100>
VStem: -200 50<-250 -200> -100 50<-250 -200 -150 -100> 0 50<-150 -50>
CounterMasks: 1 fc
LayerCount: 2
Fore
SplineSet
-100 -150 m 1
 -100 -100 l 1
 -200 -100 l 1
 -200 -50 l 1
 -75 -50 l 1
 -50 -50 l 1
 -50 -150 l 1
 0 -150 l 1
 0 -50 l 1
 50 -50 l 1
 50 -200 l 1
 -50 -200 l 1
 -50 -300 l 1
 -85 -300 l 1
 -200 -300 l 1
 -200 -150 l 1
 -100 -150 l 1
-150 -200 m 1
 -150 -250 l 1
 -100 -250 l 1
 -100 -200 l 1
 -150 -200 l 1
EndSplineSet
Substitution2: "Single Substitution lookup 16-1" ootkh
Substitution2: "Single Substitution lookup 15-1" ootkh
LCarets2: 1 0
Ligature2: "'blwf' Below Base Forms lookup kf 6-1" KH_A HALANT
Ligature2: "'blwf' Below Base Forms lookup fk 5-1" HALANT KH_A
EndChar

StartChar: gabelow
Encoding: 1114114 -1 187
Width: 50
Flags: W
HStem: -100 50<-150 0>
VStem: -200 50<-300 -100> 0 50<-300 -100>
LayerCount: 2
Fore
SplineSet
50 -300 m 1
 0 -300 l 1
 0 -100 l 1
 -150 -100 l 1
 -150 -300 l 1
 -200 -300 l 1
 -200 -75 l 1
 -200 -50 l 1
 50 -50 l 1
 50 -300 l 1
EndSplineSet
Substitution2: "Single Substitution lookup 16-1" ootg
Substitution2: "Single Substitution lookup 15-1" ootg
LCarets2: 1 0
Ligature2: "'blwf' Below Base Forms lookup kf 6-1" G_A HALANT
Ligature2: "'blwf' Below Base Forms lookup fk 5-1" HALANT G_A
EndChar

StartChar: ghabelow
Encoding: 1114115 -1 188
Width: 50
Flags: W
HStem: -300 50<-150 -100 -50 0> -200 50<-150 -125 -25 0> -100 50<-100 -50>
VStem: -200 75<-200 -150> -200 50<-250 -200> -100 50<-350 -300 -250 -225 -100 -50> -25 75<-200 -150> 0 50<-250 -200 -150 -100>
CounterMasks: 1 e0
LayerCount: 2
Fore
SplineSet
-200 -150 m 1xf4
 -125 -150 l 1
 -125 -200 l 1xf4
 -150 -200 l 1
 -150 -250 l 1
 -100 -250 l 1
 -100 -225 l 1
 -50 -225 l 1
 -50 -250 l 1
 0 -250 l 1
 0 -200 l 1xed
 -25 -200 l 1
 -25 -150 l 1xe6
 0 -150 l 1
 0 -100 l 1
 50 -100 l 1
 50 -300 l 1
 -50 -300 l 1
 -50 -350 l 1
 -100 -350 l 1
 -100 -300 l 1
 -200 -300 l 1xed
 -200 -150 l 1xf4
-100 -50 m 1
 -50 -50 l 1
 -50 -100 l 1
 -100 -100 l 1
 -100 -50 l 1
EndSplineSet
Substitution2: "Single Substitution lookup 16-1" ootgh
Substitution2: "Single Substitution lookup 15-1" ootgh
LCarets2: 1 0
Ligature2: "'blwf' Below Base Forms lookup kf 6-1" GH_A HALANT
Ligature2: "'blwf' Below Base Forms lookup fk 5-1" HALANT GH_A
EndChar

StartChar: ngabelow
Encoding: 1114116 -1 189
Width: 50
Flags: W
HStem: -300 100<-75 -25 0 50> -300 50<-100 -75 -25 0> -150 50<-199.9 -150 -75 -25> -100 50<-100 -75>
VStem: -199.9 99.9004<-150 -100> -150 75<-100 -50> -150 50<-250 -150> -75 50<-250 -200 -150 -100> 0 50<-250 -200>
LayerCount: 2
Fore
SplineSet
-75 -100 m 1x2480
 -100 -100 l 1x1880
 -100 -250 l 1
 -75 -250 l 1x5380
 -75 -200 l 1
 -25 -200 l 1x8380
 -25 -250 l 1
 0 -250 l 1x4380
 0 -200 l 1
 50 -200 l 1
 50 -300 l 1x8380
 -150 -300 l 1
 -150 -150 l 1x6380
 -199.900390625 -150 l 1
 -199.900390625 -100 l 1x6880
 -150 -100 l 1x6480
 -150 -50 l 1
 -75 -50 l 1x1480
 -75 -100 l 1x2480
 -25 -100 l 1
 -25 -150 l 1
 -75 -150 l 1x2180
 -75 -100 l 1x2480
EndSplineSet
Substitution2: "Single Substitution lookup 16-1" ootng
Substitution2: "Single Substitution lookup 15-1" ootng
LCarets2: 1 0
Ligature2: "'blwf' Below Base Forms lookup kf 6-1" NG_A HALANT
Ligature2: "'blwf' Below Base Forms lookup fk 5-1" HALANT NG_A
EndChar

StartChar: cabelow
Encoding: 1114117 -1 190
Width: 50
Flags: W
HStem: -300 100<-75 -25> -300 50<-100 -75 -25 0> -175 50<-25 0> -100 50<-200 -150 -25 0>
VStem: -200 100<-100 -50> -150 50<-250 -100> -75 50<-250 -200> -25 75<-175 -125 -100 -50> 0 50<-250 -175 -125 -100>
LayerCount: 2
Fore
SplineSet
-100 -250 m 1x74
 -75 -250 l 1x76
 -75 -200 l 1
 -25 -200 l 1xb6
 -25 -250 l 1
 0 -250 l 1
 0 -175 l 1x7680
 -25 -175 l 1
 -25 -125 l 1x71
 0 -125 l 1
 0 -100 l 1x7080
 -25 -100 l 1
 -25 -50 l 1
 50 -50 l 1x71
 50 -300 l 1
 -125 -300 l 1
 -150 -300 l 1
 -150 -100 l 1x7480
 -200 -100 l 1
 -200 -50 l 1x78
 -150 -50 l 1x74
 -100 -50 l 1x78
 -100 -250 l 1x74
EndSplineSet
Substitution2: "Single Substitution lookup 16-1" ootc
Substitution2: "Single Substitution lookup 15-1" ootc
LCarets2: 1 0
Ligature2: "'blwf' Below Base Forms lookup kf 6-1" C_A HALANT
Ligature2: "'blwf' Below Base Forms lookup fk 5-1" HALANT C_A
EndChar

StartChar: chabelow
Encoding: 1114118 -1 191
Width: 50
Flags: W
HStem: -300 50<-150 -125 -75 -50> -220 20G<-125 -75> -100 50<-100 -50 0 50>
VStem: -200 50<-250 -100> -125 50<-350 -300 -250 -200> -50 50<-250 -100>
CounterMasks: 1 1c
LayerCount: 2
Fore
SplineSet
-33.2998046875 -50 m 1
 50 -50 l 1
 50 -100 l 1
 0 -100 l 1
 0 -280 l 1
 0 -300 l 1
 -75 -300 l 1
 -75 -350 l 1
 -125 -350 l 1
 -125 -300 l 1
 -200 -300 l 1
 -200 -100 l 1
 -150 -100 l 1
 -150 -250 l 1
 -125 -250 l 1
 -125 -200 l 1
 -75 -200 l 1
 -75 -250 l 1
 -50 -250 l 1
 -50 -100 l 1
 -100 -100 l 1
 -100 -50 l 1
 -50 -50 l 1
 -33.2998046875 -50 l 1
EndSplineSet
Substitution2: "Single Substitution lookup 16-1" ootch
Substitution2: "Single Substitution lookup 15-1" ootch
LCarets2: 1 0
Ligature2: "'blwf' Below Base Forms lookup kf 6-1" CH_A HALANT
Ligature2: "'blwf' Below Base Forms lookup fk 5-1" HALANT CH_A
EndChar

StartChar: jabelow
Encoding: 1114119 -1 192
Width: 50
Flags: W
HStem: -300 100<-75 -25 0 50> -300 50<-100 -75 -25 0> -150 50<-100 -50> -100 50<-200 -150>
VStem: -200 100<-100 -50> -150 50<-250 -150> -75 50<-250 -200> -50 50<-100 -50> 0 50<-250 -200>
LayerCount: 2
Fore
SplineSet
-150 -100 m 1x5680
 -200 -100 l 1
 -200 -50 l 1x58
 -150 -50 l 1x54
 -100 -50 l 1x58
 -100 -100 l 1
 -50 -100 l 1x29
 -50 -50 l 1
 0 -50 l 1x19
 0 -132 l 1
 0 -150 l 1
 -100 -150 l 1
 -100 -250 l 1
 -75 -250 l 1x6680
 -75 -200 l 1
 -25 -200 l 1x8680
 -25 -250 l 1
 0 -250 l 1x4680
 0 -200 l 1
 50 -200 l 1
 50 -300 l 1
 0 -300 l 1x8680
 -150 -300 l 1
 -150 -100 l 1x5680
EndSplineSet
Substitution2: "Single Substitution lookup 16-1" ootj
Substitution2: "Single Substitution lookup 15-1" ootj
LCarets2: 1 0
Ligature2: "'blwf' Below Base Forms lookup kf 6-1" J_A HALANT
Ligature2: "'blwf' Below Base Forms lookup fk 5-1" HALANT J_A
EndChar

StartChar: jhabelow
Encoding: 1114120 -1 193
Width: 50
Flags: W
HStem: -250 50<-199.9 -150 -100 -75 -25 0> -100.109 50.1094<-200.1 -150>
VStem: -250 50.0996<-199.99 -100.109> -150 50<-200 -100> -75 50<-300 -250 -200 -100> 0 50<-200 -100>
LayerCount: 2
Fore
SplineSet
-100 -50 m 1
 -100 -200 l 1
 -75 -200 l 1
 -75 -100 l 1
 -25 -100 l 1
 -25 -200 l 1
 0 -200 l 1
 0 -100 l 1
 50 -100 l 1
 50 -250 l 1
 -25 -250 l 1
 -25 -300 l 1
 -75 -300 l 1
 -75 -250 l 1
 -250 -250 l 1
 -250 -100 l 1
 -250 -50 l 1
 -100 -50 l 1
-150 -100 m 1
 -200.099609375 -100.109375 l 1
 -199.900390625 -199.990234375 l 1
 -150 -200 l 1
 -150 -100 l 1
EndSplineSet
Substitution2: "Single Substitution lookup 16-1" ootjh
Substitution2: "Single Substitution lookup 15-1" ootjh
LCarets2: 1 0
Ligature2: "'blwf' Below Base Forms lookup kf 6-1" JH_A HALANT
Ligature2: "'blwf' Below Base Forms lookup fk 5-1" HALANT JH_A
EndChar

StartChar: nyabelow
Encoding: 1114121 -1 194
Width: 50
Flags: W
HStem: -299 50<-123 -100> -224 50<-123 -100 -50 50> -150 100<-250 -200 -175 -125 0 50> -100 50<-200 -175 -125 -100 -50 0>
VStem: -250 50<-150 -100> -173 50<-249 -224 -150 -100> -100 50<-249 -224 -174 -100> 0 50<-150 -100>
LayerCount: 2
Fore
SplineSet
-250 -150 m 1xef
 -250 -50 l 1
 50 -50 l 1
 50 -150 l 1
 0 -150 l 1xef
 0 -100 l 1
 -50 -100 l 1
 -50 -174 l 1
 50 -174 l 1
 50 -224 l 1
 -50 -224 l 1
 -50 -299 l 1
 -173 -299 l 1
 -173 -174 l 1
 -100 -174 l 1
 -100 -100 l 1
 -125 -100 l 1xdf
 -125 -150 l 1
 -175 -150 l 1xef
 -175 -100 l 1
 -200 -100 l 1xdf
 -200 -150 l 1
 -250 -150 l 1xef
-123 -224 m 1
 -123 -249 l 1
 -100 -249 l 1
 -100 -224 l 1
 -123 -224 l 1
EndSplineSet
Substitution2: "Single Substitution lookup 16-1" ootny
Substitution2: "Single Substitution lookup 15-1" ootny
LCarets2: 1 0
Ligature2: "'blwf' Below Base Forms lookup kf 6-1" NY_A HALANT
Ligature2: "'blwf' Below Base Forms lookup fk 5-1" HALANT NY_A
EndChar

StartChar: ttabelow
Encoding: 1114122 -1 195
Width: 50
Flags: W
HStem: -300 100<-100 -50> -300 50<-150 -100 -50 0> -175 50<-150 -100 -50 0> -100 49.9902<-50 0>
VStem: -200 100<-175 -125> -200 50<-250 -175> -100 50<-250 -200> -50 100<-175 -125 -100 -50.0098> 0 50<-250 -175 -125 -100>
LayerCount: 2
Fore
SplineSet
-150 -125 m 1x74
 -100 -125 l 1
 -100 -175 l 1x78
 -150 -175 l 1
 -150 -250 l 1
 -100 -250 l 1x76
 -100 -200 l 1
 -50 -200 l 1xb6
 -50 -250 l 1
 0 -250 l 1
 0 -175 l 1x7680
 -50 -175 l 1
 -50 -125 l 1x71
 0 -125 l 1
 0 -100 l 1x7080
 -50 -100 l 1
 -50 -50.009765625 l 1x71
 0 -50 l 1
 50 -50 l 1
 50 -300 l 1
 -200 -300 l 1x7480
 -200 -125 l 1x78
 -150 -125 l 1x74
EndSplineSet
Substitution2: "Single Substitution lookup 16-1" oottt
Substitution2: "Single Substitution lookup 15-1" oottt
LCarets2: 1 0
Ligature2: "'blwf' Below Base Forms lookup kf 6-1" TT_A HALANT
Ligature2: "'blwf' Below Base Forms lookup fk 5-1" HALANT TT_A
EndChar

StartChar: tthabelow
Encoding: 1114123 -1 196
Width: 50
Flags: W
HStem: -300 50<-150 0> -200 50<-100 -50> -100 50<-150 0>
VStem: -200 50<-250 -100> -100 50<-200 -150> 0 50<-250 -100>
CounterMasks: 1 fc
LayerCount: 2
Fore
SplineSet
50 -300 m 1
 -200 -300 l 1
 -200 -50 l 1
 50 -50 l 1
 50 -300 l 1
-150 -100 m 1
 -150 -250 l 1
 0 -250 l 1
 0 -100 l 1
 -150 -100 l 1
-100 -150 m 1
 -50 -150 l 1
 -50 -200 l 1
 -100 -200 l 1
 -100 -150 l 1
EndSplineSet
Substitution2: "Single Substitution lookup 16-1" oottth
Substitution2: "Single Substitution lookup 15-1" oottth
LCarets2: 1 0
Ligature2: "'blwf' Below Base Forms lookup kf 6-1" TTH_A HALANT
Ligature2: "'blwf' Below Base Forms lookup fk 5-1" HALANT TTH_A
EndChar

StartChar: ddabelow
Encoding: 1114124 -1 197
Width: 50
Flags: W
HStem: -300 100<-100 -50> -300 50<-150 -100 -50 0> -200 50<-50 0> -100 50<-150 0>
VStem: -200 50<-250 -100> -100 50<-250 -200> -50 100<-200 -150> 0 50<-250 -200 -150 -100>
LayerCount: 2
Fore
SplineSet
50 -50 m 1x59
 50 -300 l 1
 -200 -300 l 1
 -200 -50 l 1
 50 -50 l 1x59
0 -200 m 1x7d
 -50 -200 l 1x9d
 -50 -250 l 1
 0 -250 l 1
 0 -200 l 1x7d
0 -150 m 1x39
 0 -100 l 1
 -150 -100 l 1
 -150 -250 l 1
 -100 -250 l 1x7d
 -100 -200 l 1
 -50 -200 l 1x9d
 -50 -150 l 1x3a
 0 -150 l 1x39
EndSplineSet
Substitution2: "Single Substitution lookup 16-1" ootdd
Substitution2: "Single Substitution lookup 15-1" ootdd
LCarets2: 1 0
Ligature2: "'blwf' Below Base Forms lookup kf 6-1" DD_A HALANT
Ligature2: "'blwf' Below Base Forms lookup fk 5-1" HALANT DD_A
EndChar

StartChar: ddhabelow
Encoding: 1114125 -1 198
Width: 50
Flags: W
HStem: -300 50<-150 -100 -50 0> -200 50<-50 0> -100 50<-150 0>
VStem: -200 50<-250 -100> -100 50<-350 -300 -250 -200> -50 100<-200 -150> 0 50<-250 -200 -150 -100>
CounterMasks: 1 e0
LayerCount: 2
Fore
SplineSet
50 -50 m 1xfa
 50 -300 l 1
 -50 -300 l 1
 -50 -350 l 1
 -100 -350 l 1
 -100 -300 l 1
 -200 -300 l 1
 -200 -50 l 1
 50 -50 l 1xfa
0 -150 m 1
 0 -100 l 1
 -150 -100 l 1
 -150 -250 l 1
 -100 -250 l 1
 -100 -200 l 1
 -50 -200 l 1xfa
 -50 -150 l 1xf4
 0 -150 l 1
-50 -200 m 1
 -50 -250 l 1
 0 -250 l 1
 0 -200 l 1
 -50 -200 l 1
EndSplineSet
Substitution2: "Single Substitution lookup 16-1" ootddh
Substitution2: "Single Substitution lookup 15-1" ootddh
LCarets2: 1 0
Ligature2: "'blwf' Below Base Forms lookup kf 6-1" DDH_A HALANT
Ligature2: "'blwf' Below Base Forms lookup fk 5-1" HALANT DDH_A
EndChar

StartChar: nnabelow
Encoding: 1114126 -1 199
Width: 50
Flags: W
HStem: -300 50<-150 -100 -49.7998 0> -225 50<-150 -100 -50 0> -150 100<-100 -50> -100 50<-150 -100 -50 0>
VStem: -200 100<-299.99 -250 -225 -175> -200 50<-250 -225 -175 -100> -100 50<-150 -100> -49.9004 99.9004<-300 -249.95 -225 -175> 0 50<-249.92 -225 -175 -100>
LayerCount: 2
Fore
SplineSet
0 -225 m 1xd080
 -50 -225 l 1
 -50 -175 l 1
 0 -175 l 1
 0 -100 l 1
 -50 -100 l 1xd280
 -50 -150 l 1
 -100 -150 l 1xe280
 -100 -100 l 1
 -150 -100 l 1
 -150 -175 l 1xd680
 -100 -175 l 1
 -100 -225 l 1xd8
 -150 -225 l 1
 -150 -250 l 1xd4
 -100 -250 l 1
 -100 -299.990234375 l 1xd8
 -150 -300 l 1
 -200 -300 l 1
 -200 -50 l 1
 50 -50 l 1xd480
 50 -300 l 1
 -49.900390625 -300 l 1xd1
 -49.7998046875 -249.950195312 l 1
 0 -249.919921875 l 1
 0 -225 l 1xd080
EndSplineSet
Substitution2: "Single Substitution lookup 16-1" ootnn
Substitution2: "Single Substitution lookup 15-1" ootnn
LCarets2: 1 0
Ligature2: "'blwf' Below Base Forms lookup kf 6-1" NN_A HALANT
Ligature2: "'blwf' Below Base Forms lookup fk 5-1" HALANT NN_A
EndChar

StartChar: tabelow
Encoding: 1114127 -1 200
Width: 50
Flags: W
HStem: -200 50<-300 -100 -50 0> -100 50<-50 0>
VStem: -100 50<-150 -100> 0 50<-150 -100>
LayerCount: 2
Fore
SplineSet
-100 -150 m 1
 -100 -50 l 1
 -50 -50 l 1
 0 -50 l 1
 50 -50 l 1
 50 -200 l 1
 0 -200 l 1
 -300 -200 l 1
 -300 -150 l 1
 -100 -150 l 1
0 -100 m 1
 -50 -100 l 1
 -50 -150 l 1
 0 -150 l 1
 0 -100 l 1
EndSplineSet
Substitution2: "Single Substitution lookup 16-1" oott
Substitution2: "Single Substitution lookup 15-1" oott
LCarets2: 1 0
Ligature2: "'blwf' Below Base Forms lookup kf 6-1" T_A HALANT
Ligature2: "'blwf' Below Base Forms lookup fk 5-1" HALANT T_A
EndChar

StartChar: thabelow
Encoding: 1114128 -1 201
Width: 50
Flags: W
HStem: -300 50<-150 -100 -50 0> -200 50<-100 -50> -100 50<-150 0>
VStem: -200 50<-250 -100> -100 50<-350 -300 -250 -225 -200 -150> 0 50<-250 -100>
CounterMasks: 1 fc
LayerCount: 2
Fore
SplineSet
50 -300 m 1
 -50 -300 l 1
 -50 -350 l 1
 -100 -350 l 1
 -100 -300 l 1
 -200 -300 l 1
 -200 -50 l 1
 50 -50 l 1
 50 -300 l 1
0 -100 m 1
 -150 -100 l 1
 -150 -250 l 1
 -100 -250 l 1
 -100 -225 l 1
 -50 -225 l 1
 -50 -250 l 1
 0 -250 l 1
 0 -100 l 1
-100 -150 m 1
 -50 -150 l 1
 -50 -200 l 1
 -100 -200 l 1
 -100 -150 l 1
EndSplineSet
Substitution2: "Single Substitution lookup 16-1" ootth
Substitution2: "Single Substitution lookup 15-1" ootth
LCarets2: 1 0
Ligature2: "'blwf' Below Base Forms lookup kf 6-1" TH_A HALANT
Ligature2: "'blwf' Below Base Forms lookup fk 5-1" HALANT TH_A
EndChar

StartChar: dabelow
Encoding: 1114129 -1 202
Width: 50
Flags: W
HStem: -300 100<-100 -50> -300 50<-150 -100 -50 0> -100 50<-150 0>
VStem: -200 50<-250 -100> -100 50<-250 -200> 0 50<-250 -100>
CounterMasks: 1 1c
LayerCount: 2
Fore
SplineSet
50 -50 m 1x7c
 50 -300 l 1
 -200 -300 l 1
 -200 -50 l 1
 50 -50 l 1x7c
-50 -250 m 1
 0 -250 l 1
 0 -100 l 1
 -150 -100 l 1
 -150 -250 l 1
 -100 -250 l 1x7c
 -100 -200 l 1
 -50 -200 l 1xbc
 -50 -250 l 1
EndSplineSet
Substitution2: "Single Substitution lookup 16-1" ootd
Substitution2: "Single Substitution lookup 15-1" ootd
LCarets2: 1 0
Ligature2: "'blwf' Below Base Forms lookup kf 6-1" D_A HALANT
Ligature2: "'blwf' Below Base Forms lookup fk 5-1" HALANT D_A
EndChar

StartChar: dhabelow
Encoding: 1114130 -1 203
Width: 50
Flags: W
HStem: -300 50<-150 -100 -50 0> -220 20G<-100 -50> -100 50<-150 0>
VStem: -200 50<-250 -100> -100 50<-350 -300 -250 -200> 0 50<-250 -100>
CounterMasks: 1 1c
LayerCount: 2
Fore
SplineSet
50 -50 m 1
 50 -300 l 1
 -50 -300 l 1
 -50 -350 l 1
 -100 -350 l 1
 -100 -300 l 1
 -200 -300 l 1
 -200 -50 l 1
 50 -50 l 1
-50 -250 m 1
 0 -250 l 1
 0 -100 l 1
 -150 -100 l 1
 -150 -250 l 1
 -100 -250 l 1
 -100 -200 l 1
 -50 -200 l 1
 -50 -250 l 1
EndSplineSet
Substitution2: "Single Substitution lookup 16-1" ootdh
Substitution2: "Single Substitution lookup 15-1" ootdh
LCarets2: 1 0
Ligature2: "'blwf' Below Base Forms lookup kf 6-1" DH_A HALANT
Ligature2: "'blwf' Below Base Forms lookup fk 5-1" HALANT DH_A
EndChar

StartChar: nabelow
Encoding: 1114131 -1 204
Width: 50
Flags: W
HStem: -300 50<-150 -100> -200 50<-150 -100 -50 0>
VStem: -200 50<-250 -200> -100 50<-250 -200 -150 -50> 0 50<-350 -200>
CounterMasks: 1 38
LayerCount: 2
Fore
SplineSet
-100 -150 m 1
 -100 -50 l 1
 -50 -50 l 1
 -50 -150 l 1
 50 -150 l 1
 50 -350 l 1
 0 -350 l 1
 0 -200 l 1
 -50 -200 l 1
 -50 -300 l 1
 -200 -300 l 1
 -200 -150 l 1
 -100 -150 l 1
-150 -200 m 1
 -150 -250 l 1
 -100 -250 l 1
 -100 -200 l 1
 -150 -200 l 1
EndSplineSet
Substitution2: "Single Substitution lookup 16-1" ootn
Substitution2: "Single Substitution lookup 15-1" ootn
LCarets2: 1 0
Ligature2: "'blwf' Below Base Forms lookup kf 6-1" N_A HALANT
Ligature2: "'blwf' Below Base Forms lookup fk 5-1" HALANT N_A
EndChar

StartChar: pabelow
Encoding: 1114132 -1 205
Width: 50
Flags: W
HStem: -300 100<-100 -50> -300 50<-149.9 -100 -50 0> -200 50<-149.9 -124.7> -100 50<-100 -50>
VStem: -200 75.2998<-200 -150> -200 50.0996<-250 -200> -100 50<-250 -200 -100 -50> 0 50<-250 -150>
LayerCount: 2
Fore
SplineSet
-149.900390625 -200 m 1x77
 -149.900390625 -250 l 1
 -100 -250 l 1x77
 -100 -200 l 1
 -50 -200 l 1x97
 -50 -250 l 1
 0 -250 l 1
 0 -150 l 1
 50 -150 l 1
 50 -300 l 1
 -200 -300 l 1x77
 -200 -150 l 1
 -124.700195312 -150 l 1
 -124.700195312 -200 l 1x7b
 -149.900390625 -200 l 1x77
-100 -50 m 1
 -50 -50 l 1
 -50 -100 l 1
 -100 -100 l 1
 -100 -50 l 1
EndSplineSet
Substitution2: "Single Substitution lookup 16-1" ootp
Substitution2: "Single Substitution lookup 15-1" ootp
LCarets2: 1 0
Ligature2: "'blwf' Below Base Forms lookup kf 6-1" P_A HALANT
Ligature2: "'blwf' Below Base Forms lookup fk 5-1" HALANT P_A
EndChar

StartChar: phabelow
Encoding: 1114133 -1 206
Width: 50
Flags: W
HStem: -300 50<-149.9 -100 -50 0> -220 20G<-100 -50> -200 50<-149.9 -124.7> -100 50<-100 -50>
VStem: -200 75.2998<-200 -150> -200 50.0996<-250 -200> -100 50<-350 -300 -250 -200 -100 -50> 0 50<-250 -150>
LayerCount: 2
Fore
SplineSet
-149.900390625 -200 m 1xb7
 -149.900390625 -250 l 1
 -100 -250 l 1
 -100 -200 l 1
 -50 -200 l 1xd7
 -50 -250 l 1
 0 -250 l 1
 0 -150 l 1
 50 -150 l 1
 50 -300 l 1
 -50 -300 l 1
 -50 -350 l 1
 -100 -350 l 1
 -100 -300 l 1
 -200 -300 l 1xb7
 -200 -150 l 1
 -124.700195312 -150 l 1
 -124.700195312 -200 l 1xbb
 -149.900390625 -200 l 1xb7
-100 -50 m 1
 -50 -50 l 1
 -50 -100 l 1
 -100 -100 l 1
 -100 -50 l 1
EndSplineSet
Substitution2: "Single Substitution lookup 16-1" ootph
Substitution2: "Single Substitution lookup 15-1" ootph
LCarets2: 1 0
Ligature2: "'blwf' Below Base Forms lookup kf 6-1" PH_A HALANT
Ligature2: "'blwf' Below Base Forms lookup fk 5-1" HALANT PH_A
EndChar

StartChar: babelow
Encoding: 1114134 -1 207
Width: 50
Flags: W
HStem: -300 100<-75 -25> -300 50<-100 -75 -25 0> -100 50<-200 -150>
VStem: -200 100<-100 -50> -150 50<-250 -100> -75 50<-250 -200> 0 50<-250 -50>
LayerCount: 2
Fore
SplineSet
-100 -50 m 1x76
 -100 -250 l 1
 -75 -250 l 1x6e
 -75 -200 l 1
 -25 -200 l 1xae
 -25 -250 l 1
 0 -250 l 1
 0 -50 l 1
 50 -50 l 1
 50 -300 l 1
 -150 -300 l 1
 -150 -100 l 1x6e
 -200 -100 l 1
 -200 -50 l 1
 -100 -50 l 1x76
EndSplineSet
Substitution2: "Single Substitution lookup 16-1" ootb
Substitution2: "Single Substitution lookup 15-1" ootb
LCarets2: 1 0
Ligature2: "'blwf' Below Base Forms lookup kf 6-1" B_A HALANT
Ligature2: "'blwf' Below Base Forms lookup fk 5-1" HALANT B_A
EndChar

StartChar: bhabelow
Encoding: 1114135 -1 208
Width: 50
Flags: W
HStem: -300 50<-100 -75 -25 0> -220 20G<-75 -25> -100 50<-200 -150>
VStem: -200 100<-100 -50> -150 50<-250 -100> -75 50<-350 -300 -250 -200> 0 50<-250 -50>
LayerCount: 2
Fore
SplineSet
-100 -50 m 1xf6
 -100 -250 l 1
 -75 -250 l 1
 -75 -200 l 1
 -25 -200 l 1
 -25 -250 l 1
 0 -250 l 1
 0 -50 l 1
 50 -50 l 1
 50 -300 l 1
 -25 -300 l 1
 -25 -350 l 1
 -75 -350 l 1
 -75 -300 l 1
 -150 -300 l 1
 -150 -100 l 1xee
 -200 -100 l 1
 -200 -50 l 1
 -100 -50 l 1xf6
EndSplineSet
Substitution2: "Single Substitution lookup 16-1" ootbh
Substitution2: "Single Substitution lookup 15-1" ootbh
LCarets2: 1 0
Ligature2: "'blwf' Below Base Forms lookup kf 6-1" BH_A HALANT
Ligature2: "'blwf' Below Base Forms lookup fk 5-1" HALANT BH_A
EndChar

StartChar: mabelow
Encoding: 1114136 -1 209
Width: 50
Flags: W
HStem: -300 100<0 50> -300 50<-150 0> -225 45<-150 -125> -155 50<-150 -125>
VStem: -200 50<-250 -225 -180 -155 -105 -55> -125 50<-180 -155> 0 50<-250 -200>
LayerCount: 2
Fore
SplineSet
-200 -300 m 1x5e
 -200 -55 l 1
 -150 -55 l 1
 -150 -105 l 1
 -75 -105 l 1
 -75 -225 l 1
 -150 -225 l 1
 -150 -250 l 1
 0 -250 l 1x7e
 0 -200 l 1
 50 -200 l 1
 50 -300 l 1x9e
 -200 -300 l 1x5e
-125 -180 m 1
 -125 -155 l 1
 -150 -155 l 1
 -150 -180 l 1
 -125 -180 l 1
EndSplineSet
Substitution2: "Single Substitution lookup 16-1" ootm
Substitution2: "Single Substitution lookup 15-1" ootm
LCarets2: 1 0
Ligature2: "'blwf' Below Base Forms lookup kf 6-1" M_A HALANT
Ligature2: "'blwf' Below Base Forms lookup fk 5-1" HALANT M_A
EndChar

StartChar: yabelow
Encoding: 1114137 -1 210
Width: 50
Flags: W
HStem: -300 50<-99.9004 -75> -200 50<-199.9 -149.9> -100 50<-25 0.0996094>
VStem: -199.9 100<-200 -150> -149.9 50<-250 -200> -75 50<-250 -100> 0.0996094 50<-200 -100>
CounterMasks: 1 e0
LayerCount: 2
Fore
SplineSet
-99.900390625 -150 m 1xf6
 -99.900390625 -250 l 1
 -75 -250 l 1
 -75 -50 l 1
 50.099609375 -50 l 1
 50.099609375 -200 l 1
 0.099609375 -200 l 1
 0.099609375 -100 l 1
 -25 -100 l 1
 -25 -300 l 1
 -149.900390625 -300 l 1
 -149.900390625 -200 l 1xee
 -199.900390625 -200 l 1
 -199.900390625 -150 l 1
 -99.900390625 -150 l 1xf6
EndSplineSet
Substitution2: "Single Substitution lookup 16-1" ooty
Substitution2: "Single Substitution lookup 15-1" ooty
LCarets2: 1 0
Ligature2: "'blwf' Below Base Forms lookup kf 6-1" Y_A HALANT
Ligature2: "'blwf' Below Base Forms lookup fk 5-1" HALANT Y_A
EndChar

StartChar: rrrabelow
Encoding: 1114138 -1 211
Width: 50
Flags: W
HStem: -200 50<-300 0>
VStem: 0 50<-150 -50>
LayerCount: 2
Fore
SplineSet
0 -150 m 1
 0 -50 l 1
 50 -50 l 1
 50 -200 l 1
 -300 -200 l 1
 -300 -150 l 1
 0 -150 l 1
EndSplineSet
Substitution2: "Single Substitution lookup 16-1" ootrrr
Substitution2: "Single Substitution lookup 15-1" ootrrr
LCarets2: 1 0
Ligature2: "'blwf' Below Base Forms lookup kf 6-1" RRR_A HALANT
Ligature2: "'blwf' Below Base Forms lookup fk 5-1" HALANT RRR_A
EndChar

StartChar: rrrrabelow
Encoding: 1114139 -1 212
Width: 50
Flags: W
HStem: -300 50<-350 -200 -150 0> -200 50<-250 -200 -150 -100> -100 50<-350 -300 -250 -200 -50 0>
VStem: -400 50<-250 -100> -300 50<-150 -100> -200 50<-250 -200 -150 -100> -100 50<-150 -100> 0 50<-250 -100>
CounterMasks: 1 e0
LayerCount: 2
Fore
SplineSet
-100 -150 m 1
 -100 -50 l 1
 -50 -50 l 1
 50 -50 l 1
 50 -300 l 1
 10 -300 l 1
 -350 -300 l 1
 -400 -300 l 1
 -400 -93 l 1
 -400 -50 l 1
 -300 -50 l 1
 -250 -50 l 1
 -200 -50 l 1
 -150 -50 l 1
 -150 -150 l 1
 -100 -150 l 1
-300 -200 m 1
 -300 -100 l 1
 -350 -100 l 1
 -350 -250 l 1
 -200 -250 l 1
 -200 -200 l 1
 -300 -200 l 1
-150 -200 m 1
 -150 -250 l 1
 0 -250 l 1
 0 -100 l 1
 -50 -100 l 1
 -50 -200 l 1
 -123 -200 l 1
 -150 -200 l 1
-200 -150 m 1
 -200 -100 l 1
 -250 -100 l 1
 -250 -150 l 1
 -200 -150 l 1
EndSplineSet
Substitution2: "Single Substitution lookup 16-1" ootrrrr
Substitution2: "Single Substitution lookup 15-1" ootrrrr
LCarets2: 1 0
Ligature2: "'blwf' Below Base Forms lookup kf 6-1" RRRR_A HALANT
Ligature2: "'blwf' Below Base Forms lookup fk 5-1" HALANT RRRR_A
EndChar

StartChar: lllabelow
Encoding: 1114140 -1 213
Width: 50
Flags: W
HStem: -300 50<-100 -50> -200 150<-200 -150 0 50> -200 50<-100 -50>
VStem: -200 50<-150 -50> -150 50<-250 -200> -50 50<-250 -200> 0 50<-150 -50>
LayerCount: 2
Fore
SplineSet
0 -150 m 1xb2
 0 -50 l 1
 50 -50 l 1
 50 -200 l 1xd2
 0 -200 l 1xc4
 0 -300 l 1
 -25 -300 l 1
 -150 -300 l 1
 -150 -200 l 1xca
 -200 -200 l 1
 -200 -50 l 1
 -150 -50 l 1xd0
 -150 -150 l 1
 0 -150 l 1xb2
-100 -200 m 1xac
 -100 -250 l 1
 -50 -250 l 1
 -50 -200 l 1
 -100 -200 l 1xac
EndSplineSet
Substitution2: "Single Substitution lookup 16-1" ootlll
Substitution2: "Single Substitution lookup 15-1" ootlll
LCarets2: 1 0
Ligature2: "'blwf' Below Base Forms lookup kf 6-1" LLL_A HALANT
Ligature2: "'blwf' Below Base Forms lookup fk 5-1" HALANT LLL_A
EndChar

StartChar: llabelow
Encoding: 1114141 -1 214
Width: 50
Flags: W
HStem: -200 150<-200 -150 -100 -50 0 50> -100 50<-150 -100 -50 0>
VStem: -200 50<-200 -100> -100 50<-200 -100> 0 50<-200 -100>
CounterMasks: 1 38
LayerCount: 2
Fore
SplineSet
-200 -200 m 1xb8
 -200 -50 l 1
 50 -50 l 1
 50 -200 l 1
 0 -200 l 1xb8
 0 -100 l 1
 -50 -100 l 1x78
 -50 -200 l 1
 -100 -200 l 1xb8
 -100 -100 l 1
 -150 -100 l 1x78
 -150 -200 l 1
 -200 -200 l 1xb8
EndSplineSet
Substitution2: "Single Substitution lookup 16-1" ootll
Substitution2: "Single Substitution lookup 15-1" ootll
LCarets2: 1 0
Ligature2: "'blwf' Below Base Forms lookup kf 6-1" LL_A HALANT
Ligature2: "'blwf' Below Base Forms lookup fk 5-1" HALANT LL_A
EndChar

StartChar: vabelow
Encoding: 1114142 -1 215
Width: 50
Flags: W
HStem: -300 75<-100 -50> -300 50<-150 -100 -50 -25> -200 50<-150 -100> -100 50<-50 -25 25 50>
VStem: -200 100<-200 -150> -200 50<-250 -200> -100 50<-250 -225> -50 100<-100 -50> -25 50<-250 -100>
LayerCount: 2
Fore
SplineSet
-200 -150 m 1x78
 -100 -150 l 1
 -100 -200 l 1x78
 -150 -200 l 1
 -150 -250 l 1
 -100 -250 l 1x76
 -100 -225 l 1
 -50 -225 l 1xb6
 -50 -250 l 1
 -25 -250 l 1
 -25 -100 l 1x7680
 -50 -100 l 1
 -50 -50 l 1
 50 -50 l 1
 50 -100 l 1x71
 25 -100 l 1
 25 -300 l 1
 -200 -300 l 1x7480
 -200 -150 l 1x78
EndSplineSet
Substitution2: "Single Substitution lookup 16-1" ootv
Substitution2: "Single Substitution lookup 15-1" ootv
LCarets2: 1 0
Ligature2: "'blwf' Below Base Forms lookup kf 6-1" V_A HALANT
Ligature2: "'blwf' Below Base Forms lookup fk 5-1" HALANT V_A
EndChar

StartChar: shabelow
Encoding: 1114143 -1 216
Width: 50
Flags: W
HStem: -325 50<-75 0> -175 50<-150 -75 -25 0> -100 50<-25 0>
VStem: -125 50<-275 -250> -75 50<-200 -175 -125 -100> 0 50<-275 -175 -125 -100>
LayerCount: 2
Fore
SplineSet
-125 -325 m 1xf4
 -125 -200 l 1xf4
 -75 -200 l 1
 -75 -175 l 1
 -150 -175 l 1
 -150 -125 l 1
 -75 -125 l 1
 -75 -50 l 1xec
 0 -50 l 1
 50 -50 l 1
 50 -325 l 1
 -125 -325 l 1xf4
-75 -250 m 1
 -75 -275 l 1xf4
 0 -275 l 1
 0 -175 l 1
 -25 -175 l 1
 -25 -250 l 1xec
 -75 -250 l 1
-25 -125 m 1xec
 0 -125 l 1
 0 -100 l 1
 -25 -100 l 1
 -25 -125 l 1xec
EndSplineSet
Substitution2: "Single Substitution lookup 16-1" ootsh
Substitution2: "Single Substitution lookup 15-1" ootsh
LCarets2: 1 0
Ligature2: "'blwf' Below Base Forms lookup kf 6-1" SH_A HALANT
Ligature2: "'blwf' Below Base Forms lookup fk 5-1" HALANT SH_A
EndChar

StartChar: ssabelow
Encoding: 1114144 -1 217
Width: 50
Flags: W
HStem: -250 100<-175 -125> -250 50<-250 -175 -125 -75 -25 0> -150 50<-250 -200> -100 50<-25 0>
VStem: -300 100<-150 -100> -300 50<-200 -150> -175 50<-200 -150> -75 50<-300 -250 -200 -100> 0 50<-200 -100>
LayerCount: 2
Fore
SplineSet
-25 -250 m 1x5780
 -25 -300 l 1
 -75 -300 l 1
 -75 -250 l 1
 -300 -250 l 1x5780
 -300 -100 l 1x5b80
 -200 -100 l 1
 -200 -150 l 1x2b80
 -250 -150 l 1
 -250 -200 l 1
 -175 -200 l 1x6780
 -175 -150 l 1
 -125 -150 l 1x8780
 -125 -200 l 1
 -75 -200 l 1
 -75 -50 l 1
 -56.400390625 -50 l 1
 0 -50 l 1
 50 -50 l 1
 50 -250 l 1
 -25 -250 l 1x5780
0 -100 m 1
 -25 -100 l 1
 -25 -200 l 1
 0 -200 l 1
 0 -100 l 1
EndSplineSet
Substitution2: "Single Substitution lookup 16-1" ootss
Substitution2: "Single Substitution lookup 15-1" ootss
LCarets2: 1 0
Ligature2: "'blwf' Below Base Forms lookup kf 6-1" SS_A HALANT
Ligature2: "'blwf' Below Base Forms lookup fk 5-1" HALANT SS_A
EndChar

StartChar: sabelow
Encoding: 1114145 -1 218
Width: 50
Flags: W
HStem: -300 50<-50 0> -200 50<-150 -100>
VStem: -200 50<-300 -200> -100 50<-250 -200> 0 50<-250 -50>
CounterMasks: 1 38
LayerCount: 2
Fore
SplineSet
-200 -150 m 1
 -50 -150 l 1
 -50 -250 l 1
 0 -250 l 1
 0 -50 l 1
 50 -50 l 1
 50 -300 l 1
 -100 -300 l 1
 -100 -200 l 1
 -150 -200 l 1
 -150 -300 l 1
 -200 -300 l 1
 -200 -150 l 1
EndSplineSet
Substitution2: "Single Substitution lookup 16-1" oots
Substitution2: "Single Substitution lookup 15-1" oots
LCarets2: 1 0
Ligature2: "'blwf' Below Base Forms lookup kf 6-1" S_A HALANT
Ligature2: "'blwf' Below Base Forms lookup fk 5-1" HALANT S_A
EndChar

StartChar: habelow
Encoding: 1114146 -1 219
Width: 50
Flags: W
HStem: -300 50<-150 -100 -50 0> -200 50<-150 -100 -50 0>
VStem: -200 50<-250 -200> -100 50<-250 -200 -150 -50> 0 50<-250 -200>
CounterMasks: 1 38
LayerCount: 2
Fore
SplineSet
-100 -150 m 1
 -100 -50 l 1
 -50 -50 l 1
 -50 -150 l 1
 50 -150 l 1
 50 -300 l 1
 -200 -300 l 1
 -200 -150 l 1
 -100 -150 l 1
-150 -200 m 1
 -150 -250 l 1
 -100 -250 l 1
 -100 -200 l 1
 -150 -200 l 1
-50 -200 m 1
 -50 -250 l 1
 0 -250 l 1
 0 -200 l 1
 -50 -200 l 1
EndSplineSet
Substitution2: "Single Substitution lookup 16-1" ooth
Substitution2: "Single Substitution lookup 15-1" ooth
LCarets2: 1 0
Ligature2: "'blwf' Below Base Forms lookup kf 6-1" H_A HALANT
Ligature2: "'blwf' Below Base Forms lookup fk 5-1" HALANT H_A
EndChar

StartChar: k_halant
Encoding: 1114147 -1 220
Width: 700
Flags: W
HStem: 0 50<150 300> 300 50<0 100 150 200 250 300 350 450 550 600> 400 50<0 200 250 500 550 600> 500 50<550 650>
VStem: 100 50<50 300> 200 50<350 400> 300 50<50 300> 500 50<350 400 450 500> 600 50<350 400>
LayerCount: 2
Fore
SplineSet
450 450 m 1
 500 450 l 1
 500 550 l 1
 650 550 l 1
 650 500 l 1
 550 500 l 1
 550 450 l 1
 650 450 l 1
 650 300 l 1
 500 300 l 1
 500 400 l 1
 400 400 l 1
 250 400 l 1
 250 350 l 1
 450 350 l 1
 450 300 l 1
 350 300 l 1
 350 0 l 1
 100 0 l 1
 100 300 l 1
 0 300 l 1
 0 350 l 1
 200 350 l 1
 200 400 l 1
 0 400 l 1
 0 450 l 1
 400 450 l 1
 450 450 l 1
300 300 m 1
 150 300 l 1
 150 50 l 1
 300 50 l 1
 300 300 l 1
550 400 m 1
 550 350 l 1
 600 350 l 1
 600 400 l 1
 550 400 l 1
EndSplineSet
Validated: 1
LCarets2: 1 0
Ligature2: "Ligature Substitution lookuo 14 subtable" K_A HALANT
Ligature2: "'haln' Halant Forms lookup 7-1" K_A HALANT
EndChar

StartChar: kh_halant
Encoding: 1114148 -1 221
Width: 700
HStem: 0 50<50 200> 100 50<50 200 250 400> 300 50<50 100 550 600> 400 50<50 100 150 200 300 400 450 500 550 600> 500 50<550 650>
VStem: 0 50<50 100 350 400> 100 50<350 400> 200 50<50 100 150 400> 400 50<150 400> 500 50<350 400 450 500> 600 50<350 400>
LayerCount: 2
Fore
SplineSet
450 400 m 1
 450 100 l 1
 250 100 l 1
 250 0 l 1
 0 0 l 1
 0 150 l 1
 200 150 l 1
 200 400 l 1
 150 400 l 1
 150 300 l 1
 0 300 l 1
 0 450 l 1
 250 450 l 1
 250 150 l 1
 400 150 l 1
 400 400 l 1
 300 400 l 1
 300 450 l 1
 400 450 l 1
 450 450 l 1
 500 450 l 1
 500 550 l 1
 650 550 l 1
 650 500 l 1
 550 500 l 1
 550 450 l 1
 650 450 l 1
 650 300 l 1
 500 300 l 1
 500 400 l 1
 450 400 l 1
50 100 m 1
 50 50 l 1
 200 50 l 1
 200 100 l 1
 50 100 l 1
550 400 m 1
 550 350 l 1
 600 350 l 1
 600 400 l 1
 550 400 l 1
50 400 m 1
 50 350 l 1
 100 350 l 1
 100 400 l 1
 50 400 l 1
EndSplineSet
Validated: 1
Ligature2: "Ligature Substitution lookuo 14 subtable" KH_A HALANT
Ligature2: "'haln' Halant Forms lookup 7-1" KH_A HALANT
EndChar

StartChar: g_halant
Encoding: 1114149 -1 222
Width: 700
HStem: 0 21G<100 150 400 450> 300 50<550 600> 400 50<0 100 150 400 450 500 550 600> 500 50<550 650>
VStem: 100 50<0 400> 400 50<0 400> 500 50<350 400 450 500> 600 50<350 400>
LayerCount: 2
Fore
SplineSet
450 400 m 1
 450 0 l 1
 400 0 l 1
 400 400 l 1
 150 400 l 1
 150 0 l 1
 100 0 l 1
 100 400 l 1
 0 400 l 1
 0 450 l 1
 480.009765625 450 l 1
 500 450 l 1
 500 550 l 1
 550 550 l 1
 650 550 l 1
 650 500 l 1
 550 500 l 1
 550 450 l 1
 650 450 l 1
 650 300 l 1
 500 300 l 1
 500 400 l 1
 450 400 l 1
550 400 m 1
 550 350 l 1
 600 350 l 1
 600 400 l 1
 550 400 l 1
EndSplineSet
Validated: 1
Ligature2: "Ligature Substitution lookuo 14 subtable" G_A HALANT
Ligature2: "'haln' Halant Forms lookup 7-1" G_A HALANT
EndChar

StartChar: gh_halant
Encoding: 1114150 -1 223
Width: 800
Flags: W
HStem: 0 50<50 300 350 500> 100 50<50 100> 200 50<50 100 400 500> 300 50<250 300 650 700> 400 50<0 200 250 300 350 600 650 700> 500 50<650 750>
VStem: 0 50<50 100 150 200> 100 50<150 200> 200 50<350 400> 300 50<-100 0 50 150 350 400> 500 50<50 200 250 300> 600 50<350 400 450 500> 700 50<350 400>
LayerCount: 2
Fore
SplineSet
500 250 m 1
 500 300 l 1
 550 300 l 1
 550 0 l 1
 350 0 l 1
 350 -100 l 1
 300 -100 l 1
 300 0 l 1
 0 0 l 1
 0 250 l 1
 150 250 l 1
 150 100 l 1
 50 100 l 1
 50 50 l 1
 300 50 l 1
 300 150 l 1
 350 150 l 1
 350 50 l 1
 500 50 l 1
 500 200 l 1
 400 200 l 1
 400 250 l 1
 500 250 l 1
50 200 m 1
 50 150 l 1
 100 150 l 1
 100 200 l 1
 50 200 l 1
550 400 m 1
 350 400 l 1
 350 300 l 1
 200 300 l 1
 200 400 l 1
 0 400 l 1
 0 450 l 1
 500 450 l 1
 550 450 l 1
 600 450 l 1
 600 550 l 1
 750 550 l 1
 750 500 l 1
 650 500 l 1
 650 450 l 1
 750 450 l 1
 750 300 l 1
 600 300 l 1
 600 400 l 1
 550 400 l 1
250 400 m 1
 250 350 l 1
 300 350 l 1
 300 400 l 1
 250 400 l 1
650 400 m 1
 650 350 l 1
 700 350 l 1
 700 400 l 1
 650 400 l 1
EndSplineSet
Validated: 1
Ligature2: "Ligature Substitution lookuo 14 subtable" GH_A HALANT
Ligature2: "'haln' Halant Forms lookup 7-1" GH_A HALANT
EndChar

StartChar: ng_halant
Encoding: 1114151 -1 224
Width: 600
Flags: W
HStem: 0 150<200 250 400 450> 0 50<150 200 250 400> 300 50<50 100> 350 100<200 250> 400 50<50 100 450 500> 500 50<150 300 350 400 450 500> 600 50<450 550>
VStem: 0 50<350 400> 100 50<50 300 350 400 450 500> 200 50<50 150 350 450> 300 50<300 500> 400 50<50 150 450 500 550 600> 500 50<450 500>
LayerCount: 2
Fore
SplineSet
350 500 m 1x6ff8
 350 300 l 1
 300 300 l 1
 300 500 l 1
 150 500 l 1
 150 50 l 1
 200 50 l 1x6ff8
 200 150 l 1
 250 150 l 1x87f8
 250 50 l 1
 400 50 l 1x47f8
 400 150 l 1
 450 150 l 1
 450 0 l 1x87f8
 100 0 l 1
 100 300 l 1
 0 300 l 1
 0 450 l 1
 100 450 l 1
 100 550 l 1
 300 550 l 1
 400 550 l 1
 400 650 l 1
 550 650 l 1
 550 600 l 1
 450 600 l 1
 450 550 l 1
 550 550 l 1
 550 400 l 1
 400 400 l 1
 400 500 l 1
 350 500 l 1x6ff8
200 450 m 1x17f8
 250 450 l 1
 250 350 l 1
 200 350 l 1
 200 450 l 1x17f8
50 400 m 1x2ff8
 50 350 l 1
 100 350 l 1
 100 400 l 1
 50 400 l 1x2ff8
450 500 m 1
 450 450 l 1
 500 450 l 1
 500 500 l 1
 450 500 l 1
EndSplineSet
Validated: 1
Ligature2: "Ligature Substitution lookuo 14 subtable" NG_A HALANT
Ligature2: "'haln' Halant Forms lookup 7-1" NG_A HALANT
EndChar

StartChar: c_halant
Encoding: 1114152 -1 225
Width: 800
Flags: W
HStem: 0 50<150 200 250 400> 300 50<50 100 300 400 450 550 650 700> 400 50<50 100 300 400 450 600 650 700> 500 50<650 750>
VStem: 0 50<350 400> 100 50<50 300 350 400> 200 50<50 150> 400 50<50 300 350 400> 600 50<350 400 450 500> 700 50<350 400>
LayerCount: 2
Fore
SplineSet
550 400 m 1
 450 400 l 1
 450 350 l 1
 550 350 l 1
 550 300 l 1
 450 300 l 1
 450 0 l 1
 100 0 l 1
 100 300 l 1
 0 300 l 1
 0 450 l 1
 150 450 l 1
 150 50 l 1
 200 50 l 1
 200 150 l 1
 250 150 l 1
 250 50 l 1
 400 50 l 1
 400 300 l 1
 300 300 l 1
 300 350 l 1
 400 350 l 1
 400 400 l 1
 300 400 l 1
 300 450 l 1
 500 450 l 1
 550 450 l 1
 600 450 l 1
 600 550 l 1
 750 550 l 1
 750 500 l 1
 650 500 l 1
 650 450 l 1
 750 450 l 1
 750 300 l 1
 600 300 l 1
 600 400 l 1
 550 400 l 1
50 400 m 1
 50 350 l 1
 100 350 l 1
 100 400 l 1
 50 400 l 1
650 400 m 1
 650 350 l 1
 700 350 l 1
 700 400 l 1
 650 400 l 1
EndSplineSet
Validated: 1
Ligature2: "Ligature Substitution lookuo 14 subtable" C_A HALANT
Ligature2: "'haln' Halant Forms lookup 7-1" C_A HALANT
EndChar

StartChar: ch_halant
Encoding: 1114153 -1 226
Width: 700
Flags: W
HStem: 0 50<50 200 250 400> 300 50<50 100 550 600> 400 50<50 100 200 400 450 500 550 600> 500 50<550 650>
VStem: 0 50<50 300 350 400> 100 50<350 400> 200 50<-100 0 50 150> 400 50<50 400> 500 50<350 400 450 500> 600 50<350 400>
LayerCount: 2
Fore
SplineSet
500 550 m 1
 650 550 l 1
 650 500 l 1
 550 500 l 1
 550 450 l 1
 650 450 l 1
 650 300 l 1
 500 300 l 1
 500 400 l 1
 450 400 l 1
 450 0 l 1
 250 0 l 1
 250 -100 l 1
 200 -100 l 1
 200 0 l 1
 0 0 l 1
 0 450 l 1
 150 450 l 1
 150 300 l 1
 50 300 l 1
 50 50 l 1
 200 50 l 1
 200 150 l 1
 250 150 l 1
 250 50 l 1
 400 50 l 1
 400 400 l 1
 200 400 l 1
 200 450 l 1
 400 450 l 1
 500 450 l 1
 500 550 l 1
50 400 m 1
 50 350 l 1
 100 350 l 1
 100 400 l 1
 50 400 l 1
550 400 m 1
 550 350 l 1
 600 350 l 1
 600 400 l 1
 550 400 l 1
EndSplineSet
Validated: 1
Ligature2: "Ligature Substitution lookuo 14 subtable" CH_A HALANT
Ligature2: "'haln' Halant Forms lookup 7-1" CH_A HALANT
EndChar

StartChar: j_halant
Encoding: 1114154 -1 227
Width: 600
Flags: W
HStem: 0 150<200 250 400 450> 0 50<150 200 250 400> 300 50<50 100 150 300 450 500> 400 50<50 100 350 400 450 500> 500 50<450 550>
VStem: 0 50<350 400> 100 50<50 300 350 400> 200 50<50 150> 300 50<350 400> 400 50<50 150 350 400 450 500> 500 50<350 400>
LayerCount: 2
Fore
SplineSet
350 400 m 1x7fe0
 350 300 l 1
 150 300 l 1
 150 50 l 1
 200 50 l 1x7fe0
 200 150 l 1
 250 150 l 1xbfe0
 250 50 l 1
 400 50 l 1x7fe0
 400 150 l 1
 450 150 l 1
 450 0 l 1xbfe0
 100 0 l 1
 100 300 l 1
 0 300 l 1
 0 450 l 1
 100 450 l 1
 150 450 l 1
 150 350 l 1
 300 350 l 1
 300 450 l 1
 350 450 l 1
 400 450 l 1
 400 550 l 1
 550 550 l 1
 550 500 l 1
 450 500 l 1
 450 450 l 1
 550 450 l 1
 550 300 l 1
 400 300 l 1
 400 400 l 1
 350 400 l 1x7fe0
450 400 m 1
 450 350 l 1
 500 350 l 1
 500 400 l 1
 450 400 l 1
50 400 m 1
 50 350 l 1
 100 350 l 1
 100 400 l 1
 50 400 l 1
EndSplineSet
Validated: 1
Ligature2: "Ligature Substitution lookuo 14 subtable" J_A HALANT
Ligature2: "'haln' Halant Forms lookup 7-1" J_A HALANT
EndChar

StartChar: jh_halant
Encoding: 1114155 -1 228
Width: 1100
Flags: W
HStem: 0 50<150 400 450 600 650 800> 200 50<950 1000> 300 50<500 600 700 800 850 900 950 1000> 400 50<0 100 150 400 450 500 950 1050>
VStem: 100 50<50 400> 400 50<50 400> 500 50<450 550> 600 50<-100 0 50 300> 800 50<50 300> 900 50<250 300 350 400> 1000 50<250 300>
LayerCount: 2
Fore
SplineSet
850 300 m 1
 850 0 l 1
 650 0 l 1
 650 -100 l 1
 600 -100 l 1
 600 0 l 1
 100 0 l 1
 100 400 l 1
 0 400 l 1
 0 450 l 1
 500 450 l 1
 500 550 l 1
 550 550 l 1
 550 400 l 1
 450 400 l 1
 450 50 l 1
 600 50 l 1
 600 300 l 1
 500 300 l 1
 500 350 l 1
 650 350 l 1
 650 50 l 1
 800 50 l 1
 800 300 l 1
 700 300 l 1
 700 350 l 1
 800 350 l 1
 900 350 l 1
 900 450 l 1
 1050 450 l 1
 1050 400 l 1
 950 400 l 1
 950 350 l 1
 1050 350 l 1
 1050 200 l 1
 900 200 l 1
 900 300 l 1
 850 300 l 1
400 400 m 1
 150 400 l 1
 150 50 l 1
 400 50 l 1
 400 400 l 1
950 300 m 1
 950 250 l 1
 1000 250 l 1
 1000 300 l 1
 950 300 l 1
EndSplineSet
Validated: 1
Ligature2: "Ligature Substitution lookuo 14 subtable" JH_A HALANT
Ligature2: "'haln' Halant Forms lookup 7-1" JH_A HALANT
EndChar

StartChar: ny_halant
Encoding: 1114156 -1 229
Width: 900
Flags: W
HStem: 0 50<250 400> 100 50<250 400 450 550> 200 50<50 100> 300 50<50 100 750 800> 400 50<50 200 250 400 450 600 650 700 750 800> 500 50<750 850>
VStem: 0 50<250 300 350 400> 100 50<250 300> 200 50<50 100 300 400> 400 50<50 100 150 400> 600 50<300 400> 700 50<350 400 450 500> 800 50<350 400>
LayerCount: 2
Fore
SplineSet
504.099609375 450 m 1
 700 450 l 1
 700 550 l 1
 850 550 l 1
 850 500 l 1
 750 500 l 1
 750 450 l 1
 850 450 l 1
 850 300 l 1
 700 300 l 1
 700 400 l 1
 650 400 l 1
 650 300 l 1
 600 300 l 1
 600 400 l 1
 450 400 l 1
 450 150 l 1
 550 150 l 1
 550 100 l 1
 450 100 l 1
 450 0 l 1
 200 0 l 1
 200 150 l 1
 400 150 l 1
 400 400 l 1
 250 400 l 1
 250 300 l 1
 200 300 l 1
 200 400 l 1
 50 400 l 1
 50 350 l 1
 150 350 l 1
 150 200 l 1
 0 200 l 1
 0 450 l 1
 404.099609375 450 l 1
 504.099609375 450 l 1
250 100 m 1
 250 50 l 1
 400 50 l 1
 400 100 l 1
 250 100 l 1
50 300 m 1
 50 250 l 1
 100 250 l 1
 100 300 l 1
 50 300 l 1
750 400 m 1
 750 350 l 1
 800 350 l 1
 800 400 l 1
 750 400 l 1
EndSplineSet
Validated: 1
Ligature2: "Ligature Substitution lookuo 14 subtable" NY_A HALANT
Ligature2: "'haln' Halant Forms lookup 7-1" NY_A HALANT
EndChar

StartChar: tt_halant
Encoding: 1114157 -1 230
Width: 700
Flags: W
HStem: 0 50<50 200 250 400> 200 50<50 143 300 400> 300 50<50 100 550 600> 400 50<50 100 300 400 450 500 550 600> 500 50<550 650>
VStem: 0 50<50 200 250 300 350 400> 100 50<350 400> 200 50<50 150> 400 50<50 200 250 400> 500 50<350 400 450 500> 600 50<350 400>
LayerCount: 2
Fore
SplineSet
450 400 m 1
 450 0 l 1
 0 0 l 1
 0 450 l 1
 150 450 l 1
 150 300 l 1
 50 300 l 1
 50 250 l 1
 143 250 l 1
 143 200 l 1
 50 200 l 1
 50 50 l 1
 200 50 l 1
 200 150 l 1
 250 150 l 1
 250 50 l 1
 400 50 l 1
 400 200 l 1
 300 200 l 1
 300 250 l 1
 400 250 l 1
 400 400 l 1
 300 400 l 1
 300 450 l 1
 450 450 l 1
 500 450 l 1
 500 550 l 1
 650 550 l 1
 650 500 l 1
 550 500 l 1
 550 450 l 1
 650 450 l 1
 650 300 l 1
 500 300 l 1
 500 400 l 1
 450 400 l 1
550 400 m 1
 550 350 l 1
 600 350 l 1
 600 400 l 1
 550 400 l 1
50 400 m 1
 50 350 l 1
 100 350 l 1
 100 400 l 1
 50 400 l 1
EndSplineSet
Validated: 1
Ligature2: "Ligature Substitution lookuo 14 subtable" TT_A HALANT
Ligature2: "'haln' Halant Forms lookup 7-1" TT_A HALANT
EndChar

StartChar: tth_halant
Encoding: 1114158 -1 231
Width: 700
HStem: 0 50<150 400> 100 50<250 300> 200 50<250 300> 300 50<550 600> 400 50<0 100 150 400 450 500 550 600> 500 50<550 650>
VStem: 100 50<50 400> 200 50<150 200> 300 50<150 200> 400 50<50 400> 500 50<350 400 450 500> 600 50<350 400>
LayerCount: 2
Fore
SplineSet
400 450 m 1
 500 450 l 1
 500 550 l 1
 650 550 l 1
 650 500 l 1
 550 500 l 1
 550 450 l 1
 650 450 l 1
 650 300 l 1
 500 300 l 1
 500 400 l 1
 450 400 l 1
 450 0 l 1
 100 0 l 1
 100 400 l 1
 0 400 l 1
 0 450 l 1
 400 450 l 1
150 400 m 1
 150 50 l 1
 400 50 l 1
 400 400 l 1
 150 400 l 1
350 250 m 1
 350 100 l 1
 200 100 l 1
 200 250 l 1
 350 250 l 1
250 200 m 1
 250 150 l 1
 300 150 l 1
 300 200 l 1
 250 200 l 1
550 400 m 1
 550 350 l 1
 600 350 l 1
 600 400 l 1
 550 400 l 1
EndSplineSet
Validated: 1
Ligature2: "Ligature Substitution lookuo 14 subtable" TTH_A HALANT
Ligature2: "'haln' Halant Forms lookup 7-1" TTH_A HALANT
EndChar

StartChar: dd_halant
Encoding: 1114159 -1 232
Width: 800
Flags: W
HStem: 0 50<150 300 350 500> 200 50<400 500> 300 50<650 700> 400 50<0 100 150 500 550 600 650 700> 500 50<650 750>
VStem: 100 50<50 400> 300 50<50 150> 500 50<50 200 250 400> 600 50<350 400 450 500> 700 50<350 400>
LayerCount: 2
Fore
SplineSet
550 400 m 1
 550 0 l 1
 100 0 l 1
 100 400 l 1
 0 400 l 1
 0 450 l 1
 600 450 l 1
 600 550 l 1
 650 550 l 1
 750 550 l 1
 750 500 l 1
 650 500 l 1
 650 450 l 1
 750 450 l 1
 750 300 l 1
 600 300 l 1
 600 400 l 1
 550 400 l 1
500 250 m 1
 500 400 l 1
 150 400 l 1
 150 50 l 1
 300 50 l 1
 300 150 l 1
 350 150 l 1
 350 50 l 1
 500 50 l 1
 500 200 l 1
 400 200 l 1
 400 250 l 1
 500 250 l 1
650 400 m 1
 650 350 l 1
 700 350 l 1
 700 400 l 1
 650 400 l 1
EndSplineSet
Validated: 1
Ligature2: "Ligature Substitution lookuo 14 subtable" DD_A HALANT
Ligature2: "'haln' Halant Forms lookup 7-1" DD_A HALANT
EndChar

StartChar: ddh_halant
Encoding: 1114160 -1 233
Width: 800
HStem: 0 50<150 300 350 500> 200 50<400 500> 300 50<650 700> 400 50<0 100 150 500 550 600 650 700> 500 50<650 750>
VStem: 100 50<50 400> 300 50<-100 0 50 150> 500 50<50 200 250 400> 600 50<350 400 450 500> 700 50<350 400>
LayerCount: 2
Fore
SplineSet
550 400 m 1
 550 0 l 1
 350 0 l 1
 350 -100 l 1
 300 -100 l 1
 300 0 l 1
 100 0 l 1
 100 400 l 1
 0 400 l 1
 0 450 l 1
 600 450 l 1
 600 550 l 1
 650 550 l 1
 750 550 l 1
 750 500 l 1
 650 500 l 1
 650 450 l 1
 750 450 l 1
 750 300 l 1
 600 300 l 1
 600 400 l 1
 550 400 l 1
500 250 m 1
 500 400 l 1
 150 400 l 1
 150 50 l 1
 300 50 l 1
 300 150 l 1
 350 150 l 1
 350 50 l 1
 500 50 l 1
 500 200 l 1
 400 200 l 1
 400 250 l 1
 500 250 l 1
650 400 m 1
 650 350 l 1
 700 350 l 1
 700 400 l 1
 650 400 l 1
EndSplineSet
Validated: 1
Ligature2: "Ligature Substitution lookuo 14 subtable" DDH_A HALANT
Ligature2: "'haln' Halant Forms lookup 7-1" DDH_A HALANT
EndChar

StartChar: nn_halant
Encoding: 1114161 -1 234
Width: 700
Flags: W
HStem: 0 50<50 150 350 400> 100 50<350 400> 200 50<50 150> 300 50<550 600> 400 50<50 200 250 400 450 500 550 600> 500 50<550 650>
VStem: 0 150<0 50 200 250> 0 50<50 200 250 400> 200 50<300 400> 300 50<50 100> 400 50<50 100 150 400> 500 50<350 400 450 500> 600 50<350 400>
LayerCount: 2
Fore
SplineSet
450 400 m 1xfdf8
 450 37 l 1
 450 0 l 1
 300 0 l 1
 300 150 l 1
 400 150 l 1
 400 400 l 1
 250 400 l 1
 250 300 l 1
 200 300 l 1
 200 400 l 1
 50 400 l 1
 50 250 l 1xfdf8
 150 250 l 1
 150 200 l 1xfef8
 50 200 l 1
 50 50 l 1xfdf8
 150 50 l 1
 150 0 l 1
 0 0 l 1xfef8
 0 450 l 1
 450 450 l 1
 500 450 l 1
 500 550 l 1
 650 550 l 1
 650 500 l 1
 550 500 l 1
 550 450 l 1
 650 450 l 1
 650 300 l 1
 500 300 l 1
 500 400 l 1
 450 400 l 1xfdf8
350 100 m 1
 350 50 l 1
 400 50 l 1
 400 100 l 1
 350 100 l 1
550 400 m 1
 550 350 l 1
 600 350 l 1
 600 400 l 1
 550 400 l 1
EndSplineSet
Validated: 1
Ligature2: "Ligature Substitution lookuo 14 subtable" NN_A HALANT
Ligature2: "'haln' Halant Forms lookup 7-1" NN_A HALANT
EndChar

StartChar: t_halant
Encoding: 1114162 -1 235
Width: 600
Flags: W
HStem: 0 50<50 300> 100 50<50 100> 200 50<50 100 200 300> 300 50<450 500> 400 50<0 300 350 400 450 500> 500 50<450 550>
VStem: 0 50<50 100 150 200> 100 50<150 200> 300 50<50 200 250 400> 400 50<350 400 450 500> 500 50<350 400>
LayerCount: 2
Fore
SplineSet
300 450 m 1
 400 450 l 1
 400 550 l 1
 550 550 l 1
 550 500 l 1
 450 500 l 1
 450 450 l 1
 550 450 l 1
 550 300 l 1
 400 300 l 1
 400 400 l 1
 350 400 l 1
 350 0 l 1
 0 0 l 1
 0 250 l 1
 150 250 l 1
 150 100 l 1
 50 100 l 1
 50 50 l 1
 300 50 l 1
 300 200 l 1
 200 200 l 1
 200 250 l 1
 300 250 l 1
 300 400 l 1
 0 400 l 1
 0 450 l 1
 300 450 l 1
50 200 m 1
 50 150 l 1
 100 150 l 1
 100 200 l 1
 50 200 l 1
450 400 m 1
 450 350 l 1
 500 350 l 1
 500 400 l 1
 450 400 l 1
EndSplineSet
Validated: 1
Ligature2: "Ligature Substitution lookuo 14 subtable" T_A HALANT
Ligature2: "'haln' Halant Forms lookup 7-1" T_A HALANT
EndChar

StartChar: th_halant
Encoding: 1114163 -1 236
Width: 800
Flags: W
HStem: 0 50<150 300 350 500> 200 100<300 350> 300 50<650 700> 400 50<0 100 150 500 550 600 650 700> 500 50<650 750>
VStem: 100 50<50 400> 300 50<-100 0 50 150 200 300> 500 50<50 400> 600 50<350 400 450 500> 700 50<350 400>
LayerCount: 2
Fore
SplineSet
550 400 m 1xbfc0
 550 0 l 1
 350 0 l 1
 350 -100 l 1
 300 -100 l 1
 300 0 l 1
 100 0 l 1
 100 400 l 1
 0 400 l 1
 0 450 l 1
 558.900390625 450 l 1
 600 450 l 1
 600 550 l 1
 750 550 l 1
 750 500 l 1
 650 500 l 1
 650 450 l 1
 750 450 l 1
 750 300 l 1
 600 300 l 1
 600 400 l 1
 550 400 l 1xbfc0
350 50 m 1
 500 50 l 1
 500 400 l 1
 150 400 l 1
 150 50 l 1
 300 50 l 1
 300 150 l 1
 350 150 l 1
 350 50 l 1
350 200 m 1xdfc0
 300 200 l 1
 300 300 l 1
 350 300 l 1
 350 200 l 1xdfc0
650 400 m 1
 650 350 l 1
 700 350 l 1xbfc0
 700 400 l 1
 650 400 l 1
EndSplineSet
Validated: 1
Ligature2: "Ligature Substitution lookuo 14 subtable" TH_A HALANT
Ligature2: "'haln' Halant Forms lookup 7-1" TH_A HALANT
EndChar

StartChar: d_halant
Encoding: 1114164 -1 237
Width: 800
HStem: 0 50<150 300 350 500> 300 50<650 700> 400 50<0 100 150 500 550 600 650 700> 500 50<650 750>
VStem: 100 50<50 400> 300 50<50 150> 500 50<50 400> 600 50<350 400 450 500> 700 50<350 400>
LayerCount: 2
Fore
SplineSet
550 400 m 1
 550 0 l 1
 100 0 l 1
 100 400 l 1
 0 400 l 1
 0 450 l 1
 558.900390625 450 l 1
 600 450 l 1
 600 550 l 1
 750 550 l 1
 750 500 l 1
 650 500 l 1
 650 450 l 1
 750 450 l 1
 750 300 l 1
 600 300 l 1
 600 400 l 1
 550 400 l 1
350 50 m 1
 500 50 l 1
 500 400 l 1
 150 400 l 1
 150 50 l 1
 300 50 l 1
 300 150 l 1
 350 150 l 1
 350 50 l 1
650 400 m 1
 650 350 l 1
 700 350 l 1
 700 400 l 1
 650 400 l 1
EndSplineSet
Validated: 1
Ligature2: "Ligature Substitution lookuo 14 subtable" D_A HALANT
Ligature2: "'haln' Halant Forms lookup 7-1" D_A HALANT
EndChar

StartChar: dh_halant
Encoding: 1114165 -1 238
Width: 800
HStem: 0 50<150 300 350 500> 300 50<650 700> 400 50<0 100 150 500 550 600 650 700> 500 50<650 750>
VStem: 100 50<50 400> 300 50<-100 0 50 150> 500 50<50 400> 600 50<350 400 450 500> 700 50<350 400>
LayerCount: 2
Fore
SplineSet
500 450 m 1
 600 450 l 1
 600 550 l 1
 750 550 l 1
 750 500 l 1
 650 500 l 1
 650 450 l 1
 750 450 l 1
 750 300 l 1
 600 300 l 1
 600 400 l 1
 550 400 l 1
 550 0 l 1
 350 0 l 1
 350 -100 l 1
 300 -100 l 1
 300 0 l 1
 100 0 l 1
 100 400 l 1
 0 400 l 1
 0 450 l 1
 500 450 l 1
350 50 m 1
 500 50 l 1
 500 400 l 1
 150 400 l 1
 150 50 l 1
 300 50 l 1
 300 150 l 1
 350 150 l 1
 350 50 l 1
650 400 m 1
 650 350 l 1
 700 350 l 1
 700 400 l 1
 650 400 l 1
EndSplineSet
Validated: 1
Ligature2: "Ligature Substitution lookuo 14 subtable" DH_A HALANT
Ligature2: "'haln' Halant Forms lookup 7-1" DH_A HALANT
EndChar

StartChar: n_halant
Encoding: 1114166 -1 239
Width: 700
Flags: W
HStem: 0 50<250 400> 200 50<50 200> 300 50<550 600> 400 50<0 400 450 500 550 600> 500 50<550 650>
VStem: 0 50<0 200> 200 50<50 200> 400 50<50 400> 500 50<350 400 450 500> 600 50<350 400>
LayerCount: 2
Fore
SplineSet
450 400 m 1
 450 0 l 1
 200 0 l 1
 200 200 l 1
 50 200 l 1
 50 0 l 1
 0 0 l 1
 0 250 l 1
 250 250 l 1
 250 50 l 1
 400 50 l 1
 400 400 l 1
 0 400 l 1
 0 450 l 1
 500 450 l 1
 500 550 l 1
 550 550 l 1
 650 550 l 1
 650 500 l 1
 550 500 l 1
 550 450 l 1
 650 450 l 1
 650 300 l 1
 500 300 l 1
 500 400 l 1
 450 400 l 1
550 400 m 1
 550 350 l 1
 600 350 l 1
 600 400 l 1
 550 400 l 1
EndSplineSet
Validated: 1
Ligature2: "Ligature Substitution lookuo 14 subtable" N_A HALANT
Ligature2: "'haln' Halant Forms lookup 7-1" N_A HALANT
EndChar

StartChar: p_halant
Encoding: 1114167 -1 240
Width: 700
HStem: 0 50<50 300 350 500> 100 50<50 100> 200 50<50 100> 300 50<250 300 550 600> 400 50<0 200 250 300 350 500 550 600> 500 50<550 650>
VStem: 0 50<50 100 150 200> 100 50<150 200> 200 50<350 400> 300 50<50 150 350 400> 500 50<50 250 350 400 450 500> 600 50<350 400>
LayerCount: 2
Fore
SplineSet
100 250 m 1
 150 250 l 1
 150 100 l 1
 50 100 l 1
 50 50 l 1
 300 50 l 1
 300 150 l 1
 350 150 l 1
 350 50 l 1
 500 50 l 1
 500 250 l 1
 550 250 l 1
 550 0 l 1
 0 0 l 1
 0 250 l 1
 100 250 l 1
50 200 m 1
 50 150 l 1
 100 150 l 1
 100 200 l 1
 50 200 l 1
400 450 m 1
 500 450 l 1
 500 550 l 1
 650 550 l 1
 650 500 l 1
 550 500 l 1
 550 450 l 1
 650 450 l 1
 650 300 l 1
 500 300 l 1
 500 400 l 1
 350 400 l 1
 350 300 l 1
 200 300 l 1
 200 400 l 1
 0 400 l 1
 0 450 l 1
 400 450 l 1
250 400 m 1
 250 350 l 1
 300 350 l 1
 300 400 l 1
 250 400 l 1
550 400 m 1
 550 350 l 1
 600 350 l 1
 600 400 l 1
 550 400 l 1
EndSplineSet
Validated: 1
Ligature2: "Ligature Substitution lookuo 14 subtable" P_A HALANT
Ligature2: "'haln' Halant Forms lookup 7-1" P_A HALANT
EndChar

StartChar: ph_halant
Encoding: 1114168 -1 241
Width: 700
HStem: 0 50<50 300 350 500> 100 50<50 100> 200 50<50 100> 300 50<250 300 550 600> 400 50<0 200 250 300 350 500 550 600> 500 50<550 650>
VStem: 0 50<50 100 150 200> 100 50<150 200> 200 50<350 400> 300 50<-100 0 50 150 350 400> 500 50<50 250 350 400 450 500> 600 50<350 400>
LayerCount: 2
Fore
SplineSet
100 250 m 1
 150 250 l 1
 150 100 l 1
 50 100 l 1
 50 50 l 1
 300 50 l 1
 300 150 l 1
 350 150 l 1
 350 50 l 1
 500 50 l 1
 500 250 l 1
 550 250 l 1
 550 0 l 1
 350 0 l 1
 350 -100 l 1
 300 -100 l 1
 300 0 l 1
 0 0 l 1
 0 250 l 1
 100 250 l 1
50 200 m 1
 50 150 l 1
 100 150 l 1
 100 200 l 1
 50 200 l 1
400 450 m 1
 500 450 l 1
 500 550 l 1
 650 550 l 1
 650 500 l 1
 550 500 l 1
 550 450 l 1
 650 450 l 1
 650 300 l 1
 500 300 l 1
 500 400 l 1
 350 400 l 1
 350 300 l 1
 200 300 l 1
 200 400 l 1
 0 400 l 1
 0 450 l 1
 400 450 l 1
250 400 m 1
 250 350 l 1
 300 350 l 1
 300 400 l 1
 250 400 l 1
550 400 m 1
 550 350 l 1
 600 350 l 1
 600 400 l 1
 550 400 l 1
EndSplineSet
Validated: 1
Ligature2: "Ligature Substitution lookuo 14 subtable" PH_A HALANT
Ligature2: "'haln' Halant Forms lookup 7-1" PH_A HALANT
EndChar

StartChar: b_halant
Encoding: 1114169 -1 242
Width: 700
HStem: 0 50<150 200 250 400> 300 50<50 100 550 600> 400 50<50 100 300 400 450 500 550 600> 500 50<550 650>
VStem: 0 50<350 400> 100 50<50 300 350 400> 200 50<50 150> 400 50<50 400> 500 50<350 400 450 500> 600 50<350 400>
LayerCount: 2
Fore
SplineSet
450 400 m 1
 450 0 l 1
 100 0 l 1
 100 300 l 1
 0 300 l 1
 0 450 l 1
 150 450 l 1
 150 50 l 1
 200 50 l 1
 200 150 l 1
 250 150 l 1
 250 50 l 1
 400 50 l 1
 400 400 l 1
 300 400 l 1
 300 450 l 1
 400 450 l 1
 450 450 l 1
 500 450 l 1
 500 550 l 1
 650 550 l 1
 650 500 l 1
 550 500 l 1
 550 450 l 1
 650 450 l 1
 650 300 l 1
 500 300 l 1
 500 400 l 1
 450 400 l 1
550 400 m 1
 550 350 l 1
 600 350 l 1
 600 400 l 1
 550 400 l 1
100 350 m 1
 100 400 l 1
 50 400 l 1
 50 350 l 1
 100 350 l 1
EndSplineSet
Validated: 1
Ligature2: "Ligature Substitution lookuo 14 subtable" B_A HALANT
Ligature2: "'haln' Halant Forms lookup 7-1" B_A HALANT
EndChar

StartChar: bh_halant
Encoding: 1114170 -1 243
Width: 700
HStem: 0 50<150 200 250 400> 300 50<50 100 550 600> 400 50<50 100 300 400 450 500 550 600> 500 50<550 650>
VStem: 0 50<350 400> 100 50<50 300 350 400> 200 50<-100 0 50 150> 400 50<50 400> 500 50<350 400 450 500> 600 50<350 400>
LayerCount: 2
Fore
SplineSet
400 450 m 1
 500 450 l 1
 500 550 l 1
 650 550 l 1
 650 500 l 1
 550 500 l 1
 550 450 l 1
 650 450 l 1
 650 300 l 1
 500 300 l 1
 500 400 l 1
 450 400 l 1
 450 0 l 1
 250 0 l 1
 250 -100 l 1
 200 -100 l 1
 200 0 l 1
 100 0 l 1
 100 300 l 1
 50 300 l 1
 0 300 l 1
 0 450 l 1
 150 450 l 1
 150 50 l 1
 200 50 l 1
 200 150 l 1
 250 150 l 1
 250 50 l 1
 400 50 l 1
 400 400 l 1
 300 400 l 1
 300 450 l 1
 400 450 l 1
550 400 m 1
 550 350 l 1
 600 350 l 1
 600 400 l 1
 550 400 l 1
50 400 m 1
 50 350 l 1
 100 350 l 1
 100 400 l 1
 50 400 l 1
EndSplineSet
Validated: 1
Ligature2: "Ligature Substitution lookuo 14 subtable" BH_A HALANT
Ligature2: "'haln' Halant Forms lookup 7-1" BH_A HALANT
EndChar

StartChar: m_halant
Encoding: 1114171 -1 244
Width: 900
Flags: W
HStem: 0 50<50 200 250 400 450 600> 100 50<50 100> 200 50<50 100 750 800> 300 50<650 700 750 800> 400 50<0 400 450 500 750 850>
VStem: 0 50<50 100 150 200> 100 50<150 200> 200 50<50 150> 400 50<50 400> 500 50<450 550> 600 50<50 300> 700 50<250 300 350 400> 800 50<250 300>
LayerCount: 2
Fore
SplineSet
600 350 m 1
 700 350 l 1
 700 450 l 1
 850 450 l 1
 850 400 l 1
 750 400 l 1
 750 350 l 1
 850 350 l 1
 850 200 l 1
 700 200 l 1
 700 300 l 1
 650 300 l 1
 650 0 l 1
 0 0 l 1
 0 250 l 1
 150 250 l 1
 150 100 l 1
 50 100 l 1
 50 50 l 1
 200 50 l 1
 200 150 l 1
 250 150 l 1
 250 50 l 1
 400 50 l 1
 400 400 l 1
 0 400 l 1
 0 450 l 1
 500 450 l 1
 500 550 l 1
 550 550 l 1
 550 400 l 1
 450 400 l 1
 450 50 l 1
 600 50 l 1
 600 350 l 1
50 200 m 1
 50 150 l 1
 100 150 l 1
 100 200 l 1
 50 200 l 1
750 300 m 1
 750 250 l 1
 800 250 l 1
 800 300 l 1
 750 300 l 1
EndSplineSet
Validated: 1
Ligature2: "Ligature Substitution lookuo 14 subtable" M_A HALANT
Ligature2: "'haln' Halant Forms lookup 7-1" M_A HALANT
EndChar

StartChar: y_halant
Encoding: 1114172 -1 245
Width: 900
HStem: 0 50<50 200 250 400 450 600> 300 50<750 800> 400 50<50 200 300 400 450 500 650 700 750 800> 500 50<750 850>
VStem: 0 50<50 400> 200 50<50 400> 400 50<50 400> 500 50<450 550> 600 50<50 400> 700 50<350 400 450 500> 800 50<350 400>
LayerCount: 2
Fore
SplineSet
650 400 m 1
 650 0 l 1
 0 0 l 1
 0 450 l 1
 250 450 l 1
 250 50 l 1
 400 50 l 1
 400 400 l 1
 300 400 l 1
 300 450 l 1
 500 450 l 1
 500 550 l 1
 550 550 l 1
 550 400 l 1
 450 400 l 1
 450 50 l 1
 600 50 l 1
 600 400 l 1
 600 450 l 1
 650 450 l 1
 700 450 l 1
 700 550 l 1
 850 550 l 1
 850 500 l 1
 750 500 l 1
 750 450 l 1
 850 450 l 1
 850 300 l 1
 700 300 l 1
 700 400 l 1
 650 400 l 1
50 400 m 1
 50 50 l 1
 200 50 l 1
 200 400 l 1
 50 400 l 1
750 400 m 1
 750 350 l 1
 800 350 l 1
 800 400 l 1
 750 400 l 1
EndSplineSet
Validated: 1
Ligature2: "Ligature Substitution lookuo 14 subtable" Y_A HALANT
Ligature2: "'haln' Halant Forms lookup 7-1" Y_A HALANT
EndChar

StartChar: rrr_halant
Encoding: 1114173 -1 246
Width: 800
Flags: W
HStem: 0 50<150 500> 300 50<650 700> 400 50<0 100 150 500 550 600 650 700> 500 50<650 750>
VStem: 100 50<50 400> 500 50<50 400> 600 50<350 400 450 500> 700 50<350 400>
LayerCount: 2
Fore
SplineSet
550 400 m 1
 550 0 l 1
 100 0 l 1
 100 400 l 1
 0 400 l 1
 0 450 l 1
 600 450 l 1
 600 550 l 1
 650 550 l 1
 750 550 l 1
 750 500 l 1
 650 500 l 1
 650 450 l 1
 750 450 l 1
 750 300 l 1
 600 300 l 1
 600 400 l 1
 550 400 l 1
150 400 m 1
 150 50 l 1
 500 50 l 1
 500 400 l 1
 150 400 l 1
650 400 m 1
 650 350 l 1
 700 350 l 1
 700 400 l 1
 650 400 l 1
EndSplineSet
Validated: 1
Ligature2: "Ligature Substitution lookuo 14 subtable" RRR_A HALANT
Ligature2: "'haln' Halant Forms lookup 7-1" RRR_A HALANT
EndChar

StartChar: ll_halant
Encoding: 1114174 -1 247
Width: 700
Flags: W
HStem: 0 50<50 400> 300 50<50 100 550 600> 400 50<50 100 300 400 450 500 550 600> 500 50<550 650>
VStem: 0 50<50 300 350 400> 100 50<350 400> 400 50<50 400> 500 50<350 400 450 500> 600 50<350 400>
LayerCount: 2
Fore
SplineSet
450 400 m 1
 450 0 l 1
 0 0 l 1
 0 450 l 1
 150 450 l 1
 150 300 l 1
 50 300 l 1
 50 50 l 1
 400 50 l 1
 400 400 l 1
 300 400 l 1
 300 450 l 1
 400 450 l 1
 450 450 l 1
 500 450 l 1
 500 550 l 1
 650 550 l 1
 650 500 l 1
 550 500 l 1
 550 450 l 1
 650 450 l 1
 650 300 l 1
 500 300 l 1
 500 400 l 1
 450 400 l 1
550 400 m 1
 550 350 l 1
 600 350 l 1
 600 400 l 1
 550 400 l 1
50 400 m 1
 50 350 l 1
 100 350 l 1
 100 400 l 1
 50 400 l 1
EndSplineSet
Validated: 1
Ligature2: "Ligature Substitution lookuo 14 subtable" LL_A HALANT
Ligature2: "'haln' Halant Forms lookup 7-1" LL_A HALANT
EndChar

StartChar: lll_halant
Encoding: 1114175 -1 248
Width: 700
HStem: 0 50<150 300> 200 50<50 100 150 300 350 400> 300 50<50 100 550 600> 400 50<50 100 300 400 450 500 550 600> 500 50<550 650>
VStem: 0 50<250 300 350 400> 100 50<50 200 350 400> 300 50<50 200> 400 50<250 400> 500 50<350 400 450 500> 600 50<350 400>
LayerCount: 2
Fore
SplineSet
650 550 m 1
 650 500 l 1
 550 500 l 1
 550 450 l 1
 650 450 l 1
 650 300 l 1
 500 300 l 1
 500 400 l 1
 450 400 l 1
 450 200 l 1
 350 200 l 1
 350 0 l 1
 100 0 l 1
 100 200 l 1
 0 200 l 1
 0 450 l 1
 150 450 l 1
 150 300 l 1
 50 300 l 1
 50 250 l 1
 400 250 l 1
 400 400 l 1
 300 400 l 1
 300 450 l 1
 400 450 l 1
 500 450 l 1
 500 550 l 1
 650 550 l 1
150 200 m 1
 150 50 l 1
 300 50 l 1
 300 200 l 1
 150 200 l 1
550 400 m 1
 550 350 l 1
 600 350 l 1
 600 400 l 1
 550 400 l 1
50 400 m 1
 50 350 l 1
 100 350 l 1
 100 400 l 1
 50 400 l 1
EndSplineSet
Validated: 1
Ligature2: "Ligature Substitution lookuo 14 subtable" LLL_A HALANT
Ligature2: "'haln' Halant Forms lookup 7-1" LLL_A HALANT
EndChar

StartChar: v_halant
Encoding: 1114176 -1 249
Width: 700
HStem: 0 50<50 200 250 400> 100 50<50 100> 200 50<50 100> 300 50<550 600> 400 50<0 400 450 500 550 600> 500 50<550 650>
VStem: 0 50<50 100 150 200> 100 50<150 200> 200 50<50 150> 400 50<50 400> 500 50<350 400 450 500> 600 50<350 400>
LayerCount: 2
Fore
SplineSet
500 550 m 1
 650 550 l 1
 650 500 l 1
 550 500 l 1
 550 450 l 1
 650 450 l 1
 650 300 l 1
 500 300 l 1
 500 400 l 1
 450 400 l 1
 450 0 l 1
 0 0 l 1
 0 250 l 1
 150 250 l 1
 150 100 l 1
 50 100 l 1
 50 50 l 1
 200 50 l 1
 200 150 l 1
 250 150 l 1
 250 50 l 1
 400 50 l 1
 400 400 l 1
 0 400 l 1
 0 450 l 1
 415.900390625 450 l 1
 500 450 l 1
 500 550 l 1
50 200 m 1
 50 150 l 1
 100 150 l 1
 100 200 l 1
 50 200 l 1
550 400 m 1
 550 350 l 1
 600 350 l 1
 600 400 l 1
 550 400 l 1
EndSplineSet
Validated: 1
Ligature2: "Ligature Substitution lookuo 14 subtable" V_A HALANT
Ligature2: "'haln' Halant Forms lookup 7-1" V_A HALANT
EndChar

StartChar: sh_halant
Encoding: 1114177 -1 250
Width: 600
Flags: W
HStem: 0 50<50 300> 200 50<50 200> 300 50<150 200 450 500> 400 50<0 100 150 200 250 300 350 400 450 500> 500 50<450 550>
VStem: 0 50<50 200> 100 50<350 400> 200 50<250 300 350 400> 300 50<50 400> 400 50<350 400 450 500> 500 50<350 400>
LayerCount: 2
Fore
SplineSet
300 450 m 1
 400 450 l 1
 400 550 l 1
 550 550 l 1
 550 500 l 1
 450 500 l 1
 450 450 l 1
 550 450 l 1
 550 300 l 1
 400 300 l 1
 400 400 l 1
 350 400 l 1
 350 0 l 1
 0 0 l 1
 0 250 l 1
 200 250 l 1
 200 300 l 1
 100 300 l 1
 100 400 l 1
 0 400 l 1
 0 450 l 1
 300 450 l 1
50 200 m 1
 50 50 l 1
 300 50 l 1
 300 400 l 1
 250 400 l 1
 250 200 l 1
 50 200 l 1
150 400 m 1
 150 350 l 1
 200 350 l 1
 200 400 l 1
 150 400 l 1
450 400 m 1
 450 350 l 1
 500 350 l 1
 500 400 l 1
 450 400 l 1
EndSplineSet
Validated: 1
Ligature2: "Ligature Substitution lookuo 14 subtable" SH_A HALANT
Ligature2: "'haln' Halant Forms lookup 7-1" SH_A HALANT
EndChar

StartChar: ss_halant
Encoding: 1114178 -1 251
Width: 600
Flags: W
HStem: 0 50<50 200 250 300 350 400> 100 50<50 100> 200 50<50 100 350 400> 300 50<250 300 450 500> 400 50<0 200 250 300 350 400 450 500> 500 50<450 550>
VStem: 0 50<50 100 150 200> 100 50<150 200> 200 50<50 150 350 400> 300 50<-100 0 50 200 350 400> 400 50<50 200 350 400 450 500> 500 50<350 400>
LayerCount: 2
Fore
SplineSet
100 250 m 1
 150 250 l 1
 150 100 l 1
 50 100 l 1
 50 50 l 1
 200 50 l 1
 200 150 l 1
 250 150 l 1
 250 50 l 1
 300 50 l 1
 300 250 l 1
 450 250 l 1
 450 0 l 1
 350 0 l 1
 350 -100 l 1
 300 -100 l 1
 300 0 l 1
 0 0 l 1
 0 250 l 1
 100 250 l 1
350 200 m 1
 350 50 l 1
 400 50 l 1
 400 200 l 1
 350 200 l 1
50 200 m 1
 50 150 l 1
 100 150 l 1
 100 200 l 1
 50 200 l 1
350 400 m 1
 350 300 l 1
 200 300 l 1
 200 400 l 1
 0 400 l 1
 0 450 l 1
 400 450 l 1
 400 550 l 1
 450 550 l 1
 550 550 l 1
 550 500 l 1
 450 500 l 1
 450 450 l 1
 550 450 l 1
 550 300 l 1
 400 300 l 1
 400 400 l 1
 350 400 l 1
450 400 m 1
 450 350 l 1
 500 350 l 1
 500 400 l 1
 450 400 l 1
250 400 m 1
 250 350 l 1
 300 350 l 1
 300 400 l 1
 250 400 l 1
EndSplineSet
Validated: 1
Ligature2: "Ligature Substitution lookuo 14 subtable" SS_A HALANT
Ligature2: "'haln' Halant Forms lookup 7-1" SS_A HALANT
EndChar

StartChar: s_halant
Encoding: 1114179 -1 252
Width: 600
HStem: 0 50<250 400> 200 50<50 200> 300 50<250 300 450 500> 400 50<0 200 250 300 350 400 450 500> 500 50<450 550>
VStem: 0 50<0 200> 200 50<50 200 350 400> 300 50<350 400> 400 50<50 250 350 400 450 500> 500 50<350 400>
LayerCount: 2
Fore
SplineSet
0 250 m 1
 250 250 l 1
 250 50 l 1
 400 50 l 1
 400 250 l 1
 450 250 l 1
 450 0 l 1
 200 0 l 1
 200 200 l 1
 50 200 l 1
 50 0 l 1
 0 0 l 1
 0 250 l 1
350 400 m 1
 350 300 l 1
 200 300 l 1
 200 400 l 1
 0 400 l 1
 0 450 l 1
 369.299804688 450 l 1
 400 450 l 1
 400 550 l 1
 450 550 l 1
 550 550 l 1
 550 500 l 1
 450 500 l 1
 450 450 l 1
 550 450 l 1
 550 300 l 1
 400 300 l 1
 400 400 l 1
 350 400 l 1
450 400 m 1
 450 350 l 1
 500 350 l 1
 500 400 l 1
 450 400 l 1
250 400 m 1
 250 350 l 1
 300 350 l 1
 300 400 l 1
 250 400 l 1
EndSplineSet
Validated: 1
Ligature2: "Ligature Substitution lookuo 14 subtable" S_A HALANT
Ligature2: "'haln' Halant Forms lookup 7-1" S_A HALANT
EndChar

StartChar: h_halant
Encoding: 1114180 -1 253
Width: 700
Flags: W
HStem: 0 50<50 200 250 400> 300 50<50 200 250 400 550 600> 400 50<0 200 250 500 550 600> 500 50<550 650>
VStem: 0 50<50 300> 200 50<50 300 350 400> 400 50<50 300> 500 50<350 400 450 500> 600 50<350 400>
LayerCount: 2
Fore
SplineSet
450 450 m 1
 500 450 l 1
 500 550 l 1
 650 550 l 1
 650 500 l 1
 550 500 l 1
 550 450 l 1
 650 450 l 1
 650 300 l 1
 500 300 l 1
 500 400 l 1
 400 400 l 1
 250 400 l 1
 250 350 l 1
 450 350 l 1
 450 0 l 1
 0 0 l 1
 0 350 l 1
 200 350 l 1
 200 400 l 1
 0 400 l 1
 0 450 l 1
 400 450 l 1
 450 450.299804688 l 1
 450 450 l 1
50 300 m 1
 50 50 l 1
 200 50 l 1
 200 300 l 1
 50 300 l 1
250 300 m 1
 250 50 l 1
 400 50 l 1
 400 300 l 1
 250 300 l 1
550 400 m 1
 550 350 l 1
 600 350 l 1
 600 400 l 1
 550 400 l 1
EndSplineSet
Validated: 1
Ligature2: "Ligature Substitution lookuo 14 subtable" H_A HALANT
Substitution2: "Single Substitution lookup 8-1" dummy
Ligature2: "'haln' Halant Forms lookup 7-1" H_A HALANT
EndChar

StartChar: rrrr_halant
Encoding: 1114181 -1 254
Width: 700
HStem: 0 50<50 200 250 400> 200 50<150 300> 300 50<50 100 550 600> 400 50<50 100 350 400 450 500 550 600> 500 50<550 650>
VStem: 0 50<50 300 350 400> 100 50<350 400> 200 50<50 150> 300 50<250 400> 400 50<50 400> 500 50<350 400 450 500> 600 50<350 400>
LayerCount: 2
Fore
SplineSet
450 400 m 1
 450 0 l 1
 0 0 l 1
 0 450 l 1
 150 450 l 1
 150 300 l 1
 50 300 l 1
 50 50 l 1
 200 50 l 1
 200 150 l 1
 250 150 l 1
 250 50 l 1
 400 50 l 1
 400 400 l 1
 350 400 l 1
 350 200 l 1
 150 200 l 1
 150 250 l 1
 300 250 l 1
 300 450 l 1
 400 450 l 1
 500 450 l 1
 500 550 l 1
 650 550 l 1
 650 500 l 1
 550 500 l 1
 550 450 l 1
 650 450 l 1
 650 300 l 1
 500 300 l 1
 500 400 l 1
 450 400 l 1
550 400 m 1
 550 350 l 1
 600 350 l 1
 600 400 l 1
 550 400 l 1
50 400 m 1
 50 350 l 1
 100 350 l 1
 100 400 l 1
 50 400 l 1
EndSplineSet
Validated: 1
Ligature2: "Ligature Substitution lookuo 14 subtable" RRRR_A HALANT
Ligature2: "'haln' Halant Forms lookup 7-1" RRRR_A HALANT
EndChar

StartChar: k_matra_aa
Encoding: 1114182 -1 255
Width: 700
HStem: 0 50<150 300 549 599> 100 50<549 599> 300 50<0 100 150 200 250 300 350 450> 400 50<0 200 250 600>
VStem: 100 50<50 300> 200 50<350 400> 300 50<50 300> 500 49<50 100> 600 50<50 100 150 400>
LayerCount: 2
Fore
SplineSet
600 400 m 1
 250 400 l 1
 250 350 l 1
 450 350 l 1
 450 300 l 1
 350 300 l 1
 350 0 l 1
 100 0 l 1
 100 300 l 1
 0 300 l 1
 0 350 l 1
 200 350 l 1
 200 400 l 1
 0 400 l 1
 0 450 l 1
 429 450 l 1
 650 450 l 1
 650 0 l 1
 500 0 l 1
 500 150 l 1
 600 150 l 1
 600 400 l 1
300 300 m 1
 150 300 l 1
 150 50 l 1
 300 50 l 1
 300 300 l 1
599 100 m 1
 549 100 l 1
 549 50 l 1
 599 50 l 1
 599 100 l 1
EndSplineSet
Validated: 1
Ligature2: "'psts' Post Base Substitutions lookup guni AA 9-1" K_A MATRA_AA
EndChar

StartChar: kh_matra_aa
Encoding: 1114183 -1 256
Width: 700
HStem: 0 50<50 200 550 600> 100 50<50 200 250 400 550 600> 300 50<50 100> 400 50<50 100 150 200 300 400 450.04 600>
VStem: 0 50<50 100 350 400> 100 50<350 400> 200 50<50 100 150 400> 300 100<400 450> 400 50<150 400> 500 50<50 100> 600 50<50 100 150 400>
LayerCount: 2
Fore
SplineSet
200 150 m 1xfee0
 200 400 l 1
 150 400 l 1
 150 300 l 1
 0 300 l 1
 0 450 l 1
 250 450 l 1
 250 150 l 1
 400 150 l 1xfee0
 400 450 l 1xff60
 450.049804688 450 l 1
 450 100 l 1
 250 100 l 1
 250 0 l 1
 0 0 l 1
 0 150 l 1
 200 150 l 1xfee0
50 100 m 1
 50 50 l 1
 200 50 l 1
 200 100 l 1
 50 100 l 1
525 400 m 1
 475 400 l 1
 450.040039062 400 l 1
 450.049804688 450 l 1
 400 450 l 1
 400 400 l 1
 300 400 l 1
 300 450 l 1xff60
 650 450 l 1
 650 0 l 1
 500 0 l 1
 500 150 l 1
 600 150 l 1
 600 400 l 1
 525 400 l 1
600 100 m 1
 550 100 l 1
 550 50 l 1
 600 50 l 1
 600 100 l 1
50 400 m 1
 50 350 l 1
 100 350 l 1
 100 400 l 1
 50 400 l 1
EndSplineSet
Validated: 5
Ligature2: "'psts' Post Base Substitutions lookup guni AA 9-1" KH_A MATRA_AA
EndChar

StartChar: g_matra_aa
Encoding: 1114184 -1 257
Width: 700
HStem: 0 50<550 600> 100 50<550 600> 400 50<0 100 150 400 450 600>
VStem: 100 50<0 400> 400 50<0 400> 500 50<50 100> 600 50<50 100 150 400>
LayerCount: 2
Fore
SplineSet
450 400 m 1
 450 0 l 1
 400 0 l 1
 400 400 l 1
 150 400 l 1
 150 0 l 1
 100 0 l 1
 100 400 l 1
 0 400 l 1
 0 450 l 1
 650 450 l 1
 650 0 l 1
 500 0 l 1
 500 150 l 1
 600 150 l 1
 600 400 l 1
 450 400 l 1
600 100 m 1
 550 100 l 1
 550 50 l 1
 600 50 l 1
 600 100 l 1
EndSplineSet
Validated: 1
Ligature2: "'psts' Post Base Substitutions lookup guni AA 9-1" G_A MATRA_AA
EndChar

StartChar: gh_matra_aa
Encoding: 1114185 -1 258
Width: 800
Flags: W
HStem: 0 50<50 300 350 500 650 700> 100 50<50 100 650 700> 200 50<50 100 400 500> 300 50<250 300> 400 50<0 200 250 300 350 700>
VStem: 0 50<50 100 150 200> 100 50<150 200> 200 50<350 400> 300 50<-100 0 50 150 350 400> 500 50<50 200 250 300> 600 50<50 100> 700 50<50 100 150 400>
LayerCount: 2
Fore
SplineSet
500 250 m 1
 500 300 l 1
 550 300 l 1
 550 0 l 1
 350 0 l 1
 350 -100 l 1
 300 -100 l 1
 300 0 l 1
 0 0 l 1
 0 250 l 1
 150 250 l 1
 150 100 l 1
 50 100 l 1
 50 50 l 1
 300 50 l 1
 300 150 l 1
 350 150 l 1
 350 50 l 1
 500 50 l 1
 500 200 l 1
 400 200 l 1
 400 250 l 1
 500 250 l 1
550 400 m 1
 350 400 l 1
 350 300 l 1
 200 300 l 1
 200 400 l 1
 0 400 l 1
 0 450 l 1
 500 450 l 1
 525 450 l 1
 550 450 l 1
 750 450 l 1
 750 0 l 1
 600 0 l 1
 600 150 l 1
 700 150 l 1
 700 400 l 1
 575 400 l 1
 550 400 l 1
700 100 m 1
 650 100 l 1
 650 50 l 1
 700 50 l 1
 700 100 l 1
50 200 m 1
 50 150 l 1
 100 150 l 1
 100 200 l 1
 50 200 l 1
250 400 m 1
 250 350 l 1
 300 350 l 1
 300 400 l 1
 250 400 l 1
EndSplineSet
Validated: 1
LCarets2: 1 0
Ligature2: "'psts' Post Base Substitutions lookup guni AA 9-1" GH_A MATRA_AA
EndChar

StartChar: ng_matra_aa
Encoding: 1114186 -1 259
Width: 700
Flags: W
HStem: 0 50<150 200 250 400 551 600> 100 50<551 600> 300 50<50 100> 350 100<200 250> 400 50<50 100> 500 50<150 300 349 600>
VStem: 0 50<350 400> 100 50<50 300 350 400 450 500> 200 50<50 150 350 450> 300 50<300 500> 400 50<50 150> 500 51<50 100> 600 50<50 100 150 500>
LayerCount: 2
Fore
SplineSet
500 500 m 1xeff8
 349 500 l 1
 350 300 l 1
 300 300 l 1
 300 500 l 1
 150 500 l 1
 150 50 l 1
 200 50 l 1
 200 150 l 1
 250 150 l 1
 250 50 l 1
 400 50 l 1
 400 150 l 1
 450 150 l 1
 450 0 l 1
 100 0 l 1
 100 300 l 1
 0 300 l 1
 0 450 l 1
 100 450 l 1
 100 550 l 1
 451 550 l 1
 650 550 l 1
 650 0 l 1
 500 0 l 1
 500 150 l 1
 600 150 l 1
 600 500 l 1
 500 500 l 1xeff8
600 100 m 1
 551 100 l 1
 551 50 l 1
 600 50 l 1
 600 100 l 1
200 450 m 1xd7f8
 250 450 l 1
 250 350 l 1
 200 350 l 1
 200 450 l 1xd7f8
50 400 m 1xeff8
 50 350 l 1
 100 350 l 1
 100 400 l 1
 50 400 l 1xeff8
EndSplineSet
Validated: 1
Ligature2: "'psts' Post Base Substitutions lookup guni AA 9-1" NG_A MATRA_AA
EndChar

StartChar: c_matra_aa
Encoding: 1114187 -1 260
Width: 800
Flags: W
HStem: 0 50<150 200 250 400 650 700> 100 50<650 700> 300 50<50 100 300 400 450 550> 400 50<50 100 300 400 450 700>
VStem: 0 50<350 400> 100 50<50 300 350 400> 200 50<50 150> 400 50<50 300 350 400> 600 50<50 100> 700 50<50 100 150 400>
LayerCount: 2
Fore
SplineSet
550 400 m 1
 450 400 l 1
 450 350 l 1
 550 350 l 1
 550 300 l 1
 450 300 l 1
 450 0 l 1
 100 0 l 1
 100 300 l 1
 0 300 l 1
 0 450 l 1
 150 450 l 1
 150 50 l 1
 200 50 l 1
 200 150 l 1
 250 150 l 1
 250 50 l 1
 400 50 l 1
 400 300 l 1
 300 300 l 1
 300 350 l 1
 400 350 l 1
 400 400 l 1
 300 400 l 1
 300 450 l 1
 500 450 l 1
 577 450 l 1
 750 450 l 1
 750 0 l 1
 600 0 l 1
 600 150 l 1
 700 150 l 1
 700 400 l 1
 550 400 l 1
700 100 m 1
 650 100 l 1
 650 50 l 1
 700 50 l 1
 700 100 l 1
50 400 m 1
 50 350 l 1
 100 350 l 1
 100 400 l 1
 50 400 l 1
EndSplineSet
Validated: 1
Ligature2: "'psts' Post Base Substitutions lookup guni AA 9-1" C_A MATRA_AA
EndChar

StartChar: ch_matra_aa
Encoding: 1114188 -1 261
Width: 700
Flags: W
HStem: 0 50<50 200 250 400 550 600> 100 50<550 600> 300 50<50 100> 400 50<50 100 200 400 450 600>
VStem: 0 50<50 300 350 400> 100 50<350 400> 200 50<-100 0 50 150> 400 50<50 400> 500 50<50 100> 600 50<50 100 150 400>
LayerCount: 2
Fore
SplineSet
600 400 m 1
 450 400 l 1
 450 0 l 1
 250 0 l 1
 250 -100 l 1
 200 -100 l 1
 200 0 l 1
 0 0 l 1
 0 450 l 1
 150 450 l 1
 150 300 l 1
 50 300 l 1
 50 50 l 1
 200 50 l 1
 200 150 l 1
 250 150 l 1
 250 50 l 1
 400 50 l 1
 400 400 l 1
 200 400 l 1
 200 450 l 1
 650 450 l 1
 650 0 l 1
 500 0 l 1
 500 150 l 1
 600 150 l 1
 600 400 l 1
600 100 m 1
 550 100 l 1
 550 50 l 1
 600 50 l 1
 600 100 l 1
50 400 m 1
 50 350 l 1
 100 350 l 1
 100 400 l 1
 50 400 l 1
EndSplineSet
Validated: 1
Ligature2: "'psts' Post Base Substitutions lookup guni AA 9-1" CH_A MATRA_AA
EndChar

StartChar: j_matra_aa
Encoding: 1114189 -1 262
Width: 700
HStem: 0 50<150 200 250 400 550 600> 100 50<550 600> 300 50<50 100 150 300> 400 50<50 100 350 600>
VStem: 0 50<350 400> 100 50<50 300 350 400> 200 50<50 150> 300 50<350 400> 400 50<50 150> 500 50<50 100> 600 50<50 100 150 400>
LayerCount: 2
Fore
SplineSet
350 400 m 1
 350 300 l 1
 150 300 l 1
 150 50 l 1
 200 50 l 1
 200 150 l 1
 250 150 l 1
 250 50 l 1
 400 50 l 1
 400 150 l 1
 450 150 l 1
 450 0 l 1
 100 0 l 1
 100 300 l 1
 0 300 l 1
 0 450 l 1
 100 450 l 1
 150 450 l 1
 150 350 l 1
 300 350 l 5
 300 450 l 5
 335 450 l 1
 650 450 l 1
 650 0 l 1
 500 0 l 1
 500 150 l 1
 600 150 l 1
 600 400 l 1
 350 400 l 1
600 100 m 1
 550 100 l 1
 550 50 l 1
 600 50 l 1
 600 100 l 1
50 400 m 1
 50 350 l 1
 100 350 l 1
 100 400 l 1
 50 400 l 1
EndSplineSet
Validated: 1
Ligature2: "'psts' Post Base Substitutions lookup guni AA 9-1" J_A MATRA_AA
EndChar

StartChar: jh_matra_aa
Encoding: 1114190 -1 263
Width: 1100
Flags: W
HStem: 0 50<150 400 450 600 650 800 950 1000> 100 50<950 1000> 300 50<500 600 700 800 850 1000> 400 50<0 100 150 400 450 500>
VStem: 100 50<50 400> 400 50<50 400> 500 50<450 550> 600 50<-100 0 50 300> 800 50<50 300> 900 50<50 100> 1000 50<50 100 150 300>
LayerCount: 2
Fore
SplineSet
850 300 m 1
 850 0 l 1
 650 0 l 1
 650 -100 l 1
 600 -100 l 1
 600 0 l 1
 100 0 l 1
 100 400 l 1
 0 400 l 1
 0 450 l 1
 500 450 l 1
 500 550 l 1
 550 550 l 1
 550 400 l 1
 450 400 l 1
 450 50 l 1
 600 50 l 1
 600 300 l 1
 500 300 l 1
 500 350 l 1
 650 350 l 1
 650 50 l 1
 800 50 l 1
 800 300 l 1
 700 300 l 1
 700 350 l 1
 843 350 l 1
 1050 350 l 1
 1050 0 l 1
 900 0 l 1
 900 150 l 1
 1000 150 l 1
 1000 300 l 1
 850 300 l 1
400 400 m 1
 150 400 l 1
 150 50 l 1
 400 50 l 1
 400 400 l 1
1000 100 m 1
 950 100 l 1
 950 50 l 1
 1000 50 l 1
 1000 100 l 1
EndSplineSet
Validated: 1
Ligature2: "'psts' Post Base Substitutions lookup guni AA 9-1" JH_A MATRA_AA
EndChar

StartChar: ny_matra_aa
Encoding: 1114191 -1 264
Width: 900
Flags: W
HStem: 0 50<250 400 750 800> 100 50<250 400 450 550 750 800> 200 50<50 100> 300 50<50 100> 400 50<50 200 250 400 450 600 650 800>
VStem: 0 50<250 300 350 400> 100 50<250 300> 200 50<50 100 300 400> 400 50<50 100 150 400> 600 50<300 400> 700 50<50 100> 800 50<50 100 150 400>
LayerCount: 2
Fore
SplineSet
425 450 m 1
 475 450 l 1
 645 450 l 1
 850 450 l 1
 850 0 l 1
 700 0 l 1
 700 150 l 1
 800 150 l 1
 800 400 l 1
 650 400 l 1
 650 300 l 1
 600 300 l 1
 600 400 l 1
 450 400 l 1
 450 150 l 1
 550 150 l 1
 550 100 l 1
 450 100 l 1
 450 0 l 1
 200 0 l 1
 200 150 l 1
 400 150 l 1
 400 400 l 1
 250 400 l 1
 250 300 l 1
 200 300 l 1
 200 400 l 1
 50 400 l 1
 50 350 l 1
 150 350 l 1
 150 200 l 1
 0 200 l 1
 0 450 l 1
 425 450 l 1
250 100 m 1
 250 50 l 1
 400 50 l 1
 400 100 l 1
 250 100 l 1
800 100 m 1
 750 100 l 1
 750 50 l 1
 800 50 l 1
 800 100 l 1
50 300 m 1
 50 250 l 1
 100 250 l 1
 100 300 l 1
 50 300 l 1
EndSplineSet
Validated: 1
Ligature2: "'psts' Post Base Substitutions lookup guni AA 9-1" NY_A MATRA_AA
EndChar

StartChar: tt_matra_aa
Encoding: 1114192 -1 265
Width: 700
Flags: W
HStem: 0 50<50 200 250 400 550 600> 100 50<550 600> 200 50<50 143 300 400> 300 50<50 100> 400 50<50 100 300 400 450 600>
VStem: 0 50<50 200 250 300 350 400> 100 50<350 400> 200 50<50 150> 400 50<50 200 250 400> 500 50<50 100> 600 50<50 100 150 400>
LayerCount: 2
Fore
SplineSet
450 400 m 1
 450 0 l 1
 0 0 l 1
 0 450 l 1
 150 450 l 1
 150 300 l 1
 50 300 l 1
 50 250 l 1
 143 250 l 1
 143 200 l 1
 50 200 l 1
 50 50 l 1
 200 50 l 1
 200 150 l 1
 250 150 l 1
 250 50 l 1
 400 50 l 1
 400 200 l 1
 300 200 l 1
 300 250 l 1
 400 250 l 1
 400 400 l 1
 300 400 l 1
 300 450 l 1
 425 450 l 1
 450 450 l 1
 475 450 l 1
 650 450 l 1
 650 0 l 1
 500 0 l 1
 500 150 l 1
 600 150 l 1
 600 400 l 1
 450 400 l 1
600 100 m 1
 550 100 l 1
 550 50 l 1
 600 50 l 1
 600 100 l 1
50 400 m 1
 50 350 l 1
 100 350 l 1
 100 400 l 1
 50 400 l 1
EndSplineSet
Validated: 1
Ligature2: "'psts' Post Base Substitutions lookup guni AA 9-1" TT_A MATRA_AA
EndChar

StartChar: tth_matra_aa
Encoding: 1114193 -1 266
Width: 700
HStem: 0 50<150 400 550 600> 100 50<250 300 550 600> 200 50<250 300> 400 50<0 100 150 400 450 600>
VStem: 100 50<50 400> 200 50<150 200> 300 50<150 200> 400 50<50 400> 500 50<50 100> 600 50<50 100 150 400>
LayerCount: 2
Fore
SplineSet
600 400 m 1
 450 400 l 1
 450 0 l 1
 100 0 l 1
 100 400 l 1
 0 400 l 1
 0 450 l 1
 650 450 l 1
 650 0 l 1
 500 0 l 1
 500 150 l 1
 600 150 l 1
 600 400 l 1
150 400 m 1
 150 50 l 1
 400 50 l 1
 400 400 l 1
 150 400 l 1
350 250 m 1
 350 100 l 1
 200 100 l 1
 200 250 l 1
 350 250 l 1
600 100 m 1
 550 100 l 1
 550 50 l 1
 600 50 l 1
 600 100 l 1
250 200 m 1
 250 150 l 1
 300 150 l 1
 300 200 l 1
 250 200 l 1
EndSplineSet
Validated: 1
Ligature2: "'psts' Post Base Substitutions lookup guni AA 9-1" TTH_A MATRA_AA
EndChar

StartChar: dd_matra_aa
Encoding: 1114194 -1 267
Width: 800
Flags: W
HStem: 0 50<150 300 350 500 650 700> 100 50<650 700> 200 50<400 500> 400 50<0 100 150 500 550 700>
VStem: 100 50<50 400> 300 50<50 150> 500 50<50 200 250 400> 600 50<50 100> 700 50<50 100 150 400>
LayerCount: 2
Fore
SplineSet
550 400 m 1
 550 0 l 1
 100 0 l 1
 100 400 l 1
 0 400 l 1
 0 450 l 1
 750 450 l 1
 750 0 l 1
 600 0 l 1
 600 150 l 1
 700 150 l 1
 700 400 l 1
 550 400 l 1
500 250 m 1
 500 400 l 1
 150 400 l 1
 150 50 l 1
 300 50 l 1
 300 150 l 1
 350 150 l 1
 350 50 l 1
 500 50 l 1
 500 200 l 1
 400 200 l 1
 400 250 l 1
 500 250 l 1
700 100 m 1
 650 100 l 1
 650 50 l 1
 700 50 l 1
 700 100 l 1
EndSplineSet
Validated: 1
Ligature2: "'psts' Post Base Substitutions lookup guni AA 9-1" DD_A MATRA_AA
EndChar

StartChar: ddh_matra_aa
Encoding: 1114195 -1 268
Width: 800
HStem: 0 50<150 300 350 500 650 700> 100 50<650 700> 200 50<400 500> 400 50<0 100 150 500 550 700>
VStem: 100 50<50 400> 300 50<-100 0 50 150> 500 50<50 200 250 400> 600 50<50 100> 700 50<50 100 150 400>
LayerCount: 2
Fore
SplineSet
550 400 m 1
 550 0 l 1
 350 0 l 1
 350 -100 l 1
 300 -100 l 1
 300 0 l 1
 100 0 l 1
 100 400 l 1
 0 400 l 1
 0 450 l 1
 750 450 l 1
 750 0 l 1
 600 0 l 1
 600 150 l 1
 700 150 l 1
 700 400 l 1
 550 400 l 1
500 250 m 1
 500 400 l 1
 150 400 l 1
 150 50 l 1
 300 50 l 1
 300 150 l 1
 350 150 l 1
 350 50 l 1
 500 50 l 1
 500 200 l 1
 400 200 l 1
 400 250 l 1
 500 250 l 1
700 100 m 1
 650 100 l 1
 650 50 l 1
 700 50 l 1
 700 100 l 1
EndSplineSet
Validated: 1
Ligature2: "'psts' Post Base Substitutions lookup guni AA 9-1" DDH_A MATRA_AA
EndChar

StartChar: nn_matra_aa
Encoding: 1114196 -1 269
Width: 700
Flags: W
HStem: 0 50<50 150 350 400 550 600> 100 50<350 400 550 600> 200 50<50 150> 400 50<50 200 250 400 450 600>
VStem: 0 150<0 50 200 250> 0 50<50 200 250 400> 200 50<300 400> 300 50<50 100> 400 50<50 100 150 400> 500 50<50 100> 600 50<50 100 150 400>
LayerCount: 2
Fore
SplineSet
450 400 m 1xf7e0
 450 37 l 1
 450 0 l 1
 300 0 l 1
 300 150 l 1
 400 150 l 1
 400 400 l 1
 250 400 l 1
 250 300 l 1
 200 300 l 1
 200 400 l 1
 50 400 l 1
 50 250 l 1xf7e0
 150 250 l 1
 150 200 l 1xfbe0
 50 200 l 1
 50 50 l 1xf7e0
 150 50 l 1
 150 0 l 1
 0 0 l 1xfbe0
 0 450 l 1
 450 450 l 1
 650 450 l 1
 650 0 l 1
 500 0 l 1
 500 150 l 1
 600 150 l 1
 600 400 l 1
 475 400 l 1
 450 400 l 1xf7e0
350 100 m 1
 350 50 l 1
 400 50 l 1
 400 100 l 1
 350 100 l 1
600 100 m 1
 550 100 l 1
 550 50 l 1
 600 50 l 1
 600 100 l 1
EndSplineSet
Validated: 1
Ligature2: "'psts' Post Base Substitutions lookup guni AA 9-1" NN_A MATRA_AA
EndChar

StartChar: t_matra_aa
Encoding: 1114197 -1 270
Width: 600
Flags: W
HStem: 0 50<50 300 450 500> 100 50<50 100 450 500> 200 50<50 100 200 300> 400 50<0 300 350 500>
VStem: 0 50<50 100 150 200> 100 50<150 200> 300 50<50 200 250 400> 400 50<50 100> 500 50<50 100 150 400>
LayerCount: 2
Fore
SplineSet
500 400 m 1
 350 400 l 1
 350 0 l 1
 0 0 l 1
 0 250 l 1
 150 250 l 1
 150 100 l 1
 50 100 l 1
 50 50 l 1
 300 50 l 1
 300 200 l 1
 200 200 l 1
 200 250 l 1
 300 250 l 1
 300 400 l 1
 0 400 l 1
 0 450 l 1
 550 450 l 1
 550 0 l 1
 400 0 l 1
 400 150 l 1
 500 150 l 1
 500 400 l 1
50 200 m 1
 50 150 l 1
 100 150 l 1
 100 200 l 1
 50 200 l 1
500 100 m 1
 450 100 l 1
 450 50 l 1
 500 50 l 1
 500 100 l 1
EndSplineSet
Validated: 1
Ligature2: "'psts' Post Base Substitutions lookup guni AA 9-1" T_A MATRA_AA
EndChar

StartChar: th_matra_aa
Encoding: 1114198 -1 271
Width: 800
Flags: W
HStem: 0 50<150 300 350 500 650 700> 100 50<650 700> 200 100<300 350> 400 50<0 100 150 500 550 700>
VStem: 100 50<50 400> 300 50<-100 0 50 150 200 300> 500 50<50 400> 600 50<50 100> 700 50<50 100 150 400>
LayerCount: 2
Fore
SplineSet
550 400 m 1
 550 0 l 1
 350 0 l 1
 350 -100 l 1
 300 -100 l 1
 300 0 l 1
 100 0 l 1
 100 400 l 1
 0 400 l 1
 0 450 l 1
 750 450 l 1
 750 0 l 1
 600 0 l 1
 600 150 l 1
 700 150 l 1
 700 400 l 1
 550 400 l 1
350 50 m 1
 500 50 l 1
 500 400 l 1
 150 400 l 1
 150 50 l 1
 300 50 l 1
 300 150 l 1
 350 150 l 1
 350 50 l 1
700 100 m 1
 650 100 l 1
 650 50 l 1
 700 50 l 1
 700 100 l 1
350 200 m 1
 300 200 l 1
 300 300 l 1
 350 300 l 1
 350 200 l 1
EndSplineSet
Validated: 1
Ligature2: "'psts' Post Base Substitutions lookup guni AA 9-1" TH_A MATRA_AA
EndChar

StartChar: d_matra_aa
Encoding: 1114199 -1 272
Width: 800
HStem: 0 50<150 300 350 500 650 700> 100 50<650 700> 400 50<0 100 150 500 550 700>
VStem: 100 50<50 400> 300 50<50 150> 500 50<50 400> 600 50<50 100> 700 50<50 100 150 400>
LayerCount: 2
Fore
SplineSet
550 400 m 1
 550 0 l 1
 100 0 l 1
 100 400 l 1
 0 400 l 1
 0 450 l 1
 750 450 l 1
 750 0 l 1
 600 0 l 1
 600 150 l 1
 700 150 l 1
 700 400 l 1
 550 400 l 1
350 50 m 1
 500 50 l 1
 500 400 l 1
 150 400 l 1
 150 50 l 1
 300 50 l 1
 300 150 l 1
 350 150 l 1
 350 50 l 1
700 100 m 1
 650 100 l 1
 650 50 l 1
 700 50 l 1
 700 100 l 1
EndSplineSet
Validated: 1
Ligature2: "'psts' Post Base Substitutions lookup guni AA 9-1" D_A MATRA_AA
EndChar

StartChar: dh_matra_aa
Encoding: 1114200 -1 273
Width: 800
Flags: W
HStem: 0 50<150 300 350 500 650 700> 100 50<650 700> 400 50<0 100 150 500 550 700>
VStem: 100 50<50 400> 300 50<-100 0 50 150> 500 50<50 400> 600 50<50 100> 700 50<50 100 150 400>
LayerCount: 2
Fore
SplineSet
550 400 m 1
 550 0 l 1
 350 0 l 1
 350 -100 l 1
 300 -100 l 1
 300 0 l 1
 100 0 l 1
 100 400 l 1
 0 400 l 1
 0 450 l 1
 750 450 l 1
 750 0 l 1
 600 0 l 1
 600 150 l 1
 700 150 l 1
 700 400 l 1
 550 400 l 1
350 50 m 1
 500 50 l 1
 500 400 l 1
 150 400 l 1
 150 50 l 1
 300 50 l 1
 300 150 l 1
 350 150 l 1
 350 50 l 1
700 100 m 1
 650 100 l 1
 650 50 l 1
 700 50 l 1
 700 100 l 1
EndSplineSet
Validated: 1
Ligature2: "'psts' Post Base Substitutions lookup guni AA 9-1" DH_A MATRA_AA
EndChar

StartChar: n_matra_aa
Encoding: 1114201 -1 274
Width: 700
Flags: W
HStem: 0 50<250 400 550 600> 100 50<550 600> 200 50<50 200> 400 50<0 400 450 600>
VStem: 0 50<0 200> 200 50<50 200> 400 50<50 400> 500 50<50 100> 600 50<50 100 150 400>
LayerCount: 2
Fore
SplineSet
600 400 m 1
 450 400 l 1
 450 0 l 1
 200 0 l 1
 200 200 l 1
 50 200 l 1
 50 0 l 1
 0 0 l 1
 0 250 l 1
 250 250 l 1
 250 50 l 1
 400 50 l 1
 400 400 l 1
 0 400 l 1
 0 450 l 1
 650 450 l 1
 650 0 l 1
 500 0 l 1
 500 150 l 1
 600 150 l 1
 600 400 l 1
600 100 m 1
 550 100 l 1
 550 50 l 1
 600 50 l 1
 600 100 l 1
EndSplineSet
Validated: 1
Ligature2: "'psts' Post Base Substitutions lookup guni AA 9-1" N_A MATRA_AA
EndChar

StartChar: p_matra_aa
Encoding: 1114202 -1 275
Width: 800
Flags: W
HStem: 0 50<50 300 350 500 650 700> 100 50<50 100 650 700> 200 50<50 100> 300 50<250 300> 400 50<0 200 250 300 350 700>
VStem: 0 50<50 100 150 200> 100 50<150 200> 200 50<350 400> 300 50<50 150 350 400> 500 50<50 250> 600 50<50 100> 700 50<50 100 150 400>
LayerCount: 2
Fore
SplineSet
100 250 m 1
 150 250 l 1
 150 100 l 1
 50 100 l 1
 50 50 l 1
 300 50 l 1
 300 150 l 1
 350 150 l 1
 350 50 l 1
 500 50 l 1
 500 250 l 1
 550 250 l 1
 550 0 l 1
 0 0 l 1
 0 250 l 1
 100 250 l 1
581 400 m 1
 350 400 l 1
 350 300 l 1
 200 300 l 1
 200 400 l 1
 0 400 l 1
 0 450 l 1
 500 450 l 1
 550 450 l 1
 750 450 l 1
 750 0 l 1
 600 0 l 1
 600 150 l 1
 700 150 l 1
 700 400 l 1
 581 400 l 1
700 100 m 1
 650 100 l 1
 650 50 l 1
 700 50 l 1
 700 100 l 1
50 200 m 1
 50 150 l 1
 100 150 l 1
 100 200 l 1
 50 200 l 1
250 400 m 1
 250 350 l 1
 300 350 l 1
 300 400 l 1
 250 400 l 1
EndSplineSet
Validated: 1
Ligature2: "'psts' Post Base Substitutions lookup guni AA 9-1" P_A MATRA_AA
EndChar

StartChar: ph_matra_aa
Encoding: 1114203 -1 276
Width: 800
HStem: 0 50<50 300 350 500 650 700> 100 50<50 100 650 700> 200 50<50 100> 300 50<250 300> 400 50<0 200 250 300 350 700>
VStem: 0 50<50 100 150 200> 100 50<150 200> 200 50<350 400> 300 50<-100 0 50 150 350 400> 500 50<50 250> 600 50<50 100> 700 50<50 100 150 400>
LayerCount: 2
Fore
SplineSet
100 250 m 1
 150 250 l 1
 150 100 l 1
 50 100 l 1
 50 50 l 1
 300 50 l 1
 300 150 l 1
 350 150 l 1
 350 50 l 1
 500 50 l 1
 500 250 l 1
 550 250 l 1
 550 0 l 1
 350 0 l 1
 350 -100 l 1
 300 -100 l 1
 300 0 l 1
 0 0 l 1
 0 250 l 1
 100 250 l 1
583 400 m 1
 350 400 l 1
 350 300 l 1
 200 300 l 1
 200 400 l 1
 0 400 l 1
 0 450 l 1
 500 450 l 1
 583 450 l 1
 750 450 l 1
 750 0 l 1
 600 0 l 1
 600 150 l 1
 700 150 l 1
 700 400 l 1
 583 400 l 1
700 100 m 1
 650 100 l 1
 650 50 l 1
 700 50 l 1
 700 100 l 1
50 200 m 1
 50 150 l 1
 100 150 l 1
 100 200 l 1
 50 200 l 1
250 400 m 1
 250 350 l 1
 300 350 l 1
 300 400 l 1
 250 400 l 1
EndSplineSet
Validated: 1
Ligature2: "'psts' Post Base Substitutions lookup guni AA 9-1" PH_A MATRA_AA
EndChar

StartChar: b_matra_aa
Encoding: 1114204 -1 277
Width: 700
Flags: W
HStem: 0 50<150 200 250 400 550 600> 100 50<550 600> 300 50<50 100> 400 50<50 100 300 400 450 600>
VStem: 0 50<350 400> 100 50<50 300 350 400> 200 50<50 150> 400 50<50 400> 500 50<50 100> 600 50<50 100 150 400>
LayerCount: 2
Fore
SplineSet
450 400 m 1
 450 0 l 1
 100 0 l 1
 100 300 l 1
 50 300 l 1
 0 300 l 1
 0 450 l 1
 150 450 l 1
 150 50 l 1
 200 50 l 1
 200 150 l 1
 250 150 l 1
 250 50 l 1
 400 50 l 1
 400 400 l 1
 300 400 l 1
 300 449 l 1
 425 450 l 1
 475 450 l 1
 650 450 l 1
 650 0 l 1
 500 0 l 1
 500 150 l 1
 600 150 l 1
 600 400 l 1
 472.200195312 400 l 1
 450 400 l 1
600 100 m 1
 550 100 l 1
 550 50 l 1
 600 50 l 1
 600 100 l 1
100 350 m 1
 100 400 l 1
 50 400 l 1
 50 350 l 1
 100 350 l 1
EndSplineSet
Validated: 1
Ligature2: "'psts' Post Base Substitutions lookup guni AA 9-1" B_A MATRA_AA
EndChar

StartChar: bh_matra_aa
Encoding: 1114205 -1 278
Width: 700
HStem: 0 50<150 200 250 400 550 600> 100 50<550 600> 300 50<50 100> 400 50<50 100 300 400 450 600>
VStem: 0 50<350 400> 100 50<50 300 350 400> 200 50<-100 0 50 150> 400 50<50 400> 500 50<50 100> 600 50<50 100 150 400>
LayerCount: 2
Fore
SplineSet
600 400 m 1
 450 400 l 1
 450 0 l 1
 250 0 l 1
 250 -100 l 1
 200 -100 l 1
 200 0 l 1
 100 0 l 1
 100 300 l 1
 50 300 l 1
 0 300 l 1
 0 450 l 1
 150 450 l 1
 150 50 l 1
 200 50 l 1
 200 150 l 1
 250 150 l 1
 250 50 l 1
 400 50 l 1
 400 400 l 1
 300 400 l 1
 300 450 l 1
 650 450 l 1
 650 0 l 1
 500 0 l 1
 500 150 l 1
 600 150 l 1
 600 400 l 1
600 100 m 1
 550 100 l 1
 550 50 l 1
 600 50 l 1
 600 100 l 1
50 400 m 1
 50 350 l 1
 100 350 l 1
 100 400 l 1
 50 400 l 1
EndSplineSet
Validated: 1
Ligature2: "'psts' Post Base Substitutions lookup guni AA 9-1" BH_A MATRA_AA
EndChar

StartChar: m_matra_aa
Encoding: 1114206 -1 279
Width: 900
Flags: W
HStem: 0 50<50 200 250 400 450 600 750 800> 100 50<50 100 750 800> 200 50<50 100> 300 50<650 800> 400 50<0 400 450 500>
VStem: 0 50<50 100 150 200> 100 50<150 200> 200 50<50 150> 400 50<50 400> 500 50<450 550> 600 50<50 300> 700 50<50 100> 800 50<50 100 150 300>
LayerCount: 2
Fore
SplineSet
650 300 m 1
 650 0 l 1
 0 0 l 1
 0 250 l 1
 150 250 l 1
 150 100 l 1
 50 100 l 1
 50 50 l 1
 200 50 l 1
 200 150 l 1
 250 150 l 1
 250 50 l 1
 400 50 l 1
 400 400 l 1
 0 400 l 1
 0 450 l 1
 500 450 l 1
 500 550 l 1
 550 550 l 1
 550 400 l 1
 450 400 l 1
 450 50 l 1
 600 50 l 1
 600 350 l 1
 625 350 l 1
 655.900390625 350 l 1
 850 350 l 1
 850 0 l 1
 700 0 l 1
 700 150 l 1
 800 150 l 1
 800 300 l 1
 675 300 l 1
 650 300 l 1
800 100 m 1
 750 100 l 1
 750 50 l 1
 800 50 l 1
 800 100 l 1
50 200 m 1
 50 150 l 1
 100 150 l 1
 100 200 l 1
 50 200 l 1
EndSplineSet
Validated: 1
Ligature2: "'psts' Post Base Substitutions lookup guni AA 9-1" M_A MATRA_AA
EndChar

StartChar: y_matra_aa
Encoding: 1114207 -1 280
Width: 900
HStem: 0 50<50 200 250 400 450 600 750 800> 100 50<750 800> 400 50<50 200 300 400 450 500 650 800>
VStem: 0 50<50 400> 200 50<50 400> 400 50<50 400> 500 50<450 550> 600 50<50 400> 700 50<50 100> 800 50<50 100 150 400>
LayerCount: 2
Fore
SplineSet
650 400 m 1
 650 0 l 1
 0 0 l 1
 0 450 l 1
 250 450 l 1
 250 50 l 1
 400 50 l 1
 400 400 l 1
 300 400 l 1
 300 450 l 1
 500 450 l 1
 500 550 l 1
 550 550 l 1
 550 400 l 1
 450 400 l 1
 450 50 l 1
 600 50 l 1
 600 450 l 1
 850 450 l 1
 850 0 l 1
 700 0 l 1
 700 150 l 1
 800 150 l 1
 800 400 l 1
 650 400 l 1
800 100 m 1
 750 100 l 1
 750 50 l 1
 800 50 l 1
 800 100 l 1
50 400 m 1
 50 50 l 1
 200 50 l 1
 200 400 l 1
 50 400 l 1
EndSplineSet
Validated: 1
Ligature2: "'psts' Post Base Substitutions lookup guni AA 9-1" Y_A MATRA_AA
EndChar

StartChar: rrr_matra_aa
Encoding: 1114208 -1 281
Width: 900
HStem: 0 50<150 500 650 700> 100 50<650 700> 400 50<0 100 150 500 550 700>
VStem: 100 50<50 400> 500 50<50 400> 600 50<50 100> 700 50<50 100 150 400>
LayerCount: 2
Fore
SplineSet
550 400 m 1
 550 0 l 1
 100 0 l 1
 100 400 l 1
 0 400 l 1
 0 450 l 1
 750 450 l 1
 750 0 l 1
 600 0 l 1
 600 150 l 1
 700 150 l 1
 700 400 l 1
 550 400 l 1
150 400 m 1
 150 50 l 1
 500 50 l 1
 500 400 l 1
 150 400 l 1
700 100 m 1
 650 100 l 1
 650 50 l 1
 700 50 l 1
 700 100 l 1
EndSplineSet
Validated: 1
Ligature2: "'psts' Post Base Substitutions lookup guni AA 9-1" RRR_A MATRA_AA
EndChar

StartChar: ll_matra_aa
Encoding: 1114209 -1 282
Width: 700
Flags: W
HStem: 0 50<50 400 550 600> 100 50<550 600> 300 50<50 100> 400 50<50 100 300 400 450 600>
VStem: 0 50<50 300 350 400> 100 50<350 400> 400 50<50 400> 500 50<50 100> 600 50<50 100 150 400>
LayerCount: 2
Fore
SplineSet
400 400 m 1
 300 400 l 1
 300 450 l 1
 650 450 l 1
 650 0 l 1
 500 0 l 1
 500 150 l 1
 600 150 l 1
 600 400 l 1
 450 400 l 1
 450 0 l 1
 0 0 l 1
 0 450 l 1
 150 450 l 1
 150 300 l 1
 50 300 l 1
 50 50 l 1
 400 50 l 1
 400 400 l 1
600 100 m 1
 550 100 l 1
 550 50 l 1
 600 50 l 1
 600 100 l 1
50 400 m 1
 50 350 l 1
 100 350 l 1
 100 400 l 1
 50 400 l 1
EndSplineSet
Validated: 1
Ligature2: "'psts' Post Base Substitutions lookup guni AA 9-1" LL_A MATRA_AA
EndChar

StartChar: lll_matra_aa
Encoding: 1114210 -1 283
Width: 700
HStem: 0 50<150 300 550 600> 100 50<550 600> 200 50<50 100 150 300 350 400> 300 50<50 100> 400 50<50 100 300 400 450 600>
VStem: 0 50<250 300 350 400> 100 50<50 200 350 400> 300 50<50 200> 400 50<250 400> 500 50<50 100> 600 50<50 100 150 400>
LayerCount: 2
Fore
SplineSet
550 400 m 1
 450 400 l 1
 450 200 l 1
 350 200 l 1
 350 0 l 1
 100 0 l 1
 100 200 l 1
 0 200 l 1
 0 450 l 1
 150 450 l 1
 150 300 l 1
 50 300 l 1
 50 250 l 1
 400 250 l 1
 400 400 l 1
 300 400 l 1
 300 450 l 1
 450 450 l 1
 650 450 l 1
 650 0 l 1
 500 0 l 1
 500 150 l 1
 600 150 l 1
 600 400 l 1
 550 400 l 1
600 100 m 1
 550 100 l 1
 550 50 l 1
 600 50 l 1
 600 100 l 1
150 200 m 1
 150 50 l 1
 300 50 l 1
 300 200 l 1
 150 200 l 1
50 400 m 1
 50 350 l 1
 100 350 l 1
 100 400 l 1
 50 400 l 1
EndSplineSet
Validated: 1
Ligature2: "'psts' Post Base Substitutions lookup guni AA 9-1" LLL_A MATRA_AA
EndChar

StartChar: v_matra_aa
Encoding: 1114211 -1 284
Width: 700
HStem: 0 50<50 200 250 400 550 600> 100 50<50 100 550 600> 200 50<50 100> 400 50<0 400 450 600>
VStem: 0 50<50 100 150 200> 100 50<150 200> 200 50<50 150> 400 50<50 400> 500 50<50 100> 600 50<50 100 150 400>
LayerCount: 2
Fore
SplineSet
550 400 m 1
 450 400 l 1
 450 0 l 1
 0 0 l 1
 0 250 l 1
 150 250 l 1
 150 100 l 1
 50 100 l 1
 50 50 l 1
 200 50 l 1
 200 150 l 1
 250 150 l 1
 250 50 l 1
 400 50 l 1
 400 400 l 1
 0 400 l 1
 0 450 l 1
 450 450 l 1
 650 450 l 1
 650 0 l 1
 500 0 l 1
 500 150 l 1
 600 150 l 1
 600 400 l 1
 550 400 l 1
600 100 m 1
 550 100 l 1
 550 50 l 1
 600 50 l 1
 600 100 l 1
50 200 m 1
 50 150 l 1
 100 150 l 1
 100 200 l 1
 50 200 l 1
EndSplineSet
Validated: 1
Ligature2: "'psts' Post Base Substitutions lookup guni AA 9-1" V_A MATRA_AA
EndChar

StartChar: sh_matra_aa
Encoding: 1114212 -1 285
Width: 600
Flags: W
HStem: 0 50<50 300 450 500> 100 50<450 500> 200 50<50 200> 300 50<150 200> 400 50<0 100 150 200 250 300 350 500>
VStem: 0 50<50 200> 100 50<350 400> 200 50<250 300 350 400> 300 50<50 400> 400 50<50 100> 500 50<50 100 150 400>
LayerCount: 2
Fore
SplineSet
450 400 m 1
 350 400 l 1
 350 0 l 1
 0 0 l 1
 0 250 l 1
 200 250 l 1
 200 300 l 1
 100 300 l 1
 100 400 l 1
 0 400 l 1
 0 450 l 1
 350 450 l 1
 550 450 l 1
 550 0 l 1
 400 0 l 1
 400 150 l 1
 500 150 l 1
 500 400 l 1
 450 400 l 1
50 200 m 1
 50 50 l 1
 300 50 l 1
 300 400 l 1
 250 400 l 1
 250 200 l 1
 50 200 l 1
500 100 m 1
 450 100 l 1
 450 50 l 1
 500 50 l 1
 500 100 l 1
150 400 m 1
 150 350 l 1
 200 350 l 1
 200 400 l 1
 150 400 l 1
EndSplineSet
Validated: 1
Ligature2: "'psts' Post Base Substitutions lookup guni AA 9-1" SH_A MATRA_AA
EndChar

StartChar: ss_matra_aa
Encoding: 1114213 -1 286
Width: 700
Flags: W
HStem: 0 50<50 200 250 300 350 400 550 600> 100 50<50 100 550 600> 200 50<50 100 350 400> 300 50<250 300> 400 50<0 200 250 300 350 600>
VStem: 0 50<50 100 150 200> 100 50<150 200> 200 50<50 150 350 400> 300 50<-100 0 50 200 350 400> 400 50<50 200> 500 50<50 100> 600 50<50 100 150 400>
LayerCount: 2
Fore
SplineSet
100 250 m 1
 150 250 l 1
 150 100 l 1
 50 100 l 1
 50 50 l 1
 200 50 l 1
 200 150 l 1
 250 150 l 1
 250 50 l 1
 300 50 l 1
 300 250 l 1
 450 250 l 1
 450 0 l 1
 350 0 l 1
 350 -100 l 1
 300 -100 l 1
 300 0 l 1
 0 0 l 1
 0 250 l 1
 100 250 l 1
600 400 m 1
 350 400 l 1
 350 300 l 1
 200 300 l 1
 200 400 l 1
 0 400 l 1
 0 450 l 1
 650 450 l 1
 650 0 l 1
 500 0 l 1
 500 150 l 1
 600 150 l 1
 600 400 l 1
350 200 m 1
 350 50 l 1
 400 50 l 1
 400 200 l 1
 350 200 l 1
600 100 m 1
 550 100 l 1
 550 50 l 1
 600 50 l 1
 600 100 l 1
50 200 m 1
 50 150 l 1
 100 150 l 1
 100 200 l 1
 50 200 l 1
250 400 m 1
 250 350 l 1
 300 350 l 1
 300 400 l 1
 250 400 l 1
EndSplineSet
Validated: 1
Ligature2: "'psts' Post Base Substitutions lookup guni AA 9-1" SS_A MATRA_AA
EndChar

StartChar: s_matra_aa
Encoding: 1114214 -1 287
Width: 700
HStem: 0 50<250 400 550 600> 100 50<550 600> 200 50<50 200> 300 50<250 300> 400 50<0 200 250 300 350 600>
VStem: 0 50<0 200> 200 50<50 200 350 400> 300 50<350 400> 400 50<50 250> 500 50<50 100> 600 50<50 100 150 400>
LayerCount: 2
Fore
SplineSet
0 250 m 1
 250 250 l 1
 250 50 l 1
 400 50 l 1
 400 250 l 1
 450 250 l 1
 450 0 l 1
 200 0 l 1
 200 200 l 1
 50 200 l 1
 50 0 l 1
 0 0 l 1
 0 250 l 1
600 400 m 1
 350 400 l 1
 350 300 l 1
 200 300 l 1
 200 400 l 1
 0 400 l 1
 0 450 l 1
 650 450 l 1
 650 0 l 1
 500 0 l 1
 500 150 l 1
 600 150 l 1
 600 400 l 1
600 100 m 1
 550 100 l 1
 550 50 l 1
 600 50 l 1
 600 100 l 1
250 400 m 1
 250 350 l 1
 300 350 l 1
 300 400 l 1
 250 400 l 1
EndSplineSet
Validated: 1
Ligature2: "'psts' Post Base Substitutions lookup guni AA 9-1" S_A MATRA_AA
EndChar

StartChar: h_matra_aa
Encoding: 1114215 -1 288
Width: 700
HStem: 0 50<50 200 250 400 550 600> 100 50<550 600> 300 50<50 200 250 400> 400 50<0 200 250 600>
VStem: 0 50<50 300> 200 50<50 300 350 400> 400 50<50 300> 500 50<50 100> 600 50<50 100 150 400>
LayerCount: 2
Fore
SplineSet
500 400 m 1
 250 400 l 1
 250 350 l 1
 450 350 l 1
 450 0 l 1
 0 0 l 1
 0 350 l 1
 200 350 l 1
 200 400 l 1
 0 400 l 1
 0 450 l 1
 400 450 l 1
 450 450 l 1
 650 450 l 1
 650 0 l 1
 500 0 l 1
 500 150 l 1
 600 150 l 1
 600 400 l 1
 500 400 l 1
600 100 m 1
 550 100 l 1
 550 50 l 1
 600 50 l 1
 600 100 l 1
50 300 m 1
 50 50 l 1
 200 50 l 1
 200 300 l 1
 50 300 l 1
250 300 m 1
 250 50 l 1
 400 50 l 1
 400 300 l 1
 250 300 l 1
EndSplineSet
Validated: 1
Ligature2: "'psts' Post Base Substitutions lookup guni AA 9-1" H_A MATRA_AA
EndChar

StartChar: rrrr_matra_aa
Encoding: 1114216 -1 289
Width: 700
HStem: 0 50<50 200 250 400 550 600> 100 50<550 600> 200 50<150 300> 300 50<50 100> 400 50<50 100 350 400 450 600>
VStem: 0 50<50 300 350 400> 100 50<350 400> 200 50<50 150> 300 50<250 400> 400 50<50 400> 500 50<50 100> 600 50<50 100 150 400>
LayerCount: 2
Fore
SplineSet
475 400 m 1
 450 400 l 1
 450 0 l 1
 0 0 l 1
 0 450 l 1
 150 450 l 1
 150 300 l 1
 50 300 l 1
 50 50 l 1
 200 50 l 1
 200 150 l 1
 250 150 l 1
 250 50 l 1
 400 50 l 1
 400 400 l 1
 350 400 l 1
 350 200 l 1
 150 200 l 1
 150 250 l 1
 300 250 l 1
 300 450 l 1
 450 450 l 1
 650 450 l 1
 650 0 l 1
 500 0 l 1
 500 150 l 1
 600 150 l 1
 600 400 l 1
 475 400 l 1
600 100 m 1
 550 100 l 1
 550 50 l 1
 600 50 l 1
 600 100 l 1
50 400 m 1
 50 350 l 1
 100 350 l 1
 100 400 l 1
 50 400 l 1
EndSplineSet
Validated: 1
Ligature2: "'psts' Post Base Substitutions lookup guni AA 9-1" RRRR_A MATRA_AA
EndChar

StartChar: k_matra_i
Encoding: 1114217 -1 290
Width: 500
Flags: W
HStem: 0 50<150 300> 300 50<0 100 150 200 250 300 350 450> 400 50<150 200> 500 50<150 200>
VStem: 100 50<50 300 450 500> 200 50<350 400 450 500> 300 50<50 300>
CounterMasks: 1 0e
LayerCount: 2
Fore
SplineSet
200 400 m 1
 100 400 l 1
 100 550 l 1
 211 550 l 1
 250 550 l 1
 250 350 l 1
 450 350 l 1
 450 300 l 1
 350 300 l 1
 350 0 l 1
 100 0 l 1
 100 300 l 1
 0 300 l 1
 0 350 l 1
 200 350 l 1
 200 400 l 1
300 300 m 1
 150 300 l 1
 150 50 l 1
 300 50 l 1
 300 300 l 1
200 500 m 1
 150 500 l 1
 150 450 l 1
 200 450 l 1
 200 500 l 1
EndSplineSet
Validated: 1
Ligature2: "'psts' Post Base Substitutions lookup guni I 9-2" K_A MATRA_I
EndChar

StartChar: kh_matra_i
Encoding: 1114218 -1 291
Width: 500
HStem: 0 50<50 200> 100 50<50 200 250 400> 300 50<50 100 350 400> 400 50<50 100 150 200 350 400>
VStem: 0 50<50 100 350 400> 100 50<350 400> 200 50<50 100 150 400> 300 50<350 400> 400 50<150 300 350 400>
LayerCount: 2
Fore
SplineSet
400 450 m 1
 450 450 l 1
 450 100 l 1
 250 100 l 1
 250 0 l 1
 0 0 l 1
 0 150 l 1
 200 150 l 1
 200 400 l 1
 150 400 l 1
 150 300 l 1
 0 300 l 1
 0 450 l 1
 250 450 l 1
 250 150 l 1
 400 150 l 1
 400 300 l 1
 300 300 l 1
 300 450 l 1
 400 450 l 1
50 100 m 1
 50 50 l 1
 200 50 l 1
 200 100 l 1
 50 100 l 1
400 400 m 1
 350 400 l 1
 350 350 l 1
 400 350 l 1
 400 400 l 1
50 400 m 1
 50 350 l 1
 100 350 l 1
 100 400 l 1
 50 400 l 1
EndSplineSet
Validated: 1
Ligature2: "'psts' Post Base Substitutions lookup guni I 9-2" KH_A MATRA_I
EndChar

StartChar: g_matra_i
Encoding: 1114219 -1 292
Width: 400
Flags: W
HStem: 0 21G<0 50 300 350> 300 50<50 100> 400 50<50 100 150 300>
VStem: 0 50<0 300 350 400> 100 50<350 400> 300 50<0 400>
LayerCount: 2
Fore
SplineSet
50 300 m 1
 50 0 l 1
 0 0 l 1
 0 450 l 1
 349.959960938 450 l 1
 350 400 l 1
 350 0 l 1
 300 0 l 1
 300 400 l 1
 150 400 l 1
 150 300 l 1
 50 300 l 1
50 400 m 1
 50 350 l 1
 100 350 l 1
 100 400 l 1
 50 400 l 1
EndSplineSet
Validated: 1
LCarets2: 1 0
Ligature2: "'psts' Post Base Substitutions lookup guni I 9-2" G_A MATRA_I
EndChar

StartChar: gh_matra_i
Encoding: 1114220 -1 293
Width: 600
Flags: W
HStem: 0 50<50 300 350 500> 100 50<50 100> 200 50<50 100 400 500> 300 50<200 300> 400 50<250 300> 500 50<250 300>
VStem: 0 50<50 100 150 200> 100 50<150 200> 200 50<450 500> 300 50<-100 0 50 150 350 400 450 500> 500 50<50 200 250 300>
LayerCount: 2
Fore
SplineSet
500 250 m 1
 500 300 l 1
 550 300 l 1
 550 0 l 1
 350 0 l 1
 350 -100 l 1
 300 -100 l 1
 300 0 l 1
 0 0 l 1
 0 250 l 1
 150 250 l 1
 150 100 l 1
 50 100 l 1
 50 50 l 1
 300 50 l 1
 300 150 l 1
 350 150 l 1
 350 50 l 1
 500 50 l 1
 500 200 l 1
 400 200 l 1
 400 250 l 1
 500 250 l 1
50 200 m 1
 50 150 l 1
 100 150 l 1
 100 200 l 1
 50 200 l 1
311 550 m 1
 350 550 l 1
 350 300 l 1
 200 300 l 1
 200 350 l 1
 300 350 l 1
 300 400 l 1
 200 400 l 1
 200 550 l 1
 311 550 l 1
300 500 m 1
 250 500 l 1
 250 450 l 1
 300 450 l 1
 300 500 l 1
EndSplineSet
Validated: 1
Ligature2: "'psts' Post Base Substitutions lookup guni I 9-2" GH_A MATRA_I
EndChar

